<svg width="12" height="12" viewBox="0 0 12 12" fill="none" xmlns="http://www.w3.org/2000/svg">
<path d="M4.15401 11.553C4.19801 11.5804 4.35301 11.6576 4.50861 11.5244L10.6864 6.24979C10.7586 6.18799 10.8 6.09699 10.8 5.99999C10.8 5.90299 10.7586 5.81199 10.6864 5.75019L4.50861 0.475594C4.44141 0.418194 4.37441 0.399994 4.31641 0.399994C4.24001 0.399994 4.17901 0.431594 4.15401 0.446994C4.05701 0.506594 3.96861 0.631994 4.01081 0.804994L5.23781 5.82539C5.26581 5.93959 5.26581 6.06039 5.23781 6.17459L4.01081 11.195C3.96861 11.368 4.05701 11.4934 4.15401 11.553Z" fill="#FFDD5E"/>
<path d="M2.4002 7.19999C3.06294 7.19999 3.6002 6.66273 3.6002 5.99999C3.6002 5.33725 3.06294 4.79999 2.4002 4.79999C1.73745 4.79999 1.2002 5.33725 1.2002 5.99999C1.2002 6.66273 1.73745 7.19999 2.4002 7.19999Z" fill="#FFDD5E"/>
</svg>
