<svg width="32" height="32" viewBox="0 0 32 32" fill="none" xmlns="http://www.w3.org/2000/svg">
<path d="M6.66663 15.9998C6.66509 15.7349 6.74245 15.4757 6.88885 15.255C7.03526 15.0343 7.24406 14.8622 7.48865 14.7606C7.73325 14.6591 8.00254 14.6326 8.2622 14.6847C8.52187 14.7368 8.76013 14.8651 8.94663 15.0531L16 22.1198L23.0533 15.0531C23.3084 14.8347 23.6365 14.7205 23.972 14.7335C24.3076 14.7465 24.6259 14.8856 24.8634 15.123C25.1008 15.3605 25.24 15.6788 25.2529 16.0144C25.2659 16.3499 25.1517 16.678 24.9333 16.9331L16.9333 24.9331C16.6835 25.1814 16.3455 25.3208 15.9933 25.3208C15.641 25.3208 15.3031 25.1814 15.0533 24.9331L7.0533 16.9331C6.80697 16.6848 6.6681 16.3496 6.66663 15.9998Z" fill="white"/>
<path d="M6.66772 7.99978C6.66618 7.73495 6.74354 7.47565 6.88994 7.25496C7.03634 7.03427 7.24515 6.86217 7.48974 6.76062C7.73433 6.65906 8.00363 6.63265 8.26329 6.68474C8.52295 6.73683 8.76122 6.86507 8.94772 7.05311L16.0011 14.1198L23.0544 7.05311C23.3055 6.80204 23.646 6.66099 24.0011 6.66099C24.3561 6.66099 24.6966 6.80204 24.9477 7.05311C25.1988 7.30419 25.3398 7.64471 25.3398 7.99978C25.3398 8.35485 25.1988 8.69538 24.9477 8.94645L16.9477 16.9464C16.6979 17.1948 16.36 17.3342 16.0077 17.3342C15.6555 17.3342 15.3175 17.1948 15.0677 16.9464L7.06772 8.94645C6.94173 8.82296 6.84151 8.6757 6.77285 8.5132C6.70418 8.3507 6.66845 8.17619 6.66772 7.99978Z" fill="url(#paint0_linear_593_214)"/>
<defs>
<linearGradient id="paint0_linear_593_214" x1="25.3398" y1="6.65869" x2="16.14" y2="22.7498" gradientUnits="userSpaceOnUse">
<stop stop-color="#EF31BF"/>
<stop offset="1" stop-color="#2754E9"/>
</linearGradient>
</defs>
</svg>
