<svg width="48" height="48" viewBox="0 0 48 48" fill="none" xmlns="http://www.w3.org/2000/svg">
<rect width="48" height="48" rx="24" fill="#1864DA"/>
<path d="M21.6964 25.2478C21.6244 25.2478 20.0404 25.2478 19.3204 25.2478C18.9364 25.2478 18.8164 25.1038 18.8164 24.7438C18.8164 23.7838 18.8164 22.7998 18.8164 21.8398C18.8164 21.4558 18.9604 21.3358 19.3204 21.3358H21.6964C21.6964 21.2638 21.6964 19.8718 21.6964 19.2238C21.6964 18.2638 21.8644 17.3518 22.3444 16.5118C22.8484 15.6478 23.5684 15.0718 24.4804 14.7358C25.0804 14.5198 25.6804 14.4238 26.3284 14.4238H28.6804C29.0164 14.4238 29.1604 14.5678 29.1604 14.9038V17.6398C29.1604 17.9758 29.0164 18.1198 28.6804 18.1198C28.0324 18.1198 27.3844 18.1198 26.7364 18.1438C26.0884 18.1438 25.7524 18.4558 25.7524 19.1278C25.7284 19.8478 25.7524 20.5438 25.7524 21.2878H28.5364C28.9204 21.2878 29.0644 21.4318 29.0644 21.8158V24.7198C29.0644 25.1038 28.9444 25.2238 28.5364 25.2238C27.6724 25.2238 25.8244 25.2238 25.7524 25.2238V33.0478C25.7524 33.4558 25.6324 33.5998 25.2004 33.5998C24.1924 33.5998 23.2084 33.5998 22.2004 33.5998C21.8404 33.5998 21.6964 33.4558 21.6964 33.0958C21.6964 30.5758 21.6964 25.3198 21.6964 25.2478Z" fill="white"/>
</svg>
