<svg width="48" height="48" viewBox="0 0 48 48" fill="none" xmlns="http://www.w3.org/2000/svg">
<rect width="48" height="48" rx="24" fill="url(#paint0_linear_421_1292)"/>
<g clip-path="url(#clip0_421_1292)">
<path d="M33.9399 19.8771C33.8912 18.8126 33.7221 18.0857 33.4749 17.4497C33.2239 16.7824 32.8303 16.178 32.3215 15.6785C31.8221 15.1697 31.2176 14.7759 30.5503 14.5247C29.9142 14.2777 29.1874 14.1088 28.1229 14.0604C27.0565 14.0116 26.7158 14 24 14C21.2842 14 20.9435 14.0116 19.8771 14.0601C18.8126 14.1088 18.0858 14.2779 17.4497 14.5251C16.7824 14.7761 16.178 15.1697 15.6785 15.6785C15.1697 16.1779 14.7759 16.7823 14.5247 17.4496C14.2777 18.0857 14.1088 18.8126 14.0604 19.8769C14.0116 20.9435 14 21.2841 14 23.9998C14 26.7158 14.0116 27.0565 14.0604 28.1229C14.1089 29.1872 14.278 29.9142 14.5252 30.5503C14.7762 31.2174 15.1699 31.822 15.6786 32.3214C16.178 32.8301 16.7826 33.2238 17.4499 33.4748C18.0858 33.7221 18.8128 33.8911 19.8772 33.9397C20.9438 33.9884 21.2844 33.9998 24.0002 33.9998C26.7159 33.9998 27.0566 33.9884 28.1231 33.9397C29.1875 33.8911 29.9143 33.7221 30.5504 33.4748C31.8937 32.9554 32.9555 31.8935 33.4749 30.5503C33.7223 29.9142 33.8912 29.1872 33.9399 28.1229C33.9884 27.0563 34 26.7158 34 24C34 21.2841 33.9884 20.9435 33.9399 19.8771ZM32.1398 28.041C32.0954 29.016 31.9324 29.5455 31.7956 29.8978C31.4591 30.77 30.7699 31.4593 29.8977 31.7957C29.5453 31.9326 29.0159 32.0956 28.0408 32.14C26.9866 32.1882 26.6703 32.1982 24 32.1982C21.3296 32.1982 21.0134 32.1882 19.959 32.14C18.9841 32.0956 18.4547 31.9326 18.1022 31.7957C17.6679 31.6353 17.275 31.3798 16.9524 31.0476C16.6202 30.725 16.3647 30.3322 16.2043 29.8978C16.0674 29.5455 15.9044 29.016 15.86 28.041C15.812 26.9866 15.8018 26.6703 15.8018 24.0002C15.8018 21.3299 15.812 21.0137 15.86 19.9592C15.9046 18.9841 16.0674 18.4547 16.2043 18.1023C16.3647 17.6679 16.6204 17.275 16.9524 16.9524C17.275 16.6202 17.6679 16.3647 18.1023 16.2044C18.4547 16.0674 18.9841 15.9046 19.9592 15.86C21.0135 15.812 21.3299 15.8018 24 15.8018H23.9998C26.67 15.8018 26.9863 15.812 28.0408 15.8602C29.0159 15.9046 29.5452 16.0676 29.8977 16.2044C30.3319 16.3648 30.7249 16.6204 31.0474 16.9524C31.3796 17.275 31.6352 17.6679 31.7954 18.1023C31.9324 18.4547 32.0954 18.9841 32.1398 19.9592C32.1879 21.0135 32.1981 21.3299 32.1981 24C32.1981 26.6703 32.188 26.9865 32.1398 28.041Z" fill="white"/>
<path d="M23.9983 18.8647C21.1623 18.8647 18.8633 21.1639 18.8633 23.9999C18.8633 26.8359 21.1623 29.135 23.9983 29.135C26.8345 29.135 29.1335 26.8359 29.1335 23.9999C29.1335 21.1639 26.8345 18.8647 23.9983 18.8647ZM23.9983 27.3332C22.1575 27.3331 20.665 25.8408 20.6652 23.9998C20.6652 22.159 22.1575 20.6665 23.9985 20.6665C25.8394 20.6667 27.3318 22.159 27.3318 23.9998C27.3318 25.8408 25.8393 27.3332 23.9983 27.3332Z" fill="white"/>
<path d="M30.5368 18.662C30.5368 19.3247 29.9995 19.862 29.3368 19.862C28.674 19.862 28.1367 19.3247 28.1367 18.662C28.1367 17.9992 28.674 17.4619 29.3368 17.4619C29.9995 17.4619 30.5368 17.9992 30.5368 18.662Z" fill="white"/>
</g>
<defs>
<linearGradient id="paint0_linear_421_1292" x1="4.02808" y1="43.9719" x2="43.9722" y2="4.02803" gradientUnits="userSpaceOnUse">
<stop stop-color="#FFD600"/>
<stop offset="0.5" stop-color="#FF0100"/>
<stop offset="1" stop-color="#D800B9"/>
</linearGradient>
<clipPath id="clip0_421_1292">
<rect width="20" height="20" fill="white" transform="translate(14 14)"/>
</clipPath>
</defs>
</svg>
