<svg width="48" height="48" viewBox="0 0 48 48" fill="none" xmlns="http://www.w3.org/2000/svg">
<rect width="48" height="48" rx="24" fill="#F44336"/>
<path d="M24.2717 14C18.7892 14.0008 15.875 17.5133 15.875 21.3433C15.875 23.1192 16.8675 25.335 18.4567 26.0375C18.91 26.2417 18.85 25.9925 19.24 24.5008C19.2708 24.3767 19.255 24.2692 19.155 24.1533C16.8833 21.5258 18.7117 16.1242 23.9475 16.1242C31.525 16.1242 30.1092 26.6092 25.2658 26.6092C24.0175 26.6092 23.0875 25.6292 23.3817 24.4167C23.7383 22.9725 24.4367 21.42 24.4367 20.3792C24.4367 17.7558 20.5283 18.145 20.5283 21.6208C20.5283 22.695 20.9083 23.42 20.9083 23.42C20.9083 23.42 19.6508 28.5 19.4175 29.4492C19.0225 31.0558 19.4708 33.6567 19.51 33.8808C19.5342 34.0042 19.6725 34.0433 19.75 33.9417C19.8742 33.7792 21.3942 31.6108 21.82 30.0433C21.975 29.4725 22.6108 27.1558 22.6108 27.1558C23.03 27.9125 24.2383 28.5458 25.5258 28.5458C29.3558 28.5458 32.1242 25.1792 32.1242 21.0017C32.1108 16.9967 28.6833 14 24.2717 14Z" fill="white"/>
</svg>
