<svg width="48" height="48" viewBox="0 0 48 48" fill="none" xmlns="http://www.w3.org/2000/svg">
<rect width="48" height="48" rx="24" fill="#20CE63"/>
<g clip-path="url(#clip0_421_1301)">
<path d="M28.5893 25.9225L28.5818 25.985C26.7493 25.0717 26.5576 24.95 26.3209 25.305C26.1568 25.5508 25.6784 26.1083 25.5343 26.2733C25.3884 26.4358 25.2434 26.4483 24.9959 26.3358C24.7459 26.2108 23.9434 25.9483 22.9934 25.0983C22.2534 24.4358 21.7568 23.6233 21.6101 23.3733C21.3659 22.9517 21.8768 22.8917 22.3418 22.0117C22.4251 21.8367 22.3826 21.6992 22.3209 21.575C22.2584 21.45 21.7609 20.225 21.5526 19.7367C21.3526 19.25 21.1468 19.3117 20.9926 19.3117C20.5126 19.27 20.1618 19.2767 19.8526 19.5983C18.5076 21.0767 18.8468 22.6017 19.9976 24.2233C22.2593 27.1833 23.4643 27.7283 25.6676 28.485C26.2626 28.6742 26.8051 28.6475 27.2343 28.5858C27.7126 28.51 28.7068 27.985 28.9143 27.3975C29.1268 26.81 29.1268 26.3225 29.0643 26.21C29.0026 26.0975 28.8393 26.035 28.5893 25.9225Z" fill="white"/>
<path d="M31.1 16.8741C24.6925 10.6799 14.0883 15.1724 14.0842 23.9108C14.0842 25.6574 14.5417 27.3608 15.4133 28.8649L14 33.9999L19.2792 32.6233C25.8667 36.1816 33.9967 31.4566 34 23.9158C34 21.2691 32.9667 18.7783 31.0875 16.9066L31.1 16.8741ZM32.335 23.8883C32.33 30.2491 25.3475 34.2216 19.825 30.9749L19.525 30.7966L16.4 31.6091L17.2375 28.5716L17.0383 28.2591C13.6017 22.7883 17.55 15.6383 24.06 15.6383C26.2717 15.6383 28.3475 16.5008 29.9108 18.0633C31.4733 19.6124 32.335 21.6883 32.335 23.8883Z" fill="white"/>
</g>
<defs>
<clipPath id="clip0_421_1301">
<rect width="20" height="20" fill="white" transform="translate(14 14)"/>
</clipPath>
</defs>
</svg>
