<svg width="28" height="28" viewBox="0 0 28 28" fill="none" xmlns="http://www.w3.org/2000/svg">
<g clip-path="url(#clip0_593_517)">
<path d="M27.0725 22.2075L25.5325 6.7375C25.478 6.21319 25.2669 5.71744 24.9267 5.31479C24.5864 4.91215 24.1329 4.62126 23.625 4.48V2.625H24.5C24.7321 2.625 24.9546 2.53281 25.1187 2.36872C25.2828 2.20462 25.375 1.98206 25.375 1.75C25.375 1.51794 25.2828 1.29538 25.1187 1.13128C24.9546 0.967187 24.7321 0.875 24.5 0.875H17.5C17.2679 0.875 17.0454 0.967187 16.8813 1.13128C16.7172 1.29538 16.625 1.51794 16.625 1.75C16.625 1.98206 16.7172 2.20462 16.8813 2.36872C17.0454 2.53281 17.2679 2.625 17.5 2.625H18.375V4.48C17.8671 4.62126 17.4136 4.91215 17.0734 5.31479C16.7331 5.71744 16.522 6.21319 16.4675 6.7375V7.11375C14.8475 7.0088 13.2225 7.0088 11.6025 7.11375V6.7375C11.5431 6.2042 11.3218 5.70191 10.9682 5.29828C10.6146 4.89465 10.1458 4.60906 9.625 4.48V2.625H10.5C10.7321 2.625 10.9546 2.53281 11.1187 2.36872C11.2828 2.20462 11.375 1.98206 11.375 1.75C11.375 1.51794 11.2828 1.29538 11.1187 1.13128C10.9546 0.967187 10.7321 0.875 10.5 0.875H3.5C3.26794 0.875 3.04538 0.967187 2.88129 1.13128C2.71719 1.29538 2.625 1.51794 2.625 1.75C2.625 1.98206 2.71719 2.20462 2.88129 2.36872C3.04538 2.53281 3.26794 2.625 3.5 2.625H4.375V4.48C3.86715 4.62126 3.41358 4.91215 3.07336 5.31479C2.73314 5.71744 2.52202 6.21319 2.4675 6.7375L0.927504 22.2075C0.892292 22.3862 0.874708 22.5679 0.875004 22.75C0.875004 25.2 3.56125 27.125 7 27.125C10.4388 27.125 13.125 25.2 13.125 22.75C13.1253 22.5679 13.1077 22.3862 13.0725 22.2075L12.25 14.0875C13.4167 14.035 14.5833 14.035 15.75 14.0875L14.945 22.2075C14.9039 22.3856 14.8805 22.5673 14.875 22.75C14.875 25.2 17.5613 27.125 21 27.125C24.4388 27.125 27.125 25.2 27.125 22.75C27.1253 22.5679 27.1077 22.3862 27.0725 22.2075ZM21.875 2.625V4.375H20.125V2.625H21.875ZM18.2088 6.9125C18.2305 6.69592 18.3322 6.49522 18.494 6.34961C18.6558 6.20399 18.8661 6.12391 19.0838 6.125H22.9163C23.1339 6.12391 23.3442 6.20399 23.506 6.34961C23.6678 6.49522 23.7695 6.69592 23.7913 6.9125L25.0425 19.4425C23.8191 18.7211 22.4201 18.3516 21 18.375C19.5799 18.3516 18.1809 18.7211 16.9575 19.4425L18.2088 6.9125ZM7.875 2.625V4.375H6.125V2.625H7.875ZM4.20875 6.9125C4.23052 6.69592 4.33223 6.49522 4.49402 6.34961C4.65582 6.20399 4.86608 6.12391 5.08375 6.125H8.91625C9.13392 6.12391 9.34419 6.20399 9.50598 6.34961C9.66778 6.49522 9.76949 6.69592 9.79125 6.9125L11.0425 19.4425C9.81908 18.7211 8.42011 18.3516 7 18.375C5.57989 18.3516 4.18093 18.7211 2.9575 19.4425L4.20875 6.9125ZM7 25.375C4.62875 25.375 2.625 24.1763 2.625 22.75C2.625 21.3237 4.62875 20.125 7 20.125C9.37125 20.125 11.375 21.3237 11.375 22.75C11.375 24.1763 9.37125 25.375 7 25.375ZM12.0838 12.3288L11.7425 8.82875C13.246 8.73249 14.754 8.73249 16.2575 8.82875L15.9163 12.3288C14.6397 12.2588 13.3603 12.2588 12.0838 12.3288ZM21 25.375C18.6288 25.375 16.625 24.1763 16.625 22.75C16.625 21.3237 18.6288 20.125 21 20.125C23.3713 20.125 25.375 21.3237 25.375 22.75C25.375 24.1763 23.3713 25.375 21 25.375Z" fill="white"/>
</g>
<defs>
<clipPath id="clip0_593_517">
<rect width="28" height="28" fill="white"/>
</clipPath>
</defs>
</svg>
