<svg width="28" height="28" viewBox="0 0 28 28" fill="none" xmlns="http://www.w3.org/2000/svg">
<g clip-path="url(#clip0_593_527)">
<path d="M28 5.2024L24.2051 3.79492L22.7976 0L19.4321 3.36556C17.5058 2.30843 15.3386 1.75231 13.1238 1.75231C9.61836 1.75231 6.32269 3.11746 3.84392 5.59623C1.36515 8.07499 0 11.3706 0 14.8762C0 18.3817 1.36515 21.6773 3.84392 24.1561C6.32269 26.6348 9.61836 28 13.1238 28C16.6293 28 19.925 26.6348 22.4038 24.1561C24.8825 21.6773 26.2477 18.3816 26.2477 14.8762C26.2477 12.6615 25.6916 10.4942 24.6344 8.56785L28 5.2024ZM22.149 2.96867L22.9288 5.07116L25.0313 5.85099L23.2232 7.65908L19.8832 8.11677L20.3409 4.77675L22.149 2.96867ZM16.4048 14.8762C16.4048 16.6853 14.933 18.1571 13.1238 18.1571C11.3147 18.1571 9.84289 16.6853 9.84289 14.8762C9.84289 13.067 11.3147 11.5952 13.1238 11.5952C13.7314 11.5952 14.3006 11.7618 14.7892 12.0509L12.5439 14.2961L13.7039 15.4561L15.9491 13.2108C16.2382 13.6994 16.4048 14.2686 16.4048 14.8762ZM15.9739 10.8661C15.1691 10.2925 14.1852 9.95471 13.1238 9.95471C10.4102 9.95471 8.2024 12.1625 8.2024 14.8762C8.2024 17.5898 10.4102 19.7976 13.1238 19.7976C15.8375 19.7976 18.0453 17.5898 18.0453 14.8762C18.0453 13.8148 17.7075 12.8309 17.1339 12.0261L18.889 10.271C19.9002 11.5344 20.506 13.1358 20.506 14.8762C20.506 18.9467 17.1944 22.2583 13.1238 22.2583C9.05332 22.2583 5.74168 18.9467 5.74168 14.8762C5.74168 10.8056 9.05332 7.49399 13.1238 7.49399C14.8642 7.49399 16.4656 8.09976 17.729 9.11101L15.9739 10.8661ZM13.1238 26.3595C6.79192 26.3595 1.64048 21.2081 1.64048 14.8762C1.64048 8.54423 6.79192 3.39279 13.1238 3.39279C15.0758 3.39279 16.985 3.88624 18.6787 4.82362L18.3121 7.49853C16.8435 6.46273 15.0536 5.85345 13.1238 5.85345C8.14876 5.85345 4.1012 9.90101 4.1012 14.8761C4.1012 19.8512 8.14876 23.8987 13.1238 23.8987C18.0989 23.8987 22.1465 19.8512 22.1465 14.8761C22.1465 12.9463 21.5372 11.1564 20.5014 9.68786L23.1763 9.32127C24.1138 11.015 24.6072 12.9242 24.6072 14.8762C24.6072 21.2081 19.4558 26.3595 13.1238 26.3595Z" fill="white"/>
</g>
<defs>
<clipPath id="clip0_593_527">
<rect width="28" height="28" fill="white"/>
</clipPath>
</defs>
</svg>
