<svg width="28" height="28" viewBox="0 0 28 28" fill="none" xmlns="http://www.w3.org/2000/svg">
<g clip-path="url(#clip0_593_506)">
<path d="M27.8687 25.8057L19.9943 13.5565C19.8393 13.3153 19.571 13.1729 19.2829 13.1801C18.9963 13.1876 18.7344 13.3442 18.5921 13.5931L16.1573 17.8541L11.2658 9.40504V6.94587H15.6952C16.0059 6.94587 16.2899 6.77033 16.4288 6.49243C16.5678 6.21453 16.5378 5.882 16.3514 5.63346L15.4081 4.37573L16.3514 3.11801C16.5378 2.86947 16.5678 2.53694 16.4288 2.25904C16.2899 1.98114 16.0059 1.8056 15.6952 1.8056H11.2658V1.75092C11.2658 1.29792 10.8986 0.930664 10.4456 0.930664C9.99256 0.930664 9.62531 1.29792 9.62531 1.75092V9.40504L0.111335 25.8382C-0.204846 26.3843 0.190134 27.0695 0.821184 27.0695H27.1787C27.8268 27.0695 28.2192 26.3507 27.8687 25.8057ZM11.2658 3.44611H14.0546L13.7265 3.88358C13.5078 4.17521 13.5078 4.57626 13.7265 4.86789L14.0546 5.30536H11.2658V3.44611ZM10.4455 11.2625L12.9192 15.5352L12.2501 16.037L10.9923 15.0937C10.7007 14.875 10.2997 14.875 10.008 15.0937L8.74282 16.0427L7.99349 15.4977L10.4455 11.2625ZM2.24389 25.4289L7.16717 16.9251L8.26789 17.7257C8.55887 17.9374 8.95428 17.9347 9.24247 17.7185L10.5002 16.7753L11.7579 17.7185C12.0496 17.9373 12.4505 17.9373 12.7422 17.7185L13.747 16.965L18.6472 25.4289H2.24389ZM20.5428 25.4289L17.1082 19.4965L19.3456 15.5811L25.6764 25.4289H20.5428Z" fill="white"/>
</g>
<defs>
<clipPath id="clip0_593_506">
<rect width="28" height="28" fill="white"/>
</clipPath>
</defs>
</svg>
