<svg width="134" height="36" viewBox="0 0 134 36" fill="none" xmlns="http://www.w3.org/2000/svg">
<g clip-path="url(#clip0_250_1189)">
<mask id="mask0_250_1189" style="mask-type:luminance" maskUnits="userSpaceOnUse" x="0" y="0" width="134" height="36">
<path d="M133.629 0.015625H0.135498V35.9839H133.629V0.015625Z" fill="white"/>
</mask>
<g mask="url(#mask0_250_1189)">
<path d="M106.1 25.7617C106.1 28.9975 105.746 30.6622 104.73 32.2332C103.052 34.7421 100.098 35.9848 95.8443 35.9848C89.9128 35.9848 86.699 33.8511 86.1318 29.5368H91.8507C92.3232 31.3657 93.5284 32.1864 95.9389 32.1864C99.3654 32.1864 100.618 30.7795 100.618 26.9107V24.5659C99.2 26.6996 97.0968 27.7548 94.3082 27.7548C88.9439 27.7548 85.4465 23.886 85.4465 17.602C85.4465 11.3416 89.0621 7.19141 94.521 7.19141C97.404 7.19141 99.1291 8.08241 100.712 10.474V7.75413H106.124V25.7617H106.1ZM95.8443 11.623C92.914 11.623 91.1653 13.8036 91.1653 17.5082C91.1653 21.3067 92.9613 23.6046 95.8916 23.6046C98.8219 23.6046 100.712 21.3067 100.712 17.5551C100.689 13.8035 98.9164 11.623 95.8443 11.623ZM113.048 19.5482C113.166 23.1356 114.82 24.9645 117.892 24.9645C119.996 24.9645 121.248 24.0735 122.099 22.0336H127.581C126.518 26.3011 122.737 28.9272 117.869 28.9272C111.465 28.9272 107.258 24.6597 107.258 18.1882C107.258 11.8809 111.63 7.23829 117.703 7.23829C123.895 7.23829 127.935 11.8105 127.935 18.9151V19.5482H113.048ZM122.122 15.9139C121.816 12.8892 120.232 11.2713 117.656 11.2713C115.08 11.2713 113.355 13.0298 113.048 15.9139H122.122Z" fill="white"/>
<path d="M13.8889 28.3635V16.546C13.8889 13.0055 12.9438 11.8097 10.3206 11.8097C7.17766 11.8097 5.80703 13.6385 5.80703 17.7418V28.3635H0.135498V7.77671H5.54709V10.6373C7.39034 8.24565 9.37538 7.23741 12.4711 7.23741C15.0942 7.23741 17.3628 8.29255 18.4499 10.0511C19.3951 11.411 19.5605 12.7475 19.5605 15.4205V28.387L13.8889 28.3635ZM26.4136 19.5473C26.5317 23.1347 28.186 24.9636 31.2581 24.9636C33.3613 24.9636 34.6137 24.0726 35.4645 22.0328H40.9233C39.8599 26.3001 36.0789 28.9263 31.2108 28.9263C24.8067 28.9263 20.6003 24.6588 20.6003 18.1874C20.6003 11.88 24.9721 7.23741 31.0454 7.23741C37.2368 7.23741 41.2778 11.8097 41.2778 18.9142V19.5473H26.4136ZM35.4881 15.913C35.1808 12.8883 33.5976 11.2704 31.0218 11.2704C28.4459 11.2704 26.7209 13.0289 26.4136 15.913H35.4881ZM65.7363 28.3635H59.8994L57.4417 19.3598C56.969 17.3901 56.7091 16.1709 56.1419 13.0992C55.6693 16.1709 55.3148 17.437 54.8422 19.3598L52.5735 28.3635H46.6894L40.0253 7.77671H46.0513L48.2491 15.6081C48.9344 17.859 49.2889 19.4535 49.9742 23.1582C50.5413 19.6176 50.8721 18.3515 51.5574 15.3971L53.448 7.77671H59.0014L61.1991 16.2646C61.8844 18.7032 62.0971 19.9224 62.5697 23.1347C63.255 19.7349 63.6095 18.2343 64.0821 16.4054L68.9501 0.015625H74.8817L65.7363 28.3635Z" fill="white"/>
<path d="M81.0515 16.3821L76.7506 1.8916L73.8203 11.083L75.8998 17.5779H71.7406L70.3228 22.0095H77.3177L79.35 28.3402H85.1869C85.2342 28.3638 81.5241 18.2344 81.0515 16.3821Z" fill="white"/>
<path d="M108.368 31.0362C108.037 31.0362 107.753 31.2941 107.753 31.6224C107.753 31.9506 108.013 32.232 108.368 32.232C108.533 32.232 108.722 32.1617 108.864 32.021L109.077 32.2554C108.888 32.443 108.628 32.5602 108.368 32.5602C107.824 32.5602 107.423 32.1617 107.423 31.6458C107.423 31.13 107.848 30.7314 108.392 30.7314C108.651 30.7314 108.911 30.8487 109.1 31.0127L108.888 31.2707C108.722 31.13 108.557 31.0362 108.368 31.0362ZM111.369 31.6458C111.369 32.1617 110.944 32.5602 110.4 32.5602C109.857 32.5602 109.431 32.1617 109.431 31.6458C109.431 31.13 109.857 30.7314 110.4 30.7314C110.944 30.7314 111.369 31.13 111.369 31.6458ZM109.786 31.6458C109.786 31.9742 110.069 32.2554 110.4 32.2554C110.731 32.2554 111.015 31.9976 111.015 31.6458C111.015 31.3175 110.731 31.0362 110.4 31.0362C110.069 31.0596 109.786 31.3175 109.786 31.6458ZM112.314 30.7548L112.881 31.9037L113.449 30.7548H113.85V32.5602H113.543V31.2707L113 32.3727H112.763L112.22 31.2707V32.5602H111.889V30.7548H112.314ZM114.961 30.7548L115.528 31.9037L116.095 30.7548H116.497V32.5602H116.19V31.2707L115.646 32.3727H115.41L114.866 31.2707V32.5602H114.536V30.7548H114.961ZM117.986 32.2554C118.269 32.2554 118.435 32.0914 118.435 31.7865V30.7314H118.789V31.7865C118.789 32.2554 118.482 32.5602 117.986 32.5602C117.49 32.5602 117.182 32.279 117.182 31.7865V30.7314H117.537V31.7865C117.513 32.0914 117.702 32.2554 117.986 32.2554ZM119.758 30.7548L120.703 31.9742V30.7548H121.034V32.5602H120.703L119.782 31.341V32.5602H119.451V30.7548H119.758ZM122.098 30.7548V32.5602H121.744V30.7548H122.098ZM123.61 31.0362C123.279 31.0362 122.995 31.2941 122.995 31.6224C122.995 31.9506 123.256 32.232 123.61 32.232C123.775 32.232 123.964 32.1617 124.107 32.021L124.318 32.2554C124.129 32.443 123.87 32.5602 123.61 32.5602C123.067 32.5602 122.665 32.1617 122.665 31.6458C122.665 31.13 123.09 30.7314 123.634 30.7314C123.894 30.7314 124.153 30.8487 124.342 31.0127L124.129 31.2707C123.964 31.13 123.799 31.0362 123.61 31.0362ZM126.021 32.1617H125.146L124.98 32.5368H124.626L125.43 30.7314H125.784L126.564 32.5368H126.186L126.021 32.1617ZM125.903 31.8803L125.595 31.13L125.265 31.8803H125.903ZM128.123 30.7548V31.0596H127.556V32.5602H127.202V31.0596H126.635V30.7548H128.123ZM128.975 30.7548V32.5602H128.62V30.7548H128.975ZM131.455 31.6458C131.455 32.1617 131.03 32.5602 130.487 32.5602C129.943 32.5602 129.518 32.1617 129.518 31.6458C129.518 31.13 129.943 30.7314 130.487 30.7314C131.054 30.7314 131.455 31.13 131.455 31.6458ZM129.896 31.6458C129.896 31.9742 130.18 32.2554 130.51 32.2554C130.841 32.2554 131.125 31.9976 131.125 31.6458C131.125 31.3175 130.841 31.0362 130.51 31.0362C130.156 31.0596 129.896 31.3175 129.896 31.6458ZM132.354 30.7548L133.299 31.9742V30.7548H133.63V32.5602H133.299L132.378 31.341V32.5602H132.046V30.7548H132.354ZM108.722 35.5382H107.848L107.683 35.9133H107.328L108.132 34.1078H108.486L109.266 35.9133H108.888L108.722 35.5382ZM108.604 35.2332L108.297 34.483L107.966 35.2332H108.604ZM110.92 35.0223H111.227V35.7022C111.038 35.843 110.755 35.9367 110.518 35.9367C109.975 35.9367 109.549 35.5382 109.549 35.0223C109.549 34.5064 109.975 34.1078 110.518 34.1078C110.778 34.1078 111.038 34.2016 111.227 34.3658L111.038 34.6236C110.896 34.5064 110.707 34.4127 110.518 34.4127C110.164 34.4127 109.904 34.6706 109.904 35.0223C109.904 35.374 110.187 35.6319 110.542 35.6319C110.66 35.6319 110.802 35.585 110.944 35.5146V35.0223H110.92ZM113.212 34.1313V34.4361H112.22V34.8816H113.094V35.1864H112.22V35.6319H113.236V35.9367H111.865V34.1313H113.212ZM114.181 34.1313L115.126 35.3505V34.1313H115.457V35.9367H115.126L114.205 34.7175V35.9367H113.874V34.1313H114.181ZM116.97 34.4127C116.639 34.4127 116.355 34.6706 116.355 34.9988C116.355 35.3271 116.615 35.6085 116.97 35.6085C117.135 35.6085 117.324 35.5382 117.466 35.3974L117.679 35.6319C117.49 35.8194 117.23 35.9367 116.97 35.9367C116.426 35.9367 116.024 35.5382 116.024 35.0223C116.024 34.5064 116.45 34.1078 116.993 34.1078C117.253 34.1078 117.513 34.225 117.702 34.3892L117.49 34.6472C117.348 34.5064 117.159 34.4127 116.97 34.4127ZM119.002 35.3271V35.9133H118.648V35.3271L117.962 34.1078H118.317L118.813 34.952L119.309 34.1078H119.663L119.002 35.3271Z" fill="white"/>
</g>
</g>
<defs>
<clipPath id="clip0_250_1189">
<rect width="134" height="36" fill="white"/>
</clipPath>
</defs>
</svg>
