<svg width="112" height="60" viewBox="0 0 112 60" fill="none" xmlns="http://www.w3.org/2000/svg">
<g clip-path="url(#clip0_250_1198)">
<mask id="mask0_250_1198" style="mask-type:luminance" maskUnits="userSpaceOnUse" x="0" y="0" width="112" height="60">
<path d="M112 0H0V60H112V0Z" fill="white"/>
</mask>
<g mask="url(#mask0_250_1198)">
<path fill-rule="evenodd" clip-rule="evenodd" d="M51.6978 29.6523C47.4829 29.6523 44.7333 32.9976 44.0237 37.1552C43.3715 40.9793 45.4366 44.0289 48.8429 44.0289C53.6109 44.0289 56.4478 39.1383 56.4478 35.6296C56.4478 31.9495 55.0014 29.6523 51.6978 29.6523ZM52.3219 37.2687C51.6391 40.1286 50.3315 41.0237 49.1423 40.7937C47.5245 40.4797 47.8024 37.8569 48.0647 36.6471C48.6371 33.9977 50.0456 32.726 51.1003 32.8608C51.4491 32.9051 53.3572 32.941 52.3219 37.2687Z" fill="white"/>
<path fill-rule="evenodd" clip-rule="evenodd" d="M39.7086 29.6527H34.0455C34.4562 30.1069 34.1358 31.0597 34.1358 31.0597C34.1358 31.0597 30.6183 41.049 30.3451 41.8209C30.0706 42.5915 29.5681 43.1303 29.5681 43.1303C29.5681 43.1303 34.2779 43.1303 34.0455 43.1303C33.9072 43.1303 33.9072 42.6915 33.9072 42.6915L35.5135 38.4558C35.5135 38.4558 37.5158 42.3572 37.6534 42.6306C37.7902 42.9026 37.7212 43.1297 37.7212 43.1297H42.5098C42.0526 43.1297 41.5817 42.2675 41.5817 42.2675L39.1977 38.0176C42.5324 38.0176 43.5988 34.7347 43.5988 34.7347C45.2432 29.5167 39.7086 29.6527 39.7086 29.6527ZM39.6946 34.2721C39.0707 35.6079 37.3797 35.4597 37.3797 35.4597H36.5123L37.4398 32.7497C37.4398 32.7497 37.9378 32.7426 38.3847 32.7426C40.4245 32.7426 39.6946 34.2721 39.6946 34.2721Z" fill="white"/>
<path fill-rule="evenodd" clip-rule="evenodd" d="M33.1503 23.733C33.0555 24.0397 32.2992 23.9627 32.2992 23.9627H29.013C29.013 23.9627 32.0589 15.2296 32.3034 14.5699C32.6738 13.5716 32.9153 13.485 32.9792 13.4805H28.4583C29.0202 13.7698 28.5222 14.91 28.5222 14.91C28.5222 14.91 24.8869 25.801 24.6334 26.3451C24.3806 26.8898 24.1903 26.9585 24.1903 26.9585H32.0512L33.1503 23.733Z" fill="white"/>
<path fill-rule="evenodd" clip-rule="evenodd" d="M51.4118 26.1104C51.65 25.4946 53.7875 19.7269 53.7875 19.7269L54.7171 26.9585H58.3668L63.1513 14.095C63.1513 14.095 63.3474 13.4915 63.6141 13.4915L59.7358 13.4805C59.7358 13.4805 59.8474 13.9245 59.7085 14.2656C59.5722 14.6072 57.3673 20.4437 57.3673 20.4437L56.5065 13.4805H52.3413C52.3413 13.4805 52.5568 13.8216 52.4186 14.1967C52.3063 14.501 48.0028 26.212 48.0028 26.212C48.0028 26.212 47.7276 26.9585 47.4861 26.9585H51.5151C51.5151 26.9585 51.2392 26.5537 51.4118 26.1104Z" fill="white"/>
<path fill-rule="evenodd" clip-rule="evenodd" d="M38.3402 26.9469C38.3402 26.9469 38.3269 26.612 38.4386 26.3945C38.643 26.0011 39.1754 25.0521 39.1754 25.0521H43.4941L43.5022 26.2354C43.5022 26.2354 43.5244 26.6435 43.2065 26.9585H47.4892C47.4892 26.9585 47.1714 26.7769 47.1127 26.2411L46.5752 14.3968C46.5752 14.3968 46.5526 13.6402 46.9065 13.4805H42.6577C42.6577 13.4805 42.9554 13.8546 42.3864 14.7054C41.8188 15.5569 34.5602 26.5042 34.5602 26.5042C34.5602 26.5042 34.4164 26.7852 34.0492 26.9469H38.3402ZM43.4113 18.0638L43.4453 22.0112H41.027L43.4113 18.0638Z" fill="white"/>
<path fill-rule="evenodd" clip-rule="evenodd" d="M87.8105 18.8711H79.2882L78.2499 21.8106H83.7664L77.4743 23.9688L77.0585 25.1608L86.7402 22.0153L87.8105 18.8711Z" fill="white"/>
<path fill-rule="evenodd" clip-rule="evenodd" d="M61.5659 25.9072C61.5659 25.9072 61.2961 26.7878 60.9274 26.9584L66.3033 26.9526C66.3033 26.9526 72.8207 27.1965 74.8369 20.2553C74.8369 20.2553 77.3909 13.4123 69.9987 13.481H65.5311C65.5311 13.481 65.8669 14.0259 65.4292 15.2851C64.9921 16.545 61.5659 25.9072 61.5659 25.9072ZM68.7226 16.3716H69.731C69.731 16.3716 72.3407 16.2158 70.4702 20.831C69.332 23.6396 67.6382 23.8438 66.7235 23.8438C66.1198 23.8438 66.1021 23.8495 66.1021 23.8495L68.7226 16.3716Z" fill="white"/>
<path fill-rule="evenodd" clip-rule="evenodd" d="M29.5687 31.4492L19.8867 34.5943L18.8169 37.739H27.339L28.376 34.7984H22.8604L29.1524 32.6408L29.5687 31.4492Z" fill="white"/>
<path fill-rule="evenodd" clip-rule="evenodd" d="M56.0026 0C25.0717 0 0 13.2758 0 29.6517C0 46.0281 25.0717 59.3032 56.0026 59.3032C86.9244 59.3032 112 46.0281 112 29.6517C112 13.2758 86.9244 0 56.0026 0ZM55.9815 56.8582C26.3233 56.8582 2.27954 44.6662 2.27954 29.627C2.27954 14.5879 26.3233 2.39583 55.9815 2.39583C85.6379 2.39583 109.682 14.5879 109.682 29.627C109.682 44.6662 85.6379 56.8582 55.9815 56.8582Z" fill="white"/>
<path fill-rule="evenodd" clip-rule="evenodd" d="M88.1474 29.6544H82.5663C82.9756 30.1085 82.658 31.0612 82.658 31.0612C82.658 31.0612 79.0178 41.0876 78.7451 41.8587C78.4731 42.6312 77.9508 43.1232 77.9508 43.1232L82.5907 43.1303C82.2506 43.138 82.4874 42.3053 82.4874 42.3053L83.9117 38.4561C83.9117 38.4561 85.8313 42.3585 85.966 42.6312C86.102 42.9032 86.0347 43.1296 86.0347 43.1296H90.9607C90.5065 43.1296 90.0067 42.2674 90.0067 42.2674L87.6386 38.018C90.9523 38.018 91.9487 34.8533 91.9487 34.8533C93.6886 29.3901 88.1474 29.6544 88.1474 29.6544ZM88.0105 34.2834C87.5005 35.5883 85.8337 35.4625 85.8337 35.4625H84.9714L85.8786 32.7861H87.1104C87.1104 32.7861 88.613 32.7451 88.0105 34.2834Z" fill="white"/>
<path fill-rule="evenodd" clip-rule="evenodd" d="M55.9999 4.49219C27.5465 4.49219 4.479 15.7564 4.479 29.6514C4.479 43.5464 27.5465 54.8101 55.9999 54.8101C84.4522 54.8101 107.519 43.5464 107.519 29.6514C107.519 15.7564 84.4522 4.49219 55.9999 4.49219ZM55.9997 53.4537C28.2825 53.4537 5.81317 42.7954 5.81317 29.6479C5.81317 16.5009 28.2825 5.84201 55.9997 5.84201C83.7163 5.84201 106.186 16.5009 106.186 29.6479C106.186 42.7954 83.7163 53.4537 55.9997 53.4537Z" fill="white"/>
<path fill-rule="evenodd" clip-rule="evenodd" d="M76.2051 40.0917C75.361 40.0917 72.4349 40.0917 72.4349 40.0917L73.2338 37.9149H76.16C76.16 37.9149 76.7815 37.8693 76.9144 38.0515L78.1115 34.6093C78.1115 34.6093 78.0238 34.921 77.2242 34.921C76.4259 34.921 74.3858 34.921 74.3858 34.921L75.2294 32.5179H78.8215C78.8215 32.5179 79.3094 32.4487 79.4856 32.8341L80.6395 29.6523L71.9909 29.6537C71.9909 29.6537 72.3013 29.9332 71.9031 31.0671C71.503 32.2017 67.9992 41.8611 67.9992 41.8611C67.9992 41.8611 67.3784 43.1303 67.2022 43.1303C67.0234 43.1303 76.1155 43.1303 76.1155 43.1303L77.1803 39.9108C77.1803 39.9108 77.048 40.0917 76.2051 40.0917Z" fill="white"/>
<path fill-rule="evenodd" clip-rule="evenodd" d="M71.6788 29.6588H66.4009C66.4009 29.6588 66.8141 29.9313 66.4931 30.4297C66.172 30.9292 61.4798 37.8687 61.4798 37.8687L61.5394 30.8697C61.5394 30.8697 61.5305 29.7467 61.9863 29.6523L57.3428 29.6588C57.3428 29.6588 57.6839 29.8402 57.6839 30.7016C57.6839 31.5636 57.6839 42.3595 57.6839 42.3595C57.6839 42.3595 57.6365 42.9969 57.3933 43.1303H61.081C61.081 43.1303 61.081 42.8578 61.4467 42.4043C61.8145 41.9509 69.4744 31.7912 69.4744 31.7912C69.4744 31.7912 71.2209 29.6588 71.6788 29.6588Z" fill="white"/>
</g>
</g>
<defs>
<clipPath id="clip0_250_1198">
<rect width="112" height="60" fill="white"/>
</clipPath>
</defs>
</svg>
