<svg width="125" height="34" viewBox="0 0 125 34" fill="none" xmlns="http://www.w3.org/2000/svg">
<g clip-path="url(#clip0_250_1153)">
<mask id="mask0_250_1153" style="mask-type:luminance" maskUnits="userSpaceOnUse" x="0" y="0" width="125" height="34">
<path d="M125 0H0V34H125V0Z" fill="white"/>
</mask>
<g mask="url(#mask0_250_1153)">
<path d="M74.5964 7.43359H64.171C60.4278 7.43359 56.6015 10.4751 55.625 14.2223L54.1955 19.7352C53.2219 23.4886 55.4616 26.5239 59.1956 26.5239H69.6209C73.364 26.5239 77.1903 23.4886 78.167 19.7352L79.5965 14.2284C80.5854 10.4782 78.3487 7.43359 74.5964 7.43359ZM71.8821 19.7044C71.7189 20.2775 71.377 20.7829 70.9117 21.1558C70.4434 21.5256 69.8735 21.7413 69.2789 21.7721H62.0206C60.8807 21.7721 60.2091 20.8476 60.4925 19.7074L61.922 14.2531C62.0884 13.6799 62.4273 13.1745 62.8925 12.8017C63.3607 12.4319 63.9307 12.2161 64.5253 12.1885H71.7743C72.9142 12.1885 73.5859 13.1098 73.2993 14.2531L71.8821 19.7044Z" fill="white"/>
<path d="M119.78 7.43359H109.339C105.596 7.43359 101.77 10.4751 100.796 14.2223L99.3667 19.7352C98.3902 23.4886 100.636 26.5239 104.367 26.5239H114.795C118.538 26.5239 122.361 23.4886 123.334 19.7352L124.764 14.2223C125.76 10.4782 123.508 7.43359 119.78 7.43359ZM117.066 19.7044C116.902 20.2775 116.564 20.7829 116.095 21.1528C115.629 21.5225 115.06 21.7382 114.465 21.769H107.189C106.049 21.769 105.377 20.8446 105.664 19.7044L107.093 14.25C107.26 13.6768 107.599 13.1714 108.064 12.7986C108.529 12.4288 109.099 12.2131 109.693 12.1853H116.961C118.098 12.1853 118.769 13.1067 118.482 14.25L117.066 19.7044Z" fill="white"/>
<path d="M10.206 7.43359H20.6314C24.3775 7.43359 26.6173 10.4751 25.6315 14.2223L22.4982 26.2434C22.4768 26.3206 22.4305 26.3914 22.3658 26.4376C22.3011 26.4869 22.2211 26.5116 22.1409 26.5085H16.6048C16.5493 26.5116 16.4939 26.4992 16.4445 26.4745C16.3953 26.45 16.3491 26.4161 16.3151 26.3729C16.2812 26.3298 16.2567 26.2773 16.2443 26.225C16.232 26.1726 16.2351 26.114 16.2474 26.0617L19.322 14.2408C19.627 13.1006 18.937 12.1761 17.797 12.1761H10.5357C9.94107 12.2069 9.37113 12.4227 8.90593 12.7924C8.44073 13.1622 8.10185 13.6707 7.93549 14.2408L6.50601 19.6952C6.20718 20.8384 6.89419 21.7598 8.031 21.7598H13.8629C13.9183 21.7568 13.9738 21.769 14.0231 21.7937C14.0724 21.8183 14.1186 21.8523 14.1525 21.8954C14.1864 21.9385 14.2111 21.9909 14.2234 22.0434C14.2356 22.0987 14.2326 22.1542 14.2203 22.2067L13.182 26.2404C13.1605 26.3206 13.1143 26.3883 13.0496 26.4376C12.9849 26.4869 12.9047 26.5116 12.8247 26.5085H5.23365C1.48743 26.5085 -0.755359 23.4886 0.233568 19.7198L1.66304 14.2069C2.62733 10.4782 6.46288 7.43359 10.206 7.43359Z" fill="white"/>
<path d="M47.5654 7.43359H37.1401C33.397 7.43359 29.5676 10.4751 28.5941 14.2223L23.5694 33.4975C23.5539 33.5498 23.5539 33.6084 23.5663 33.6608C23.5786 33.7163 23.6033 33.7656 23.6371 33.8087C23.671 33.8519 23.7172 33.8858 23.7665 33.9104C23.8158 33.935 23.8712 33.9443 23.9267 33.9443H29.4844C29.5646 33.9474 29.6446 33.9227 29.7093 33.8734C29.774 33.8241 29.8203 33.7563 29.8418 33.6762L34.9096 14.2469C35.0729 13.6738 35.4118 13.1684 35.8801 12.7986C36.3453 12.4288 36.9152 12.2131 37.5098 12.1823H44.7712C45.9141 12.1823 46.595 13.1037 46.2993 14.2469L44.8698 19.7013C44.7066 20.2745 44.3676 20.7799 43.8993 21.1497C43.4342 21.5194 42.8642 21.7352 42.2696 21.766H36.2344C36.1543 21.7629 36.0742 21.7875 36.0095 21.8368C35.9448 21.8862 35.8985 21.954 35.8771 22.031L34.8265 26.0585C34.8141 26.111 34.8111 26.1695 34.8234 26.222C34.8357 26.2773 34.8573 26.3267 34.8943 26.3698C34.9282 26.413 34.9743 26.4469 35.0237 26.4715C35.0729 26.4961 35.1284 26.5054 35.1839 26.5054H42.5961C46.3393 26.5054 50.1687 23.47 51.1422 19.7168L52.5717 14.2038C53.5514 10.4782 51.3086 7.43359 47.5654 7.43359Z" fill="white"/>
<path d="M86.6158 0.000257327C86.5358 -0.00282424 86.4556 0.0218283 86.3909 0.0711334C86.3263 0.120438 86.2801 0.188233 86.2585 0.268353L79.5332 26.0795C79.5178 26.132 79.5178 26.1905 79.5301 26.2428C79.5425 26.2983 79.567 26.3476 79.6009 26.3908C79.6349 26.4339 79.6811 26.4678 79.7303 26.4925C79.7797 26.5171 79.8351 26.5264 79.8906 26.5264H85.2173C85.2973 26.5294 85.3775 26.5048 85.4422 26.4555C85.5069 26.4062 85.553 26.3384 85.5746 26.2583L92.303 0.447085C92.3153 0.394697 92.3184 0.336148 92.3061 0.283762C92.2938 0.228294 92.2722 0.178988 92.2352 0.135846C92.2014 0.0927043 92.1551 0.058807 92.1059 0.0341544C92.0565 0.00950192 92.001 0.000257327 91.9456 0.000257327H86.6158Z" fill="white"/>
<path d="M95.691 0.000257327C95.6109 -0.00282424 95.5308 0.0218283 95.4661 0.0711334C95.4014 0.120438 95.3552 0.188233 95.3337 0.268353L88.6083 26.0826C88.5961 26.135 88.5929 26.1936 88.6053 26.2459C88.6176 26.3014 88.6392 26.3508 88.6761 26.3939C88.71 26.437 88.7562 26.4709 88.8055 26.4955C88.8548 26.5202 88.9102 26.5294 88.9657 26.5294H94.2923C94.3725 26.5325 94.4525 26.5078 94.5172 26.4586C94.5819 26.4092 94.6282 26.3414 94.6497 26.2614L101.378 0.450166C101.394 0.397779 101.394 0.33923 101.381 0.286843C101.369 0.231374 101.347 0.18207 101.31 0.138927C101.276 0.0957858 101.23 0.0618886 101.181 0.037236C101.132 0.0125835 101.076 0.00333881 101.021 0.00333881H95.691V0.000257327Z" fill="white"/>
</g>
</g>
<defs>
<clipPath id="clip0_250_1153">
<rect width="125" height="34" fill="white"/>
</clipPath>
</defs>
</svg>
