<svg width="137" height="36" viewBox="0 0 137 36" fill="none" xmlns="http://www.w3.org/2000/svg">
<mask id="mask0_250_1216" style="mask-type:alpha" maskUnits="userSpaceOnUse" x="0" y="0" width="137" height="36">
<path d="M136.758 0H0V36H136.758V0Z" fill="#D9D9D9"/>
</mask>
<g mask="url(#mask0_250_1216)">
<path d="M7.27691 6.51729V9.43919C8.55455 7.34036 10.574 6.31152 13.3354 6.31152C15.6434 6.31152 17.4979 7.09344 18.8993 8.61612C20.3005 10.1388 21.0424 12.2376 21.0424 14.8304V26.4767H14.9427V15.6123C14.9427 14.3364 14.613 13.3487 13.9124 12.608C13.2117 11.9084 12.305 11.538 11.1098 11.538C9.91461 11.538 8.96669 11.9084 8.30726 12.608C7.60663 13.3077 7.27691 14.2953 7.27691 15.6123V26.4356H1.13605V6.51729H7.27691Z" fill="white"/>
<path d="M27.0201 23.8431C25.248 21.95 24.3825 19.4808 24.3825 16.5177C24.3825 13.5546 25.248 11.0855 27.0201 9.15125C28.7924 7.21703 30.9355 6.27051 33.4908 6.27051C36.046 6.27051 37.983 7.21703 39.3432 9.1101V6.51742H45.484V26.4768H39.3432V23.5961C37.8595 25.6949 35.8812 26.7238 33.4083 26.7238C30.9355 26.7238 28.7924 25.7772 27.0201 23.8431ZM38.0243 20.1393C38.8898 19.275 39.3432 18.0815 39.3432 16.4766C39.3432 14.8716 38.8898 13.6781 38.0243 12.855C37.1587 11.9908 36.1285 11.5793 34.9744 11.5793C33.8205 11.5793 32.8314 11.9908 31.9246 12.855C31.0591 13.7193 30.6058 14.9128 30.6058 16.5177C30.6058 18.0815 31.0591 19.3162 31.9246 20.1393C32.7901 21.0035 33.8205 21.415 34.9744 21.415C36.1285 21.415 37.1587 21.0035 38.0243 20.1393Z" fill="white"/>
<path d="M59 21.2914H61.1843V26.4767H58.0521C55.8265 26.4767 54.0543 25.9829 52.8592 24.9952C51.6227 24.0074 51.0045 22.3202 51.0045 19.8922V11.5791H49.1498V6.51724H51.0045V1.66113H57.1454V6.51724H61.1431V11.5791H57.1454V19.8922C57.1454 20.7976 57.7635 21.2914 59 21.2914Z" fill="white"/>
<path d="M78.5803 6.51855H84.7213V26.478H78.5803V23.5561C77.3027 25.6549 75.2833 26.6838 72.5219 26.6838C70.2139 26.6838 68.3593 25.9019 66.958 24.3792C65.5568 22.8565 64.8149 20.7989 64.8149 18.165V6.51855H70.9146V17.3419C70.9146 18.6176 71.2443 19.6054 71.9449 20.3461C72.6044 21.0457 73.5523 21.4162 74.7474 21.4162C75.9427 21.4162 76.8906 21.0457 77.5501 20.3461C78.2507 19.6465 78.5803 18.6588 78.5803 17.3419V6.51855Z" fill="white"/>
<path d="M95.8463 6.51742V10.2212C97.2888 7.58741 99.1846 6.27051 101.575 6.27051V12.4847H100.05C98.6489 12.4847 97.5773 12.8139 96.8767 13.4723C96.1761 14.1309 95.8051 15.3243 95.8051 16.9704V26.3946H89.7467V6.51742H95.8463Z" fill="white"/>
<path d="M105.735 23.8431C103.963 21.95 103.097 19.4808 103.097 16.5177C103.097 13.5546 103.963 11.0855 105.735 9.15125C107.507 7.21703 109.65 6.27051 112.206 6.27051C114.761 6.27051 116.698 7.21703 118.058 9.1101V6.51742H124.199V26.4768H118.058V23.5961C116.574 25.6949 114.596 26.7238 112.123 26.7238C109.65 26.7238 107.507 25.7772 105.735 23.8431ZM116.739 20.1393C117.605 19.275 118.058 18.0815 118.058 16.4766C118.058 14.8716 117.605 13.6781 116.739 12.855C115.874 11.9908 114.843 11.5793 113.689 11.5793C112.535 11.5793 111.546 11.9908 110.64 12.855C109.774 13.7193 109.321 14.9128 109.321 16.5177C109.321 18.0815 109.774 19.3162 110.64 20.1393C111.505 21.0035 112.535 21.415 113.689 21.415C114.843 21.415 115.833 21.0035 116.739 20.1393Z" fill="white"/>
<path d="M129.189 26.4773V0.015625H135.33V26.4773H129.189Z" fill="white"/>
<path d="M7.73282 29.9756V35.984H6.74369V31.8686L4.93028 35.984H4.22963L2.37501 31.8686V35.984H1.42709V29.9756H2.49865L4.60057 34.6671L6.70247 29.9756H7.73282Z" fill="white"/>
<path d="M14.576 35.984V29.9756H15.5652V35.984H14.576Z" fill="white"/>
<path d="M26.3627 29.9346H27.3518V35.943H26.3627L23.3953 31.4984V35.9841H22.4061V29.9757H23.3953L26.3627 34.4615V29.9346Z" fill="white"/>
<path d="M37.4897 29.9346V30.7165H35.1405V32.5273H37.2013V33.268H35.1405V35.1611H37.4897V35.943H34.1515V29.9346H37.4897Z" fill="white"/>
<path d="M45.2381 33.5149V35.943H44.249V29.9346H46.3097C46.9691 29.9346 47.5049 30.0992 47.8759 30.4284C48.2467 30.7576 48.4116 31.2103 48.4116 31.7042C48.4116 32.1157 48.2879 32.4861 48.0406 32.7741C47.7934 33.1034 47.4224 33.3092 46.9279 33.3914L48.5353 35.9018H47.34L45.8151 33.4737H45.2381V33.5149ZM45.2381 30.7165V32.733H46.3097C46.6806 32.733 46.9691 32.6506 47.1339 32.445C47.2988 32.2803 47.4224 32.0334 47.4224 31.7042C47.4224 31.3749 47.34 31.128 47.1339 30.9634C46.9691 30.7988 46.6806 30.6753 46.3097 30.6753H45.2381V30.7165Z" fill="white"/>
<path d="M59.2916 35.984L58.8383 34.7494H56.3654L55.912 35.984H54.8817L57.0248 29.9756H58.1789L60.322 35.984H59.2916ZM56.6128 33.9675H58.591L57.6018 31.1278L56.6128 33.9675Z" fill="white"/>
<path d="M66.7912 29.9756H67.7804V35.2432H69.7998V35.984H66.7912V29.9756Z" fill="white"/>
<path d="M91.1089 29.9756H92.1805L90.4082 35.984H89.2955L88.0178 31.4571L86.6578 35.984H85.545L83.8552 29.9756H84.8856L86.1221 34.8728L87.4821 29.9756H88.5948L89.8313 34.8316L91.1089 29.9756Z" fill="white"/>
<path d="M102.568 35.984L102.114 34.7494H99.6003L99.147 35.984H98.1166L100.26 29.9756H101.414L103.557 35.984H102.568ZM99.8889 33.9675H101.867L100.878 31.1278L99.8889 33.9675Z" fill="white"/>
<path d="M109.74 30.7165V29.9346H113.944V30.7165H112.336V35.943H111.347V30.7165H109.74Z" fill="white"/>
<path d="M123.795 29.9346V30.7165H121.446V32.5273H123.507V33.268H121.446V35.1611H123.795V35.943H120.457V29.9346H123.795Z" fill="white"/>
<path d="M131.539 33.5149V35.943H130.55V29.9346H132.611C133.27 29.9346 133.806 30.0992 134.177 30.4284C134.547 30.7576 134.713 31.2103 134.713 31.7042C134.713 32.1157 134.589 32.4861 134.342 32.7741C134.094 33.1034 133.724 33.3092 133.229 33.3914L134.836 35.9018H133.641L132.116 33.4737H131.539V33.5149ZM131.539 30.7165V32.733H132.611C132.981 32.733 133.27 32.6506 133.434 32.445C133.6 32.2803 133.724 32.0334 133.724 31.7042C133.724 31.3749 133.641 31.128 133.434 30.9634C133.27 30.7988 132.981 30.6753 132.611 30.6753H131.539V30.7165Z" fill="white"/>
</g>
</svg>
