<svg width="111" height="28" viewBox="0 0 111 28" fill="none" xmlns="http://www.w3.org/2000/svg">
<g clip-path="url(#clip0_250_1248)">
<path d="M23.2781 27.5922H3.43208C2.03975 27.5922 0.795601 26.67 0.26283 25.2428C-0.270072 23.8157 0.0219615 22.1875 1.0066 21.0953L14.7532 5.84467H4.90071C2.19416 5.84467 1.59062e-05 3.41044 1.59062e-05 0.407733H18.3024C19.6947 0.407733 20.9387 1.32982 21.4716 2.75689C22.0045 4.1841 21.7129 5.81196 20.7282 6.90463L6.98168 22.1554H18.3774C21.084 22.1554 23.2781 24.5896 23.2781 27.5922ZM111 10.6019C111 4.75597 106.713 0 101.443 0C98.625 0 96.0882 1.36165 94.3376 3.5222C92.587 1.36165 90.0502 0 87.2317 0C81.9623 0 77.6755 4.75597 77.6755 10.6019V27.5922C80.3821 27.5922 82.5762 25.158 82.5762 22.1554V10.6019C82.5762 7.75398 84.6648 5.43694 87.2317 5.43694C89.7987 5.43694 91.8873 7.75398 91.8873 10.6019V22.1554C91.8873 25.158 94.0814 27.5922 96.788 27.5922V10.6019C96.788 7.75398 98.8765 5.43694 101.443 5.43694C104.011 5.43694 106.099 7.75398 106.099 10.6019V22.1554C106.099 25.158 108.294 27.5922 111 27.5922V10.6019ZM75.2252 14.0001C75.2252 21.7321 69.5753 28 62.606 28C55.6364 28 49.9869 21.7321 49.9869 14.0001C49.9869 6.26795 55.6364 0 62.606 0C69.5753 0 75.2252 6.26795 75.2252 14.0001ZM70.3245 14.0001C70.3245 9.2708 66.8688 5.43694 62.606 5.43694C58.343 5.43694 54.8876 9.2708 54.8876 14.0001C54.8876 18.7293 58.343 22.563 62.606 22.563C66.8688 22.563 70.3245 18.7293 70.3245 14.0001ZM48.0264 14.0001C48.0264 21.7321 42.3765 28 35.4073 28C28.4379 28 22.788 21.7321 22.788 14.0001C22.788 6.26795 28.4379 0 35.4073 0C42.3765 0 48.0264 6.26795 48.0264 14.0001ZM43.1258 14.0001C43.1258 9.2708 39.67 5.43694 35.4073 5.43694C31.1444 5.43694 27.6888 9.2708 27.6888 14.0001C27.6888 18.7293 31.1444 22.563 35.4073 22.563C39.67 22.563 43.1258 18.7293 43.1258 14.0001Z" fill="white"/>
</g>
<defs>
<clipPath id="clip0_250_1248">
<rect width="111" height="28" fill="white"/>
</clipPath>
</defs>
</svg>
