<svg width="133" height="52" viewBox="0 0 133 52" fill="none" xmlns="http://www.w3.org/2000/svg">
<mask id="mask0_250_1164" style="mask-type:alpha" maskUnits="userSpaceOnUse" x="0" y="0" width="133" height="52">
<path d="M132.766 0H0V52H132.766V0Z" fill="#D9D9D9"/>
</mask>
<g mask="url(#mask0_250_1164)">
<path d="M39.6592 32.8331C39.6592 33.008 39.5431 33.1829 39.3688 33.2994C39.1947 33.416 39.0205 33.5325 38.8462 33.6492C38.7301 33.7074 38.5558 33.7656 38.4397 33.8239C38.3235 33.8821 38.2074 33.9405 38.0331 33.8821C37.6267 33.8239 37.2783 33.8239 36.8717 33.8821C36.4653 33.8821 36.1167 33.8239 35.7683 33.5907C35.42 33.416 35.0716 33.1829 34.8392 32.8915C34.5489 32.6001 34.3746 32.2504 34.1423 31.9007C33.8519 31.318 33.6196 30.7351 33.3873 30.0941C33.2132 29.5113 33.0389 28.8702 32.8646 28.2292C32.6905 27.4716 32.5162 26.7139 32.3421 26.0147C32.1098 25.3153 31.9355 24.5576 31.7032 23.8C31.4709 22.9841 31.2968 22.2265 31.1225 21.4106C30.9482 20.5947 30.7741 19.8371 30.6579 19.0212C30.6579 18.963 30.6579 18.963 30.6579 18.9047C30.6579 18.9047 30.6579 18.8463 30.6579 18.7881C30.5998 18.6132 30.5998 18.4385 30.5418 18.3802C30.4838 18.2636 30.4838 18.2053 30.4257 18.1471C30.3675 18.0887 30.3095 18.0887 30.1934 18.0304C30.0772 18.0304 29.9611 18.0304 29.7868 18.0304C28.2188 18.0304 26.6509 17.9722 25.0829 17.7973C25.0249 17.7973 24.9086 17.7973 24.7926 17.7973C24.6765 17.7973 24.5602 17.7973 24.4442 17.7973C24.2119 17.7973 24.0956 17.7973 23.9795 17.7973C23.8635 17.7973 23.8053 17.7973 23.7472 17.8557C23.6892 17.914 23.6311 17.9722 23.5731 18.0887C23.5149 18.2053 23.4569 18.3802 23.3408 18.6716C22.8181 20.012 22.2374 21.4106 21.6567 22.751C21.0758 24.0914 20.5531 25.4318 19.9724 26.8306C19.7983 27.2967 19.566 27.8212 19.4498 28.2874C19.2757 28.7537 19.1014 29.2782 18.9273 29.8027C18.8691 30.0941 18.753 30.3272 18.6367 30.5604C18.5207 30.7935 18.2883 30.9682 18.056 31.1431C17.94 31.2013 17.8239 31.318 17.7657 31.3762C17.6496 31.4345 17.5334 31.4345 17.4173 31.318C17.3012 31.2596 17.185 31.1431 17.185 31.0266C17.185 30.91 17.185 30.7935 17.185 30.6186C17.3592 29.9192 17.5334 29.1616 17.7076 28.4623C17.8819 27.7629 18.1142 27.0637 18.3464 26.3643C18.8691 24.5576 19.566 22.751 20.2628 21.0026C20.9597 19.2543 21.6567 17.4477 22.2954 15.5828C22.6438 14.5338 23.0504 13.543 23.4569 12.5523C23.8635 11.5616 24.2699 10.5708 24.6765 9.58011C25.0829 8.58939 25.4895 7.59865 25.8959 6.6662C26.3024 5.67546 26.709 4.74301 27.1154 3.75228L27.7543 2.00393C27.8124 1.88737 27.8704 1.77082 27.9284 1.65425C27.9866 1.5377 28.0447 1.42114 28.1607 1.36286C28.3931 1.24631 28.6254 1.07147 28.7997 0.954915C28.9738 0.780079 29.2061 0.663523 29.3804 0.488688C29.5545 0.37213 29.7288 0.255574 29.9611 0.197296C30.2514 0.0224609 30.5418 0.0224609 30.8321 0.0224609C31.1225 0.0224609 31.2968 0.197296 31.3548 0.488688C31.5871 1.24631 31.8775 2.12048 32.2259 3.16949C32.5162 4.04367 32.8066 5.15095 33.2132 6.49136C33.5616 7.77349 34.0262 9.34699 34.4907 11.0954C34.723 12.2609 34.9553 13.4848 35.2457 14.6503C35.478 15.8159 35.7683 16.9815 36.1167 18.1471C36.291 18.8463 36.4653 19.5457 36.6394 20.3034C36.8137 21.0026 36.9298 21.7602 37.104 22.4596C37.5687 24.2663 38.0331 25.898 38.4397 27.4133C38.6139 28.0543 38.7881 28.6955 38.9044 29.2782C39.0785 29.9192 39.1947 30.4437 39.3108 30.9682C39.4269 31.4927 39.5431 31.9007 39.6012 32.2504C39.6592 32.4835 39.6592 32.7166 39.6592 32.8331ZM28.7997 5.67546C28.3931 6.54963 27.9866 7.36553 27.6381 8.18143C27.2316 8.99732 26.8833 9.81322 26.5347 10.6291C25.7799 12.2609 25.0829 13.8927 24.5022 15.5245C24.4442 15.6411 24.4442 15.6993 24.386 15.8159C24.3279 15.9324 24.3279 16.049 24.386 16.1656C24.7926 16.1073 25.141 16.1073 25.4895 16.049C25.8379 15.9907 26.2443 15.9907 26.5929 15.9907C27.0574 15.9907 27.58 15.9907 28.0447 15.9907C28.5093 15.9907 29.0318 15.9907 29.4964 15.9907C29.7868 15.9907 29.9611 15.9907 30.0191 15.8742C30.0772 15.8159 30.0772 15.6411 30.0191 15.3497C29.8448 14.1258 29.7288 12.9603 29.5545 11.7364C29.3804 10.5126 29.2641 9.34699 29.09 8.12315C29.0318 7.7152 28.9738 7.36553 28.9157 6.95759C28.9738 6.60791 28.8577 6.14169 28.7997 5.67546Z" fill="white"/>
<path d="M45.1098 24.8496C45.2259 24.5 45.2839 24.1502 45.4002 23.8588C45.5162 23.5092 45.5743 23.1596 45.6905 22.868C45.8066 22.2853 45.9809 21.7608 46.1551 21.178C46.3293 20.6535 46.5035 20.0708 46.7359 19.5463C46.9682 18.9635 47.2003 18.3806 47.4907 17.7979C47.723 17.2151 48.0133 16.6323 48.3037 16.0495C48.536 15.525 48.8264 15.0005 49.1167 14.5343C49.4071 14.0098 49.6976 13.5436 49.9298 13.0773C50.1621 12.6694 50.3944 12.2614 50.6267 11.9118C50.859 11.5038 51.0913 11.1542 51.3817 10.7462C51.5558 10.5131 51.7301 10.28 51.9624 10.0469C52.1947 9.81375 52.3688 9.58064 52.6012 9.34752C52.7174 9.23097 52.8335 9.11442 52.9495 8.99786C53.0658 8.88131 53.1819 8.76474 53.2981 8.64819C53.5304 8.3568 53.8208 8.24023 54.1692 8.24023C54.3435 8.24023 54.5176 8.29853 54.6918 8.29853C54.866 8.29853 55.0402 8.29853 55.1563 8.29853C55.3306 8.29853 55.5049 8.41508 55.6209 8.53164C55.7372 8.64819 55.8533 8.76474 55.9693 8.93958C56.0856 9.11442 56.2016 9.28925 56.2599 9.46409C56.3179 9.63893 56.3759 9.81375 56.434 10.0469C56.6082 10.8628 56.7243 11.6787 56.7243 12.4946C56.7243 13.3105 56.7243 14.1264 56.6663 14.9423C56.6083 15.6416 56.5502 16.3409 56.492 17.0403C56.434 17.7396 56.3759 18.439 56.3759 19.1382C56.3179 20.3621 56.2599 21.5861 56.2017 22.8098C56.1436 24.0337 56.2017 25.2576 56.2017 26.4813C56.2599 27.0641 56.2599 27.647 56.3179 28.2297C56.3179 28.8125 56.434 29.3952 56.492 29.978C56.5502 30.1529 56.5502 30.3278 56.6083 30.5025C56.6083 30.6774 56.6663 30.8523 56.7243 30.9688C56.7824 31.0854 56.7824 31.2601 56.7824 31.3768C56.7824 31.4933 56.7243 31.6099 56.6663 31.7846C56.7243 32.076 56.6082 32.2509 56.492 32.4258C56.3179 32.5423 56.1436 32.6589 55.9113 32.7754C55.679 32.8337 55.5049 32.9503 55.2726 33.0668C55.0983 33.1834 54.866 33.2417 54.6338 33.3582C54.2852 33.4748 53.9369 33.4748 53.5885 33.3582C53.2399 33.2417 52.8915 33.0668 52.7174 32.7754C52.6592 32.7172 52.6592 32.6589 52.6012 32.5423C52.6012 32.484 52.6012 32.3676 52.5431 32.3091C52.5431 32.2509 52.5431 32.1927 52.5431 32.1344C52.5431 32.076 52.5431 32.0178 52.5431 31.9595C52.1947 30.1529 52.0204 28.288 52.0785 26.3649C52.0785 26.0151 52.0785 25.6072 52.0785 25.2576C52.0785 24.9078 52.0785 24.5582 52.1365 24.1502C52.1947 23.5674 52.1947 22.9847 52.2528 22.4019C52.3108 21.8192 52.3688 21.2363 52.427 20.6535C52.4851 20.1873 52.5431 19.6627 52.6012 19.1967C52.6592 18.7304 52.7174 18.2059 52.8335 17.7396C52.8915 17.3317 52.9495 16.982 53.0078 16.574C53.0658 16.1661 53.1819 15.8164 53.2399 15.4085C53.3561 14.7091 53.4722 13.9515 53.5885 13.2522C53.7045 12.5528 53.8208 11.7952 53.8208 11.0959C53.8208 10.9793 53.8208 10.921 53.8208 10.8045C53.8208 10.6879 53.8208 10.5714 53.8208 10.4548C53.2981 10.8045 52.8915 11.2707 52.5431 11.7369C52.3688 12.0283 52.1947 12.3197 52.0204 12.6111C51.8462 12.9025 51.6721 13.1939 51.5558 13.4853C51.3817 13.7767 51.2074 14.1264 50.9751 14.4177C50.801 14.7091 50.5687 15.0588 50.3944 15.3502C50.2201 15.6999 50.046 16.0495 49.8717 16.3992C49.6394 16.9237 49.4071 17.39 49.1749 17.9145C48.9426 18.3806 48.7103 18.9051 48.478 19.4296C48.3619 19.6627 48.3037 19.8959 48.1876 20.1873C48.1296 20.4204 48.0133 20.7118 47.9553 20.9449C47.723 21.5861 47.5489 22.227 47.3166 22.9264C47.0842 23.5674 46.91 24.2086 46.6778 24.9078C46.5616 25.2576 46.4455 25.6072 46.3873 25.8986C46.3293 26.2482 46.2132 26.598 46.1551 26.8894C46.0389 27.3556 45.9228 27.8801 45.9228 28.4046C45.8648 28.929 45.8066 29.3952 45.7485 29.9197C45.6905 30.1529 45.6905 30.386 45.6325 30.6191C45.5743 30.8523 45.5162 31.0854 45.5162 31.3185C45.4582 31.5515 45.4582 31.7264 45.4582 31.9595C45.4582 32.1927 45.4002 32.3676 45.3421 32.6005C45.2839 32.9503 45.1678 33.2417 44.9936 33.5331C44.9355 33.6495 44.8775 33.7662 44.7612 33.8244C44.7032 33.8827 44.5871 33.9411 44.4128 34.0576C44.2968 34.1158 44.1805 34.1158 44.0645 34.174C43.9484 34.174 43.8321 34.174 43.6579 34.174C43.4837 34.174 43.4257 34.174 43.3095 34.174C43.1934 34.174 43.0771 34.1158 43.0191 33.9993C42.6707 33.5913 42.3804 33.1834 42.2061 32.7172C41.9157 32.076 41.7414 31.3768 41.6254 30.6774C41.5093 29.978 41.3931 29.2788 41.277 28.5794C41.2189 27.7635 41.1027 26.9476 40.9866 26.19C40.8704 25.3741 40.8123 24.5582 40.7543 23.8006C40.6963 22.868 40.6963 21.8774 40.6381 20.9449C40.6381 19.9541 40.6381 19.0218 40.6381 18.031C40.6381 17.2734 40.6381 16.5158 40.6963 15.7582C40.7543 15.0005 40.7543 14.2429 40.8123 13.4853C40.8704 12.5528 40.9286 11.5621 41.0447 10.5131C41.1027 10.2217 41.1607 9.93032 41.2189 9.63893C41.277 9.34752 41.4511 9.11442 41.6254 8.82303C41.7997 8.53164 42.032 8.41508 42.3223 8.41508C42.5545 8.3568 42.7868 8.41508 42.9611 8.41508C43.1354 8.47335 43.3095 8.58992 43.4837 8.82303C43.6579 9.05613 43.7741 9.28925 43.8321 9.52236C43.9484 9.75548 44.0064 9.9886 44.0064 10.28C44.0645 10.6297 44.0645 10.921 44.1225 11.2707C44.1805 11.5621 44.2387 11.9118 44.2968 12.2614C44.3548 12.7277 44.4709 13.1939 44.4709 13.6601C44.5291 14.1264 44.5291 14.5926 44.5871 15.0588C44.6452 15.7582 44.6452 16.4575 44.7032 17.1568C44.7614 17.8561 44.7614 18.5555 44.8194 19.2549C44.8775 20.0125 44.8775 20.7702 44.9355 21.5276C44.9936 22.2853 44.9936 23.0429 45.0518 23.8006C45.0518 24.0337 45.1098 24.2668 45.1098 24.5C45.1098 24.7331 45.1678 24.9661 45.1678 25.1992H45.1098V24.8496Z" fill="white"/>
<path d="M63.118 24.8496C63.2341 24.5 63.2921 24.1502 63.4083 23.8588C63.5244 23.5092 63.5824 23.1596 63.6987 22.868C63.8148 22.2853 63.989 21.7608 64.1631 21.178C64.3374 20.6535 64.5117 20.0708 64.744 19.5463C64.9762 18.9635 65.2085 18.3806 65.4989 17.7979C65.7312 17.2151 66.0215 16.6323 66.3119 16.0495C66.5442 15.525 66.8346 15.0005 67.1249 14.5343C67.4153 14.0098 67.7056 13.5436 67.9379 13.0773C68.1703 12.6694 68.4026 12.2614 68.6349 11.9118C68.8672 11.5038 69.0994 11.1542 69.3897 10.7462C69.564 10.5131 69.7383 10.28 69.9706 10.0469C70.2027 9.81375 70.377 9.58064 70.6093 9.34752C70.7254 9.23097 70.8417 9.11442 70.9577 8.99786C71.074 8.88131 71.19 8.76474 71.3063 8.64819C71.5384 8.3568 71.8288 8.24023 72.1774 8.24023C72.3515 8.24023 72.5257 8.29853 72.7 8.29853C72.8741 8.29853 73.0484 8.29853 73.1645 8.29853C73.3388 8.29853 73.5131 8.41508 73.6291 8.53164C73.7452 8.64819 73.8614 8.76474 73.9775 8.93958C74.0938 9.11442 74.2098 9.28925 74.2679 9.46409C74.3261 9.63893 74.3841 9.81375 74.4422 10.0469C74.6164 10.8628 74.7325 11.6787 74.7325 12.4946C74.7325 13.3105 74.7325 14.1264 74.6745 14.9423C74.6164 15.6416 74.5582 16.3409 74.5002 17.0403C74.4422 17.7396 74.3841 18.439 74.3841 19.1382C74.3261 20.3621 74.2679 21.5861 74.2098 22.8098C74.1518 24.0337 74.2098 25.2576 74.2098 26.4813C74.2679 27.0641 74.2679 27.647 74.3261 28.2297C74.3261 28.8125 74.4422 29.3952 74.5002 29.978C74.5582 30.1529 74.5582 30.3278 74.6164 30.5025C74.6164 30.6774 74.6745 30.8523 74.7325 30.9688C74.7905 31.0854 74.7905 31.2601 74.7905 31.3768C74.7905 31.4933 74.7325 31.6099 74.6745 31.7846C74.7325 32.076 74.6745 32.2509 74.5002 32.4258C74.3261 32.5423 74.1518 32.6589 73.9195 32.7754C73.6872 32.8337 73.5131 32.9503 73.2807 33.0668C73.1065 33.1834 72.8741 33.2417 72.6418 33.3582C72.2934 33.4748 71.945 33.4748 71.5966 33.3582C71.2481 33.2417 70.8997 33.0668 70.7254 32.7754C70.6674 32.7172 70.6674 32.6589 70.6093 32.5423C70.6093 32.484 70.6093 32.3676 70.5513 32.3091C70.5513 32.2509 70.5513 32.1927 70.5513 32.1344C70.5513 32.076 70.5513 32.0178 70.5513 31.9595C70.2027 30.1529 70.0286 28.288 70.0867 26.3649C70.0867 26.0151 70.0867 25.6072 70.0867 25.2576C70.0867 24.9078 70.0867 24.5582 70.1447 24.1502C70.2027 23.5674 70.2027 22.9847 70.2609 22.4019C70.319 21.8192 70.377 21.2363 70.435 20.6535C70.4933 20.1873 70.5513 19.6627 70.6093 19.1967C70.6674 18.7304 70.7254 18.2059 70.8417 17.7396C70.8997 17.3317 70.9577 16.982 71.0158 16.574C71.074 16.1661 71.19 15.8164 71.2481 15.4085C71.3643 14.7091 71.4804 13.9515 71.5966 13.2522C71.7127 12.5528 71.8288 11.7952 71.8288 11.0959C71.8288 10.9793 71.8288 10.921 71.8288 10.8045C71.8288 10.6879 71.8288 10.5714 71.8288 10.4548C71.3061 10.8045 70.8997 11.2707 70.5513 11.7369C70.377 12.0283 70.2027 12.3197 70.0286 12.6111C69.8543 12.9025 69.6802 13.1939 69.564 13.4853C69.3899 13.7767 69.2156 14.1264 68.9833 14.4177C68.809 14.7091 68.5769 15.0588 68.4026 15.3502C68.2283 15.6999 68.0542 16.0495 67.8799 16.3992C67.6476 16.9237 67.4153 17.39 67.1829 17.9145C66.9508 18.3806 66.7185 18.9051 66.4862 19.4296C66.3699 19.6627 66.3119 19.8959 66.1958 20.1873C66.1378 20.4204 66.0215 20.7118 65.9635 20.9449C65.7312 21.5861 65.5569 22.227 65.3247 22.9264C65.0924 23.5674 64.9181 24.2086 64.6858 24.9078C64.5698 25.2576 64.4535 25.6072 64.3955 25.8986C64.3374 26.2482 64.2214 26.598 64.1631 26.8894C64.0471 27.3556 63.931 27.8801 63.931 28.4046C63.8728 28.929 63.8148 29.3952 63.7567 29.9197C63.6987 30.1529 63.6987 30.386 63.6405 30.6191C63.5824 30.8523 63.5244 31.0854 63.5244 31.3185C63.4664 31.5515 63.4664 31.7264 63.4664 31.9595C63.4664 32.1927 63.4083 32.3676 63.3501 32.6005C63.2921 32.9503 63.176 33.2417 63.0017 33.5331C62.9437 33.6495 62.8857 33.7662 62.7694 33.8244C62.7114 33.8827 62.5953 33.9411 62.421 34.0576C62.305 34.1158 62.1887 34.1158 62.0726 34.174C61.9564 34.174 61.8403 34.174 61.666 34.174C61.55 34.174 61.4337 34.174 61.3176 34.174C61.2016 34.174 61.0853 34.1158 61.0273 33.9993C60.6789 33.5913 60.3885 33.1834 60.2143 32.7172C59.9239 32.076 59.7496 31.3768 59.6336 30.6774C59.5173 29.978 59.4012 29.2788 59.2852 28.5794C59.227 27.7635 59.1109 26.9476 58.9948 26.19C58.8786 25.3741 58.8205 24.5582 58.7625 23.8006C58.7043 22.868 58.7043 21.8774 58.6462 20.9449C58.6462 19.9541 58.6462 19.0218 58.6462 18.031C58.6462 17.2734 58.6462 16.5158 58.7043 15.7582C58.7625 15.0005 58.7625 14.2429 58.8205 13.4853C58.8786 12.5528 58.9366 11.5621 59.0528 10.5131C59.1109 10.2217 59.1689 9.93032 59.227 9.63893C59.2852 9.34752 59.4593 9.11442 59.6336 8.82303C59.8077 8.53164 60.04 8.41508 60.3303 8.41508C60.5627 8.3568 60.795 8.41508 60.9693 8.41508C61.1434 8.47335 61.3176 8.58992 61.4919 8.82303C61.666 9.05613 61.7823 9.28925 61.8403 9.52236C61.9564 9.75548 62.0146 9.9886 62.0146 10.28C62.0726 10.6297 62.0726 10.921 62.1307 11.2707C62.1887 11.5621 62.2467 11.9118 62.305 12.2614C62.363 12.7277 62.4791 13.1939 62.4791 13.6601C62.5371 14.1264 62.5371 14.5926 62.5953 15.0588C62.6533 15.7582 62.6533 16.4575 62.7114 17.1568C62.7694 17.8561 62.7694 18.5555 62.8276 19.2549C62.8857 20.0125 62.8857 20.7702 62.9437 21.5276C63.0017 22.2853 63.0017 23.0429 63.0598 23.8006C63.0598 24.0337 63.118 24.2668 63.118 24.5C63.118 24.7331 63.176 24.9661 63.176 25.1992H63.118V24.8496Z" fill="white"/>
<path d="M93.8405 33.941C93.6664 33.941 93.4921 33.941 93.3178 33.8828C93.1437 33.8245 93.0274 33.7661 92.8533 33.7079C92.6791 33.5914 92.5048 33.4747 92.3887 33.3C91.866 32.6006 91.5176 31.843 91.2273 31.0271C90.9369 30.2112 90.7046 29.3953 90.5303 28.521C90.4143 27.9965 90.298 27.472 90.24 26.9475C90.1819 26.423 90.0659 25.8985 90.0659 25.374C90.0077 24.5581 89.8916 23.8005 89.7753 22.9846C89.6593 22.227 89.6012 21.4111 89.485 20.5952C89.485 20.3621 89.485 20.1874 89.4269 19.9542C89.4269 19.7211 89.3689 19.488 89.3689 19.2548C89.1946 19.4297 89.0786 19.6046 88.9623 19.7793C88.8462 19.9542 88.7882 20.1291 88.672 20.3038C88.3816 21.1197 88.0332 21.8774 87.6268 22.635C87.2202 23.3926 86.8138 24.1503 86.4652 24.9079C86.2911 25.1993 86.1168 25.5489 86.0007 25.8985C85.8845 26.2483 85.7104 26.5397 85.5361 26.8893C85.42 27.1224 85.2457 27.3556 85.1297 27.5304C84.9554 27.7634 84.8391 27.9383 84.665 28.1714C84.3166 28.6377 83.91 29.0456 83.5036 29.4536C83.097 29.8614 82.6324 30.153 82.1097 30.4444C81.2968 30.8522 80.3676 31.0853 79.4385 30.9689C79.0319 30.9104 78.6254 30.794 78.2769 30.5608C77.9285 30.3277 77.6381 30.0363 77.4058 29.6867C77.1155 29.3369 76.9414 28.9291 76.8251 28.5795C76.709 28.1714 76.5928 27.7634 76.5348 27.2973C76.4187 26.4814 76.4187 25.6656 76.4767 24.9079C76.5348 24.092 76.651 23.3344 76.8251 22.5185C76.9414 21.9356 77.1155 21.3528 77.2897 20.7701C77.464 20.1874 77.6962 19.6628 77.9285 19.1383C78.5674 17.8562 79.4385 16.7489 80.4838 15.7581C81.1226 15.1754 81.7613 14.5926 82.4583 14.1264C83.155 13.6018 83.91 13.1939 84.665 12.7859C85.4781 12.378 86.2911 12.0866 87.1041 11.8535C87.9171 11.6204 88.7302 11.3873 89.6012 11.2707C89.6593 11.2707 89.7173 11.2707 89.7173 11.2707C89.7753 11.2707 89.7753 11.2707 89.8335 11.2707C89.9496 10.8628 90.0659 10.4548 90.1819 10.1052C90.298 9.75548 90.4143 9.34754 90.5303 8.93958C90.5884 8.76476 90.7046 8.64819 90.8207 8.53164C90.995 8.47337 91.1692 8.41507 91.4014 8.47336C91.808 8.53164 92.1564 8.70648 92.3307 8.99787C92.563 9.28926 92.6791 9.58065 92.6791 9.87204C92.7371 10.28 92.7953 10.6297 92.7953 11.0376C92.7953 11.4455 92.7371 11.8535 92.6791 12.2032C92.621 13.1939 92.563 14.1846 92.563 15.1754C92.5048 16.1661 92.563 17.1568 92.621 18.1476C92.7371 19.3715 92.8533 20.5952 93.0857 21.8191C93.2598 23.043 93.4921 24.2085 93.7824 25.4324C93.9567 26.1316 94.0728 26.8893 94.3051 27.5887C94.4794 28.2879 94.6535 28.9873 94.8858 29.6867C95.0021 30.0946 95.1181 30.5026 95.2342 30.8522C95.3505 31.2602 95.4665 31.6098 95.6408 32.0179C95.6408 32.0761 95.6988 32.1926 95.6988 32.3675C95.7569 32.6006 95.6988 32.7755 95.6408 32.9502C95.5828 33.0669 95.4085 33.2416 95.2924 33.4165C95.1762 33.533 95.0021 33.6496 94.8278 33.7079C94.6535 33.7661 94.5374 33.8828 94.3631 33.941C94.2471 33.8245 94.0728 33.8828 93.8405 33.941ZM81.8193 27.7634H81.9356C82.0517 27.7052 82.1097 27.7052 82.1679 27.6469C83.097 27.1224 83.852 26.3065 84.3747 25.374C84.5488 25.0826 84.665 24.7913 84.7811 24.4999C84.8973 24.2085 85.0715 23.9171 85.1877 23.6258C85.4781 23.1013 85.7684 22.5768 86.1168 22.0522C86.4652 21.5277 86.6975 21.0032 86.9298 20.4205C87.1041 19.9542 87.2782 19.5462 87.5105 19.0801C87.7429 18.6721 87.9171 18.2058 88.0912 17.798C88.3236 17.2151 88.5559 16.6323 88.7882 16.1078C89.0205 15.525 89.1946 14.9423 89.3689 14.3595C89.4269 14.1846 89.485 14.0098 89.485 13.835C89.5432 13.6601 89.485 13.427 89.485 13.2522C89.3109 13.3105 89.1366 13.3105 88.9623 13.3687C88.7882 13.427 88.672 13.4853 88.4978 13.6018C87.9171 13.8932 87.3364 14.2429 86.7555 14.5343C86.1748 14.884 85.6522 15.2336 85.0715 15.6416C84.665 15.9913 84.2004 16.3409 83.852 16.6906C83.4454 17.0403 83.155 17.4482 82.9227 17.9727C82.8067 18.2058 82.6906 18.3807 82.6324 18.6138C82.5163 18.847 82.4002 19.0217 82.342 19.2548C82.2259 19.6046 82.0517 19.9542 81.9356 20.3038C81.8193 20.6536 81.7033 21.0032 81.6452 21.4111C81.5872 21.7025 81.529 22.0522 81.471 22.4019C81.4129 22.7515 81.4129 23.043 81.3549 23.3926C81.2968 23.9171 81.2386 24.4999 81.2386 25.0244C81.2386 25.5489 81.2968 26.1316 81.4129 26.6562C81.471 26.831 81.471 27.0059 81.529 27.2391C81.5872 27.4138 81.7033 27.5887 81.8193 27.7634Z" fill="white"/>
<path d="M98.0796 7.71505C97.9054 7.65677 97.8472 7.54022 97.8472 7.36538C97.8472 7.30711 97.8472 7.19054 97.9054 7.07399C97.9635 6.95743 98.0215 6.89915 98.0796 6.7826C98.1376 6.66603 98.2538 6.60776 98.3119 6.54949C98.4281 6.49121 98.4861 6.49121 98.6022 6.49121C98.7765 6.54949 99.0088 6.54949 99.1829 6.60776C99.4152 6.66603 99.5895 6.72433 99.7636 6.89915L99.8799 7.01572C100.054 7.42366 100.054 7.83161 99.9379 8.18128C99.8218 8.53095 99.5895 8.88061 99.241 9.11373C99.1249 9.172 99.0088 9.23029 98.8926 9.23029C98.7765 9.23029 98.6603 9.28857 98.4861 9.28857C98.4281 9.28857 98.3119 9.28857 98.3119 9.23029C98.2538 9.172 98.2538 9.11373 98.3119 8.99718C98.3699 8.9389 98.3699 8.88061 98.4279 8.82234C98.4861 8.76406 98.6022 8.64751 98.6603 8.58922C98.7185 8.53095 98.8345 8.4144 98.8926 8.35612C98.9506 8.29783 98.9506 8.23955 99.0088 8.18128C99.0669 8.12301 99.0669 8.06471 99.0088 7.94816C98.9506 7.88989 98.8926 7.88989 98.8345 7.83162C98.7765 7.83162 98.6603 7.83161 98.6022 7.77332L98.3699 7.71505C98.3119 7.71505 98.1958 7.71505 98.1376 7.65677C98.1958 7.77332 98.1376 7.77332 98.0796 7.71505Z" fill="white"/>
<path d="M102.141 23.0998C102.547 23.4494 102.896 23.8574 103.244 24.2071C103.592 24.6151 103.767 25.0814 103.883 25.6059C103.941 26.072 104.057 26.5382 104.231 27.0045C104.347 27.4708 104.58 27.8786 104.87 28.3449C105.044 28.578 105.218 28.8111 105.451 28.986C105.625 29.1608 105.857 29.3939 106.089 29.5688C106.264 29.7435 106.496 29.8019 106.728 29.8602C106.961 29.9184 107.193 29.9184 107.425 29.9184C107.599 29.8602 107.774 29.8019 107.948 29.7435C108.122 29.5688 108.354 29.3356 108.529 29.1608C108.703 28.9276 108.819 28.6945 108.877 28.4031C109.109 27.5872 109.225 26.8296 109.284 26.0137C109.342 25.1978 109.225 24.4402 108.993 23.6243C108.877 23.0998 108.703 22.6335 108.47 22.2257C108.238 21.7594 108.006 21.3516 107.716 20.9435C107.367 20.4773 107.077 20.011 106.728 19.5449C106.38 19.0786 106.089 18.6124 105.799 18.1461C105.451 17.5634 105.102 16.9806 104.812 16.3395C104.522 15.7568 104.289 15.1157 104.115 14.4164C103.999 13.8919 103.941 13.4256 103.999 12.9011C104.057 12.3766 104.115 11.8521 104.289 11.3859C104.463 10.9197 104.696 10.4534 105.044 9.98721C105.335 9.57925 105.741 9.22959 106.148 8.87992C106.264 8.82163 106.438 8.70508 106.554 8.64681C106.67 8.58851 106.844 8.47196 106.961 8.41369C107.367 8.18057 107.774 8.00573 108.18 7.94746C108.645 7.88918 109.051 7.88918 109.458 8.00573C109.864 8.1223 110.271 8.23885 110.677 8.47196C111.084 8.64681 111.374 8.87992 111.665 9.17131C112.245 9.75409 112.768 10.3951 113.291 11.0945C113.465 11.3276 113.639 11.619 113.755 11.9104C113.871 12.2018 113.987 12.4932 114.162 12.7263C114.22 12.9011 114.336 13.076 114.394 13.2508C114.452 13.4256 114.51 13.6005 114.626 13.7753C114.742 14.0084 114.684 14.2415 114.51 14.4746C114.452 14.5329 114.394 14.6495 114.336 14.6495C114.278 14.7078 114.162 14.7078 114.045 14.6495C113.813 14.6495 113.697 14.5329 113.697 14.2998C113.639 14.125 113.639 14.0084 113.581 13.8336C113.581 13.6587 113.523 13.5422 113.465 13.4256C113.232 12.9011 113 12.3766 112.652 11.9687C112.303 11.5024 111.897 11.1528 111.432 10.8031C111.258 10.6865 111.026 10.57 110.735 10.5117C110.503 10.4534 110.271 10.3369 109.98 10.2786C109.806 10.2203 109.69 10.2203 109.516 10.2786C109.342 10.3369 109.225 10.3951 109.109 10.57C108.819 10.9197 108.529 11.3276 108.354 11.7356C108.18 12.1435 108.064 12.6097 108.006 13.076C108.006 13.3091 108.006 13.5422 108.064 13.7753C108.122 14.0084 108.238 14.1832 108.296 14.3581C108.645 15.0574 108.993 15.6985 109.4 16.2813C109.806 16.8641 110.213 17.5051 110.619 18.0879C110.968 18.5541 111.258 19.0204 111.548 19.4865C111.839 19.9528 112.129 20.419 112.42 20.9435C113.116 22.2839 113.523 23.741 113.639 25.2561C113.697 26.072 113.639 26.8296 113.581 27.5872C113.523 28.3449 113.349 29.1025 113.116 29.8602C112.884 30.7343 112.536 31.4919 112.013 32.1329C111.49 32.7741 110.793 33.2986 109.922 33.6482C109.574 33.8231 109.167 33.8813 108.819 33.8813C108.47 33.8813 108.064 33.8813 107.716 33.8813C106.554 33.7648 105.451 33.415 104.522 32.7741C104.173 32.4827 103.825 32.1913 103.534 31.8999C103.244 31.6084 102.954 31.2588 102.663 30.9092C101.966 30.0349 101.502 29.0443 101.211 27.937C101.095 27.4708 101.037 27.0627 101.095 26.5965C101.153 26.1304 101.211 25.7223 101.386 25.2561C101.502 24.9065 101.618 24.5568 101.792 24.2071C101.85 23.8574 102.024 23.5078 102.141 23.0998Z" fill="white"/>
<path d="M124.56 51.978C124.209 51.978 123.897 51.9551 123.624 51.9097C123.352 51.8755 123.086 51.8072 122.825 51.7048V50.0826C123.018 50.1509 123.193 50.1964 123.352 50.2191C123.522 50.2419 123.692 50.2533 123.863 50.2533C124.328 50.2533 124.685 50.1451 124.935 49.9288C125.195 49.7125 125.456 49.3483 125.717 48.8361L122.11 40.8789H124.509L126.874 46.3772L129.222 40.8789H131.605L128.423 48.4092C128.128 49.115 127.805 49.7354 127.453 50.2705C127.113 50.8168 126.71 51.238 126.245 51.5339C125.78 51.8299 125.218 51.978 124.56 51.978Z" fill="white"/>
<path d="M118.687 49.1423C117.247 49.1423 116.141 48.7837 115.369 48.0664C114.609 47.3493 114.229 46.3021 114.229 44.9246C114.229 43.5017 114.638 42.443 115.455 41.7486C116.283 41.0542 117.383 40.707 118.756 40.707C119.323 40.707 119.81 40.7467 120.219 40.8265C120.627 40.9062 121.024 41.0371 121.41 41.2192V42.8756C121.126 42.739 120.797 42.6309 120.423 42.5511C120.049 42.4714 119.646 42.4315 119.215 42.4315C118.353 42.4315 117.695 42.6137 117.241 42.978C116.787 43.331 116.561 43.9797 116.561 44.9246C116.561 45.7897 116.765 46.4215 117.173 46.82C117.593 47.2185 118.268 47.4176 119.198 47.4176C119.595 47.4176 119.981 47.3778 120.355 47.298C120.741 47.2185 121.098 47.0989 121.427 46.9396V48.6471C120.667 48.9771 119.754 49.1423 118.687 49.1423Z" fill="white"/>
<path d="M104.851 48.9716V40.8778H106.978L107.063 41.6462C107.392 41.3957 107.806 41.1794 108.305 40.9972C108.815 40.8038 109.349 40.707 109.904 40.707C110.971 40.707 111.748 40.9573 112.235 41.4583C112.723 41.9592 112.967 42.7333 112.967 43.7806V48.9716H110.67V43.9C110.67 43.3537 110.557 42.9666 110.33 42.739C110.114 42.5113 109.706 42.3974 109.105 42.3974C108.753 42.3974 108.396 42.4771 108.033 42.6366C107.681 42.7959 107.386 42.995 107.148 43.2341V48.9716H104.851Z" fill="white"/>
<path d="M99.8265 49.1423C98.4312 49.1423 97.3253 48.7951 96.5084 48.1006C95.6918 47.3949 95.2834 46.3305 95.2834 44.9076C95.2834 43.6211 95.6237 42.6023 96.3043 41.851C96.9962 41.0884 98.0229 40.707 99.384 40.707C100.632 40.707 101.585 41.0371 102.243 41.6973C102.912 42.3462 103.247 43.1999 103.247 44.2586V45.7271H97.4102C97.5351 46.3761 97.83 46.82 98.2951 47.059C98.7715 47.298 99.4408 47.4176 100.303 47.4176C100.734 47.4176 101.171 47.3778 101.613 47.298C102.067 47.2185 102.452 47.116 102.77 46.9907V48.6299C102.396 48.8007 101.959 48.926 101.46 49.0057C100.961 49.0967 100.416 49.1423 99.8265 49.1423ZM97.4102 44.3099H101.239V43.8659C101.239 43.3992 101.103 43.0349 100.83 42.7732C100.558 42.4998 100.099 42.3632 99.452 42.3632C98.692 42.3632 98.159 42.517 97.8528 42.8243C97.5577 43.1316 97.4102 43.6268 97.4102 44.3099Z" fill="white"/>
<path d="M89.6408 51.9768C89.0397 51.9768 88.4215 51.937 87.7862 51.8572C87.1623 51.7775 86.6348 51.6638 86.2037 51.5158V49.7911C86.6575 49.9391 87.1907 50.053 87.8032 50.1326C88.4158 50.2237 88.9886 50.2691 89.5218 50.2691C90.3044 50.2691 90.8717 50.2237 91.2233 50.1326C91.575 50.053 91.7508 49.905 91.7508 49.6886C91.7508 49.5065 91.6714 49.3813 91.5125 49.313C91.3651 49.2447 91.0475 49.2106 90.5597 49.2106H88.3647C86.9242 49.2106 86.2037 48.6755 86.2037 47.6055C86.2037 47.2753 86.2946 46.9737 86.4761 46.7004C86.6575 46.4272 86.9468 46.2109 87.3439 46.0516C86.425 45.5848 85.9655 44.7994 85.9655 43.6951C85.9655 42.6478 86.2889 41.8909 86.9354 41.4241C87.5821 40.9461 88.5405 40.707 89.8109 40.707C90.0719 40.707 90.3555 40.7297 90.6618 40.7753C90.9794 40.8095 91.2176 40.8436 91.3764 40.8778H94.4051L94.3542 42.3291H93.0779C93.4296 42.6593 93.6054 43.1204 93.6054 43.7123C93.6054 44.5432 93.3446 45.2092 92.8228 45.7101C92.301 46.1996 91.5296 46.4444 90.5086 46.4444C90.3272 46.4444 90.1514 46.4386 89.9812 46.4272C89.8223 46.4045 89.6579 46.3818 89.4878 46.3589C89.1475 46.4045 88.8582 46.4842 88.62 46.5979C88.393 46.7118 88.2797 46.8656 88.2797 47.059C88.2797 47.3209 88.5122 47.4518 88.9772 47.4518H91.2574C92.074 47.4518 92.7036 47.6397 93.146 48.0153C93.5885 48.3795 93.8096 48.9145 93.8096 49.6204C93.8096 50.4172 93.4524 51.0091 92.7376 51.3962C92.0231 51.7832 90.9907 51.9768 89.6408 51.9768ZM89.828 45.1466C90.5086 45.1466 90.9794 45.0327 91.2403 44.8052C91.5125 44.566 91.6486 44.1676 91.6486 43.6098C91.6486 43.0521 91.5125 42.6478 91.2403 42.3974C90.9794 42.1469 90.5086 42.0218 89.828 42.0218C89.1815 42.0218 88.7164 42.1469 88.4327 42.3974C88.1491 42.6366 88.0073 43.0406 88.0073 43.6098C88.0073 44.1335 88.1379 44.5205 88.3987 44.771C88.6709 45.0213 89.1475 45.1466 89.828 45.1466Z" fill="white"/>
<path d="M73.7667 48.9722L77.9525 37.9756H80.4707L84.6395 48.9722H82.2574L81.2193 46.3254H77.1868L76.1658 48.9722H73.7667ZM77.5271 44.5496H80.8791L79.1946 40.127L77.5271 44.5496Z" fill="white"/>
<path d="M64.2176 51.9768C63.6163 51.9768 62.9981 51.937 62.3628 51.8572C61.739 51.7775 61.2116 51.6638 60.7805 51.5158V49.7911C61.2342 49.9391 61.7673 50.053 62.3799 50.1326C62.9924 50.2237 63.5654 50.2691 64.0984 50.2691C64.8812 50.2691 65.4483 50.2237 65.7999 50.1326C66.1516 50.053 66.3275 49.905 66.3275 49.6886C66.3275 49.5065 66.248 49.3813 66.0893 49.313C65.9418 49.2447 65.6241 49.2106 65.1363 49.2106H62.9415C61.5008 49.2106 60.7805 48.6755 60.7805 47.6055C60.7805 47.2753 60.8712 46.9737 61.0527 46.7004C61.2342 46.4272 61.5236 46.2109 61.9205 46.0516C61.0018 45.5848 60.5423 44.7994 60.5423 43.6951C60.5423 42.6478 60.8655 41.8909 61.5122 41.4241C62.1587 40.9461 63.1173 40.707 64.3877 40.707C64.6485 40.707 64.9322 40.7297 65.2384 40.7753C65.5561 40.8095 65.7942 40.8436 65.9532 40.8778H68.9819L68.9308 42.3291H67.6547C68.0064 42.6593 68.1822 43.1204 68.1822 43.7123C68.1822 44.5432 67.9212 45.2092 67.3994 45.7101C66.8776 46.1996 66.1062 46.4444 65.0854 46.4444C64.9038 46.4444 64.728 46.4386 64.5579 46.4272C64.3991 46.4045 64.2345 46.3818 64.0644 46.3589C63.7241 46.4045 63.4348 46.4842 63.1966 46.5979C62.9698 46.7118 62.8563 46.8656 62.8563 47.059C62.8563 47.3209 63.0888 47.4518 63.554 47.4518H65.834C66.6508 47.4518 67.2804 47.6397 67.7227 48.0153C68.1651 48.3795 68.3864 48.9145 68.3864 49.6204C68.3864 50.4172 68.029 51.0091 67.3144 51.3962C66.5997 51.7832 65.5675 51.9768 64.2176 51.9768ZM64.4047 45.1466C65.0854 45.1466 65.556 45.0327 65.817 44.8052C66.0893 44.566 66.2254 44.1676 66.2254 43.6098C66.2254 43.0521 66.0893 42.6478 65.817 42.3974C65.556 42.1469 65.0854 42.0218 64.4047 42.0218C63.7581 42.0218 63.2931 42.1469 63.0095 42.3974C62.7259 42.6366 62.5841 43.0406 62.5841 43.6098C62.5841 44.1335 62.7145 44.5205 62.9755 44.771C63.2477 45.0213 63.7241 45.1466 64.4047 45.1466Z" fill="white"/>
<path d="M50.8264 48.9716V40.8778H52.9533L53.0383 41.6462C53.3673 41.3957 53.7814 41.1794 54.2804 40.9972C54.791 40.8038 55.324 40.707 55.8798 40.707C56.9461 40.707 57.7232 40.9573 58.211 41.4583C58.6987 41.9592 58.9426 42.7333 58.9426 43.7806V48.9716H56.6455V43.9C56.6455 43.3537 56.5321 42.9666 56.3053 42.739C56.0897 42.5113 55.6814 42.3974 55.0801 42.3974C54.7284 42.3974 54.3712 42.4771 54.0082 42.6366C53.6565 42.7959 53.3616 42.995 53.1235 43.2341V48.9716H50.8264Z" fill="white"/>
<path d="M46.3889 39.393V37.583H48.8901V39.393H46.3889ZM46.5759 48.9724V42.5861H45.3679L45.572 40.8786H48.873V48.9724H46.5759Z" fill="white"/>
<path d="M39.1588 49.1424C38.4443 49.1424 37.8035 49.0173 37.2362 48.7668C36.6804 48.5049 36.2436 48.0837 35.9261 47.5032C35.6084 46.9113 35.4495 46.1315 35.4495 45.1639C35.4495 44.1962 35.6254 43.3824 35.977 42.7222C36.3287 42.0618 36.7994 41.561 37.3893 41.2194C37.9791 40.8779 38.6258 40.7072 39.3292 40.7072C40.2139 40.7072 40.9682 40.9121 41.5921 41.322V37.4629H43.8892V48.9717H41.9154L41.7793 48.2203C41.4276 48.5278 41.0419 48.7611 40.6222 48.9204C40.2139 49.0684 39.7261 49.1424 39.1588 49.1424ZM39.7884 47.4519C40.5032 47.4519 41.1043 47.2072 41.5921 46.7177V43.0295C41.1157 42.6083 40.5598 42.3977 39.9245 42.3977C38.4954 42.3977 37.7807 43.3197 37.7807 45.1639C37.7807 46.029 37.9565 46.6267 38.3082 46.9569C38.6598 47.2869 39.1533 47.4519 39.7884 47.4519Z" fill="white"/>
<path d="M26.0642 48.9716V40.8778H28.1912L28.2763 41.6462C28.6052 41.3957 29.0192 41.1794 29.5184 40.9972C30.0288 40.8038 30.562 40.707 31.1179 40.707C32.1841 40.707 32.9612 40.9573 33.449 41.4583C33.9368 41.9592 34.1805 42.7333 34.1805 43.7806V48.9716H31.8836V43.9C31.8836 43.3537 31.7701 42.9666 31.5431 42.739C31.3277 42.5113 30.9192 42.3974 30.3181 42.3974C29.9665 42.3974 29.6091 42.4771 29.2462 42.6366C28.8945 42.7959 28.5995 42.995 28.3613 43.2341V48.9716H26.0642Z" fill="white"/>
<path d="M19.1902 49.1423C18.6798 49.1423 18.2034 49.0511 17.7609 48.869C17.3299 48.6755 16.9782 48.3966 16.706 48.0323C16.4451 47.6567 16.3146 47.1899 16.3146 46.6321C16.3146 45.8353 16.5926 45.1978 17.1484 44.7197C17.7156 44.2416 18.5494 44.0024 19.6496 44.0024H22.0317V43.7806C22.0317 43.2796 21.8899 42.9267 21.6065 42.7219C21.3341 42.517 20.7782 42.4145 19.939 42.4145C19.02 42.4145 18.1353 42.5568 17.2845 42.8415V41.2192C17.6588 41.0712 18.1125 40.9518 18.6457 40.8606C19.1902 40.7582 19.78 40.707 20.4153 40.707C21.6291 40.707 22.5649 40.9573 23.2228 41.4583C23.8922 41.9478 24.2267 42.739 24.2267 43.8317V48.9716H22.2359L22.1169 48.2373C21.7992 48.5218 21.4078 48.7438 20.9428 48.9031C20.4777 49.0626 19.8935 49.1423 19.1902 49.1423ZM19.8198 47.6225C20.3302 47.6225 20.7727 47.5372 21.147 47.3663C21.5213 47.1956 21.8163 46.9793 22.0317 46.7175V45.437H19.7008C18.8045 45.437 18.3564 45.8068 18.3564 46.5468C18.3564 47.2639 18.8442 47.6225 19.8198 47.6225Z" fill="white"/>
<path d="M10.8157 48.9716V40.8778H12.9426L13.0447 41.7144C13.4077 41.4867 13.8557 41.2818 14.3889 41.0996C14.9334 40.9062 15.4665 40.7753 15.9883 40.707V42.4487C15.682 42.4943 15.3474 42.5626 14.9844 42.6536C14.6214 42.7446 14.2754 42.847 13.9465 42.9609C13.6175 43.0748 13.3396 43.1944 13.1127 43.3195V48.9716H10.8157Z" fill="white"/>
<path d="M0 48.9722V37.9756H5.54698C6.64731 37.9756 7.46403 38.2373 7.99719 38.761C8.54167 39.2733 8.81391 40.0019 8.81391 40.9467C8.81391 41.5386 8.70048 42.0338 8.4736 42.4322C8.24674 42.8192 7.94046 43.121 7.55478 43.3373C8.06524 43.4966 8.46794 43.7641 8.76287 44.1398C9.06915 44.504 9.22227 45.0448 9.22227 45.7619C9.22227 46.8206 8.92167 47.6231 8.32046 48.1697C7.73062 48.7046 6.87417 48.9722 5.75116 48.9722H0ZM2.29707 42.5348H5.12161C5.67742 42.5348 6.07446 42.4152 6.31266 42.1761C6.55089 41.9257 6.66998 41.5785 6.66998 41.1346C6.66998 40.6451 6.54521 40.2807 6.29565 40.0417C6.05744 39.8027 5.60937 39.6831 4.95145 39.6831H2.29707V42.5348ZM2.29707 47.2817H5.20667C5.78519 47.2817 6.21058 47.1621 6.48282 46.9231C6.75507 46.684 6.89118 46.2628 6.89118 45.6595C6.89118 45.17 6.75507 44.8058 6.48282 44.5668C6.22191 44.3276 5.7455 44.2081 5.05353 44.2081H2.29707V47.2817Z" fill="white"/>
</g>
</svg>
