<svg width="129" height="40" viewBox="0 0 129 40" fill="none" xmlns="http://www.w3.org/2000/svg">
<g clip-path="url(#clip0_250_1142)">
<mask id="mask0_250_1142" style="mask-type:luminance" maskUnits="userSpaceOnUse" x="0" y="0" width="129" height="40">
<path d="M129 0H0V40H129V0Z" fill="white"/>
</mask>
<g mask="url(#mask0_250_1142)">
<path d="M99.876 38.6027C99.9213 38.5076 100.006 38.4771 100.075 38.428C101.524 37.4507 102.977 36.4766 104.424 35.4932C104.577 35.3891 104.716 35.3645 104.9 35.3982C109.555 36.302 113.937 35.6647 117.87 32.8464C120.971 30.6224 122.864 27.5557 123.536 23.7632C124.28 19.554 123.65 15.5654 121.345 11.9383C119.356 8.81051 116.484 6.89585 112.989 5.89104C110.704 5.23545 108.368 5.0976 106.009 5.1558C104.288 5.19869 102.564 5.25384 100.846 5.37637C99.225 5.49279 97.6038 5.62757 95.9885 5.81751C94.4125 6.00132 92.8333 6.17287 91.2571 6.35974C89.7473 6.54049 88.2405 6.74269 86.7277 6.91422C85.3595 7.07046 83.9853 7.2022 82.6141 7.34311C80.824 7.52692 79.0309 7.64027 77.2348 7.72605C76.2372 7.772 75.2368 7.78119 74.2362 7.8057C74.1248 7.80876 74.0133 7.8057 73.8927 7.82715C74.1249 7.95581 74.369 8.04771 74.5859 8.19781C75.4267 8.77681 75.8696 9.57944 75.8696 10.6118C75.8728 15.2714 75.8697 19.9309 75.8728 24.5935C75.8728 24.863 75.8636 25.1326 75.9149 25.4021C76.0745 26.2201 76.5567 26.5877 77.3734 26.5172C77.8828 26.4714 78.3108 26.2355 78.7778 25.9566C78.7778 26.6796 78.6813 27.3475 78.4101 27.9786C77.7411 29.5379 76.5115 30.2822 74.8903 30.4232C74.3208 30.4722 73.7512 30.4262 73.1906 30.2792C71.7712 29.9055 70.8882 28.9006 70.6773 27.4271C70.617 27.0136 70.5958 26.6 70.5958 26.1865C70.5958 20.2127 70.5958 14.2359 70.5958 8.26215C70.5958 8.12736 70.5958 7.99564 70.5958 7.87616C70.4783 7.78732 70.3699 7.82101 70.2704 7.82101C67.4709 7.82101 64.6711 7.82715 61.8745 7.74749C59.5058 7.67702 57.1401 7.57901 54.7745 7.4197C52.8668 7.29104 50.9623 7.13786 49.0607 6.93261C43.7687 6.35974 38.525 5.47747 33.3538 4.19081C33.2815 4.17244 33.2061 4.16325 33.0885 4.1418C33.1789 4.32561 33.2543 4.47265 33.3206 4.62276C33.6883 5.44377 33.8118 6.31992 33.8842 7.20832C33.9565 8.07529 33.9384 8.94836 33.9354 9.81839C33.9354 15.4735 33.9384 21.1286 33.9324 26.7869C33.9294 28.4534 33.6973 30.0801 32.9108 31.5751C32.3382 32.6626 31.5546 33.5326 30.3672 33.9461C29.6651 34.1912 28.957 34.2066 28.2547 33.9891C28.2276 33.9125 28.2669 33.8789 28.2909 33.842C29.861 31.5844 30.2527 28.0675 28.0679 25.3594C26.986 24.0175 25.8228 22.7585 24.6746 21.481C22.4595 19.018 20.2326 16.5672 18.0114 14.1102C17.9483 14.0429 17.8789 13.9816 17.7703 13.8775C17.7703 14.0276 17.7703 14.1379 17.7703 14.2512C17.7703 19.7624 17.7703 25.2735 17.7703 30.7847C17.7703 32.5217 17.4661 34.1852 16.574 35.6955C15.9381 36.7769 15.1034 37.6407 13.9131 38.085C13.1927 38.3545 12.5026 38.3392 11.8939 38.0574C12.2615 37.5244 12.578 36.9699 12.8071 36.3632C13.3043 35.046 13.4488 33.6705 13.4488 32.2705C13.4459 25.3102 13.4549 18.347 13.4279 11.3869C13.4217 9.82757 13.0782 8.3418 12.0837 7.07965C11.7975 6.71817 11.4841 6.38732 11.1104 6.0534C13.1566 5.29366 14.6122 3.86915 15.7814 2.06171C20.3953 7.14705 24.979 12.2201 29.5597 17.2901C29.6441 17.235 29.6199 17.1707 29.6199 17.1186C29.6169 13.9172 29.6199 10.719 29.6049 7.51772C29.6019 6.68447 29.4481 5.86652 29.1529 5.08534C28.7761 4.08359 28.1433 3.30241 27.2301 2.75711C27.1577 2.71422 27.0885 2.66827 27.0162 2.62539C27.0463 2.52124 27.1397 2.49672 27.206 2.44771C28.3632 1.66652 29.5205 0.891467 30.6747 0.104158C30.8254 0 30.9518 -0.0122538 31.1207 0.0459519C34.3453 1.11816 37.6482 1.87177 40.9842 2.4906C43.4794 2.95317 45.9899 3.32079 48.5062 3.6302C50.0733 3.8232 51.6433 3.97636 53.2164 4.12036C55.2054 4.3011 57.1975 4.45121 59.1923 4.56149C61.8053 4.70854 64.421 4.80657 67.0398 4.82495C68.1548 4.83414 69.2669 4.8372 70.3819 4.84027C70.4391 4.84027 70.4935 4.83109 70.5446 4.82801C70.626 4.72692 70.5958 4.61664 70.5958 4.51555C70.5989 3.6057 70.5989 2.69891 70.5958 1.78906C70.5958 1.63589 70.6048 1.52867 70.7948 1.47352C72.4463 0.995625 74.0917 0.499344 75.7402 0.0122538C75.7732 0.00306346 75.8124 0.00612692 75.8757 0C75.8757 1.56542 75.8757 3.11554 75.8757 4.68404C76.5297 4.7116 77.1535 4.65034 77.7772 4.61051C79.2118 4.51555 80.6433 4.41139 82.0717 4.2766C83.491 4.14486 84.9075 3.97025 86.3209 3.78644C88.0838 3.55361 89.8377 3.28404 91.5916 3.00525C93.195 2.75099 94.7981 2.48446 96.4015 2.22714C97.8359 1.99737 99.2764 1.79212 100.717 1.61139C102.35 1.40919 103.99 1.24989 105.632 1.17331C107.428 1.08752 109.227 1.05077 111.023 1.20088C113.609 1.41532 116.123 1.93611 118.491 3.01751C123.991 5.52649 127.496 9.7755 128.619 15.786C129.943 22.8504 127.785 28.8516 122.544 33.6612C119.483 36.4705 115.824 38.1156 111.804 38.9702C109.737 39.4084 107.642 39.5645 105.536 39.485C103.658 39.4145 101.811 39.1326 99.9905 38.667C99.9603 38.6516 99.9213 38.6241 99.876 38.6027Z" fill="white"/>
<path d="M105.787 30.1905C103.403 30.1905 101.02 30.1905 98.6358 30.1905C98.5936 30.0955 98.657 30.0341 98.687 29.9667C99.2928 28.6832 99.5731 27.323 99.5761 25.9046C99.5791 22.8106 99.5821 19.7164 99.5731 16.6224C99.57 15.5347 99.4134 14.4687 99.0155 13.4486C98.9041 13.1606 98.7594 12.8911 98.5846 12.5786C100.67 11.9598 102.737 11.3471 104.829 10.7283C104.829 11.583 104.829 12.401 104.829 13.2434C104.961 13.2127 105.001 13.1086 105.061 13.035C106.333 11.5095 107.924 10.6701 109.916 10.7252C111.199 10.762 112.375 11.1143 113.285 12.1068C114.05 12.9401 114.397 13.9602 114.485 15.0754C114.583 16.3589 114.521 17.6456 114.527 18.9322C114.539 21.242 114.536 23.5519 114.544 25.8649C114.544 26.064 114.578 26.2691 114.623 26.4652C114.803 27.2341 115.211 27.5865 115.992 27.6661C116.151 27.6815 116.308 27.6937 116.491 27.7091C116.322 28.5116 115.897 29.1275 115.271 29.5839C113.938 30.5519 112.477 30.699 110.965 30.117C109.97 29.7339 109.464 28.916 109.294 27.8715C109.247 27.5651 109.235 27.2587 109.238 26.9462C109.24 24.036 109.238 21.1256 109.24 18.2154C109.24 17.8845 109.238 17.5567 109.165 17.235C108.898 16.0404 107.966 15.7064 107.008 15.8381C106.188 15.9515 105.522 16.3956 104.955 17.0022C104.871 17.0911 104.835 17.186 104.835 17.3116C104.838 20.2985 104.82 23.2854 104.847 26.2722C104.859 27.5191 105.157 28.717 105.682 29.8504C105.721 29.9362 105.76 30.025 105.796 30.1139C105.802 30.1384 105.793 30.1597 105.787 30.1905Z" fill="white"/>
<path d="M96.8203 20.6905C96.76 23.5701 95.7806 26.1619 93.5836 28.199C91.8026 29.8502 89.6811 30.6315 87.2763 30.411C84.3408 30.1414 82.1531 28.5911 80.6221 26.0791C79.3594 24.0114 78.9225 21.7414 79.1968 19.3334C79.4891 16.7447 80.5559 14.5452 82.5057 12.8296C86.0497 9.71721 91.2269 10.1124 94.31 13.7059C95.9976 15.6787 96.7871 17.9886 96.8203 20.6905ZM83.901 17.9304C84.0245 20.3351 84.802 22.5071 86.2154 24.4402C86.7941 25.2336 87.4842 25.9076 88.4063 26.2845C89.8558 26.8787 91.1487 26.3059 91.7061 24.8261C91.9864 24.0879 92.0527 23.319 91.9744 22.547C91.7543 20.323 90.9498 18.3286 89.5906 16.5701C88.9428 15.7309 88.1773 15.0261 87.1497 14.6922C85.8206 14.2574 84.7147 14.7965 84.2023 16.1137C83.9763 16.6957 83.91 17.3054 83.901 17.9304Z" fill="white"/>
<path d="M54.36 20.5872C54.2696 23.8897 53.1244 26.6957 50.4844 28.73C47.0218 31.3982 42.2723 30.9174 39.3281 27.6547C37.7279 25.881 36.863 23.7855 36.6943 21.393C36.4953 18.5716 37.2397 16.0381 39.0357 13.863C40.4672 12.1321 42.2965 11.0538 44.5206 10.7965C47.2599 10.4809 49.6015 11.3938 51.5271 13.3729C53.1786 15.07 54.0617 17.144 54.2996 19.512C54.3358 19.8674 54.348 20.2227 54.36 20.5872ZM41.4316 18.0569C41.5672 20.3699 42.3597 22.603 43.8545 24.5699C44.4361 25.3357 45.1262 25.9821 46.0424 26.3252C47.4376 26.849 48.6642 26.2915 49.2218 24.8915C49.5652 24.0246 49.6074 23.1207 49.4839 22.214C49.1916 20.0542 48.3779 18.112 47.0128 16.424C46.3889 15.6551 45.6598 15.0087 44.7013 14.6962C43.3663 14.2581 42.2421 14.8035 41.7359 16.133C41.5189 16.6966 41.4496 17.2879 41.4316 18.0569Z" fill="white"/>
<path d="M63.2725 30.1928C60.8706 30.1928 58.4838 30.1928 56.097 30.1928C56.0758 30.0703 56.1542 29.9844 56.1964 29.8925C56.7388 28.6916 57.0343 27.4356 57.0343 26.1123C57.0373 22.914 57.0402 19.7126 57.0343 16.5144C57.0313 15.1328 56.769 13.8124 56.0608 12.581C58.1432 11.9652 60.2136 11.3524 62.317 10.7275C62.317 11.9714 62.317 13.1691 62.317 14.3639C63.5707 12.1276 65.3518 10.7735 67.9766 10.7275C67.9766 12.63 67.9766 14.5109 67.9766 16.4164C67.4101 16.3 66.8525 16.1958 66.2769 16.2234C64.5803 16.3091 63.2875 17.072 62.4195 18.5639C62.3562 18.6741 62.3201 18.7875 62.3201 18.9193C62.3231 21.3853 62.317 23.8484 62.3322 26.3144C62.3382 27.5674 62.6517 28.756 63.1639 29.8895C63.1971 29.9599 63.2273 30.0304 63.2573 30.1009C63.2664 30.1163 63.2664 30.1346 63.2725 30.1928Z" fill="white"/>
<path d="M14.2871 1.67878C13.7445 2.86433 12.9822 3.78644 11.7888 4.27659C10.8153 4.6779 9.80579 4.69934 8.78719 4.53391C8.05789 4.41444 7.33162 4.25821 6.60233 4.1326C6.27385 4.07746 5.93934 4.05909 5.61085 4.14486C5.21908 4.24901 4.95389 4.48184 4.87252 4.89541C4.78512 5.34268 4.89663 5.7256 5.2673 5.99825C5.80372 6.3965 6.41548 6.41183 7.04231 6.34443C7.10861 6.3383 7.1719 6.31991 7.2382 6.31379C7.26231 6.31073 7.28943 6.3291 7.32558 6.3383C7.23218 7.00919 6.89163 7.52079 6.38535 7.94048C4.63143 9.38644 1.28331 8.87484 0.364167 6.62014C-0.530873 4.42364 0.156229 1.68796 3.18189 0.802619C4.1794 0.511592 5.19196 0.542226 6.21056 0.655574C7.6601 0.814873 9.0554 1.23763 10.4808 1.51334C11.6953 1.74616 12.9098 1.85033 14.1394 1.67878C14.1755 1.67264 14.2147 1.67878 14.2871 1.67878Z" fill="white"/>
</g>
</g>
<defs>
<clipPath id="clip0_250_1142">
<rect width="129" height="40" fill="white"/>
</clipPath>
</defs>
</svg>
