<svg width="119" height="40" viewBox="0 0 119 40" fill="none" xmlns="http://www.w3.org/2000/svg">
<path d="M23.8689 32.6397C23.3662 33.7567 22.7414 34.8506 21.9923 35.797C28.2073 33.7022 32.7826 28.0425 33.2862 21.2497H31.0738C28.3739 21.2497 26.2051 23.4047 25.7663 26.0688C25.3617 28.5244 24.7145 30.7605 23.8689 32.6397Z" fill="black"/>
<path d="M18.9753 21.2497C21.8021 21.2497 24.1145 23.6079 23.5953 26.3866C22.4676 32.4219 19.7897 36.6663 16.6657 36.6663C12.7128 36.6663 9.47415 29.8706 9.1865 21.2497H18.9753Z" fill="black"/>
<path d="M25.8237 14.2915C26.2371 16.9804 28.4159 19.1663 31.1364 19.1663H33.3119C32.9683 12.189 28.334 6.33981 21.9923 4.20232C22.7414 5.14877 23.3662 6.24267 23.8689 7.35963C24.7558 9.3305 25.4244 11.6939 25.8237 14.2915Z" fill="black"/>
<path d="M23.6788 14.0794C24.1516 16.8441 21.8493 19.1663 19.0445 19.1663H9.17494C9.37033 10.3487 12.6493 3.33301 16.6657 3.33301C19.8696 3.33301 22.6043 7.79735 23.6788 14.0794Z" fill="black"/>
<path d="M7.09113 19.1663C7.18579 14.6594 8.0456 10.5085 9.46259 7.35963C9.96522 6.24267 10.5901 5.14877 11.3392 4.20232C4.99745 6.33981 0.363109 12.189 0.0195312 19.1663H7.09113Z" fill="black"/>
<path d="M0.0452295 21.2497C0.548895 28.0425 5.1241 33.7022 11.3392 35.797C10.5901 34.8506 9.96522 33.7567 9.46259 32.6397C8.08938 29.5881 7.23945 25.5955 7.10209 21.2497H0.0452295Z" fill="black"/>
<path d="M41.6665 27.5002V11.0977H54.154V14.2252H45.3565V17.7127H53.0065V20.6377H45.3565V24.3727H54.154V27.5002H41.6665Z" fill="black"/>
<path d="M60.3287 27.7252C58.9937 27.7252 57.9962 27.2902 57.3362 26.4202C56.6762 25.5352 56.3462 24.3727 56.3462 22.9327V15.4177H59.7887V22.4377C59.7887 23.3977 59.9762 24.0577 60.3512 24.4177C60.7412 24.7627 61.2587 24.9352 61.9037 24.9352C62.6687 24.9352 63.2462 24.6802 63.6362 24.1702C64.0262 23.6602 64.2212 22.9927 64.2212 22.1677V15.4177H67.6637V27.5002H64.4462L64.1987 25.5202H64.0187C63.7487 26.1802 63.2837 26.7127 62.6237 27.1177C61.9787 27.5227 61.2137 27.7252 60.3287 27.7252Z" fill="black"/>
<path d="M70.2469 27.5002V15.4177H73.4645L73.712 17.4202H73.9145C74.1845 16.6702 74.5445 16.1227 74.9945 15.7777C75.4445 15.4177 76.0895 15.2377 76.9295 15.2377H78.0095V18.7477H76.457C75.467 18.7477 74.762 19.0027 74.342 19.5127C73.922 20.0077 73.712 20.6752 73.712 21.5152V27.5002H70.2469Z" fill="black"/>
<path d="M84.6368 27.7252C82.6718 27.7252 81.2093 27.1627 80.2493 26.0377C79.2893 24.9127 78.8093 23.4127 78.8093 21.5377V21.4702C78.8093 19.3402 79.3418 17.7652 80.4068 16.7452C81.4718 15.7102 82.8818 15.1927 84.6368 15.1927C86.4068 15.1927 87.8243 15.7102 88.8893 16.7452C89.9693 17.7652 90.5093 19.3402 90.5093 21.4702V21.5377C90.4943 23.4127 90.0068 24.9127 89.0468 26.0377C88.0868 27.1627 86.6168 27.7252 84.6368 27.7252ZM84.6368 24.9352C85.4018 24.9352 85.9793 24.7252 86.3693 24.3052C86.7743 23.8852 86.9768 23.3077 86.9768 22.5727V20.4127C86.9768 19.6627 86.7668 19.0777 86.3468 18.6577C85.9418 18.2227 85.3718 18.0052 84.6368 18.0052C83.9168 18.0052 83.3468 18.2227 82.9268 18.6577C82.5218 19.0777 82.3193 19.6627 82.3193 20.4127V22.5727C82.3193 23.3077 82.5143 23.8852 82.9043 24.3052C83.3093 24.7252 83.8868 24.9352 84.6368 24.9352Z" fill="black"/>
<path d="M92.3963 31.2577V15.4177H95.6813L95.8613 17.1952H96.0188C96.3188 16.5652 96.7838 16.0777 97.4138 15.7327C98.0588 15.3727 98.7788 15.1927 99.5738 15.1927C101.194 15.1927 102.371 15.7402 103.106 16.8352C103.841 17.9302 104.209 19.3927 104.209 21.2227V21.7402C104.209 23.8252 103.789 25.3477 102.949 26.3077C102.124 27.2527 100.999 27.7252 99.5738 27.7252C98.7938 27.7252 98.0813 27.5527 97.4363 27.2077C96.7913 26.8477 96.3188 26.3527 96.0188 25.7227H95.8613V31.2577H92.3963ZM98.1788 24.9127C98.9288 24.9127 99.5063 24.7027 99.9113 24.2827C100.316 23.8627 100.519 23.2702 100.519 22.5052V20.4352C100.519 19.6702 100.316 19.0777 99.9113 18.6577C99.5063 18.2227 98.9288 18.0052 98.1788 18.0052C97.4738 18.0052 96.9113 18.2227 96.4913 18.6577C96.0863 19.0927 95.8838 19.7002 95.8838 20.4802V22.4602C95.8838 23.2402 96.0863 23.8477 96.4913 24.2827C96.9113 24.7027 97.4738 24.9127 98.1788 24.9127Z" fill="black"/>
<path d="M109.044 27.7252C107.934 27.7252 107.034 27.4327 106.344 26.8477C105.654 26.2477 105.309 25.4527 105.309 24.4627V24.4177C105.309 23.2627 105.677 22.3702 106.412 21.7402C107.147 21.1102 108.137 20.7202 109.382 20.5702L112.757 20.1202V19.6477C112.757 18.5077 112.067 17.9377 110.687 17.9377C110.027 17.9377 109.502 18.0652 109.112 18.3202C108.737 18.5752 108.549 18.9427 108.549 19.4227H105.422C105.422 18.0877 105.909 17.0527 106.884 16.3177C107.859 15.5677 109.232 15.1927 111.002 15.1927C112.622 15.1927 113.889 15.5377 114.804 16.2277C115.734 16.9177 116.199 18.0127 116.199 19.5127V25.0702H117.774V27.5002H113.634L113.364 25.6327H113.117C112.817 26.2927 112.314 26.8102 111.609 27.1852C110.919 27.5452 110.064 27.7252 109.044 27.7252ZM110.529 25.2502C111.129 25.2502 111.632 25.1077 112.037 24.8227C112.457 24.5227 112.697 24.1402 112.757 23.6752V22.0552L110.484 22.3927C109.974 22.4527 109.562 22.5877 109.247 22.7977C108.932 22.9927 108.774 23.2927 108.774 23.6977V23.9902C108.774 24.3652 108.924 24.6727 109.224 24.9127C109.539 25.1377 109.974 25.2502 110.529 25.2502Z" fill="black"/>
</svg>
