<svg width="170" height="40" viewBox="0 0 170 40" fill="none" xmlns="http://www.w3.org/2000/svg">
<g opacity="0.84">
<path d="M11.875 4.16699C11.875 10.7254 6.55838 16.042 0 16.042V23.9587H11.875V35.8337H19.7917C19.7917 29.2753 25.1083 23.9587 31.6667 23.9587V16.042H19.7917V4.16699H11.875Z" fill="black"/>
</g>
<g opacity="0.84">
<path d="M46.8335 27.7999C45.0668 27.7999 43.5502 27.4249 42.2835 26.6749C41.0168 25.9083 40.0418 24.8499 39.3585 23.4999C38.6752 22.1333 38.3335 20.5583 38.3335 18.7749C38.3335 16.9916 38.6752 15.4166 39.3585 14.0499C40.0418 12.6833 41.0168 11.6166 42.2835 10.8499C43.5502 10.0833 45.0668 9.69994 46.8335 9.69994C48.9335 9.69994 50.6502 10.2249 51.9835 11.2749C53.3335 12.3083 54.1752 13.7666 54.5085 15.6499H50.9835C50.7668 14.6999 50.3002 13.9583 49.5835 13.4249C48.8835 12.8749 47.9502 12.5999 46.7835 12.5999C45.1668 12.5999 43.9002 13.1499 42.9835 14.2499C42.0668 15.3499 41.6085 16.8583 41.6085 18.7749C41.6085 20.6916 42.0668 22.1999 42.9835 23.2999C43.9002 24.3833 45.1668 24.9249 46.7835 24.9249C47.9502 24.9249 48.8835 24.6749 49.5835 24.1749C50.3002 23.6583 50.7668 22.9499 50.9835 22.0499H54.5085C54.1752 23.8499 53.3335 25.2583 51.9835 26.2749C50.6502 27.2916 48.9335 27.7999 46.8335 27.7999Z" fill="black"/>
<path d="M55.7661 27.4999V9.49994H58.9661V27.4999H55.7661Z" fill="black"/>
<path d="M66.4358 27.7999C65.2692 27.7999 64.2275 27.5166 63.3108 26.9499C62.3942 26.3833 61.6692 25.6083 61.1358 24.6249C60.6025 23.6416 60.3358 22.5249 60.3358 21.2749C60.3358 20.0249 60.6025 18.9166 61.1358 17.9499C61.6692 16.9666 62.3942 16.1999 63.3108 15.6499C64.2275 15.0833 65.2692 14.7999 66.4358 14.7999C67.3692 14.7999 68.1858 14.9749 68.8858 15.3249C69.5858 15.6749 70.1525 16.1666 70.5858 16.7999L70.7608 15.0999H73.7858V27.4999H70.7858L70.5858 25.7249C70.1858 26.2749 69.6525 26.7583 68.9858 27.1749C68.3358 27.5916 67.4858 27.7999 66.4358 27.7999ZM67.1108 24.9999C68.1442 24.9999 68.9858 24.6583 69.6358 23.9749C70.3025 23.2749 70.6358 22.3833 70.6358 21.2999C70.6358 20.2166 70.3025 19.3333 69.6358 18.6499C68.9858 17.9499 68.1442 17.5999 67.1108 17.5999C66.0942 17.5999 65.2525 17.9416 64.5858 18.6249C63.9192 19.3083 63.5858 20.1916 63.5858 21.2749C63.5858 22.3583 63.9192 23.2499 64.5858 23.9499C65.2525 24.6499 66.0942 24.9999 67.1108 24.9999Z" fill="black"/>
<path d="M75.5444 27.4999V15.0999H78.3694L78.6194 17.1999C79.0028 16.4666 79.5528 15.8833 80.2694 15.4499C81.0028 15.0166 81.8611 14.7999 82.8444 14.7999C84.3778 14.7999 85.5694 15.2833 86.4194 16.2499C87.2694 17.2166 87.6944 18.6333 87.6944 20.4999V27.4999H84.4944V20.7999C84.4944 19.7333 84.2778 18.9166 83.8444 18.3499C83.4111 17.7833 82.7361 17.4999 81.8194 17.4999C80.9194 17.4999 80.1778 17.8166 79.5944 18.4499C79.0278 19.0833 78.7444 19.9666 78.7444 21.0999V27.4999H75.5444Z" fill="black"/>
<path d="M94.9544 27.7999C93.7877 27.7999 92.7461 27.5166 91.8294 26.9499C90.9127 26.3833 90.1877 25.6083 89.6544 24.6249C89.1211 23.6416 88.8544 22.5249 88.8544 21.2749C88.8544 20.0249 89.1211 18.9166 89.6544 17.9499C90.1877 16.9666 90.9127 16.1999 91.8294 15.6499C92.7461 15.0833 93.7877 14.7999 94.9544 14.7999C95.8877 14.7999 96.7044 14.9749 97.4044 15.3249C98.1044 15.6749 98.6711 16.1666 99.1044 16.7999V9.49994H102.304V27.4999H99.4544L99.1044 25.7249C98.7044 26.2749 98.1711 26.7583 97.5044 27.1749C96.8544 27.5916 96.0044 27.7999 94.9544 27.7999ZM95.6294 24.9999C96.6627 24.9999 97.5044 24.6583 98.1544 23.9749C98.8211 23.2749 99.1544 22.3833 99.1544 21.2999C99.1544 20.2166 98.8211 19.3333 98.1544 18.6499C97.5044 17.9499 96.6627 17.5999 95.6294 17.5999C94.6127 17.5999 93.771 17.9416 93.1044 18.6249C92.4377 19.3083 92.1044 20.1916 92.1044 21.2749C92.1044 22.3583 92.4377 23.2499 93.1044 23.9499C93.771 24.6499 94.6127 24.9999 95.6294 24.9999Z" fill="black"/>
<path d="M110.088 27.7999C108.838 27.7999 107.73 27.5333 106.763 26.9999C105.796 26.4666 105.038 25.7166 104.488 24.7499C103.938 23.7833 103.663 22.6666 103.663 21.3999C103.663 20.1166 103.93 18.9749 104.463 17.9749C105.013 16.9749 105.763 16.1999 106.713 15.6499C107.68 15.0833 108.813 14.7999 110.113 14.7999C111.33 14.7999 112.405 15.0666 113.338 15.5999C114.271 16.1333 114.996 16.8666 115.513 17.7999C116.046 18.7166 116.313 19.7416 116.313 20.8749C116.313 21.0583 116.305 21.2499 116.288 21.4499C116.288 21.6499 116.28 21.8583 116.263 22.0749H106.838C106.905 23.0416 107.238 23.7999 107.838 24.3499C108.455 24.8999 109.196 25.1749 110.063 25.1749C110.713 25.1749 111.255 25.0333 111.688 24.7499C112.138 24.4499 112.471 24.0666 112.688 23.5999H115.938C115.705 24.3833 115.313 25.0999 114.763 25.7499C114.23 26.3833 113.563 26.8833 112.763 27.2499C111.98 27.6166 111.088 27.7999 110.088 27.7999ZM110.113 17.3999C109.33 17.3999 108.638 17.6249 108.038 18.0749C107.438 18.5083 107.055 19.1749 106.888 20.0749H113.063C113.013 19.2583 112.713 18.6083 112.163 18.1249C111.613 17.6416 110.93 17.3999 110.113 17.3999Z" fill="black"/>
<path d="M122.629 27.7999C121.529 27.7999 120.563 27.6249 119.729 27.2749C118.896 26.9083 118.229 26.4083 117.729 25.7749C117.229 25.1416 116.929 24.4083 116.829 23.5749H120.054C120.154 24.0583 120.421 24.4749 120.854 24.8249C121.304 25.1583 121.879 25.3249 122.579 25.3249C123.279 25.3249 123.788 25.1833 124.104 24.8999C124.438 24.6166 124.604 24.2916 124.604 23.9249C124.604 23.3916 124.371 23.0333 123.904 22.8499C123.438 22.6499 122.788 22.4583 121.954 22.2749C121.421 22.1583 120.879 22.0166 120.329 21.8499C119.779 21.6833 119.271 21.4749 118.804 21.2249C118.354 20.9583 117.988 20.6249 117.704 20.2249C117.421 19.8083 117.279 19.2999 117.279 18.6999C117.279 17.5999 117.713 16.6749 118.579 15.9249C119.463 15.1749 120.696 14.7999 122.279 14.7999C123.746 14.7999 124.913 15.1416 125.779 15.8249C126.663 16.5083 127.188 17.4499 127.354 18.6499H124.329C124.146 17.7333 123.454 17.2749 122.254 17.2749C121.654 17.2749 121.188 17.3916 120.854 17.6249C120.538 17.8583 120.379 18.1499 120.379 18.4999C120.379 18.8666 120.621 19.1583 121.104 19.3749C121.588 19.5916 122.229 19.7916 123.029 19.9749C123.896 20.1749 124.688 20.3999 125.404 20.6499C126.138 20.8833 126.721 21.2416 127.154 21.7249C127.588 22.1916 127.804 22.8666 127.804 23.7499C127.821 24.5166 127.621 25.2083 127.204 25.8249C126.788 26.4416 126.188 26.9249 125.404 27.2749C124.621 27.6249 123.696 27.7999 122.629 27.7999Z" fill="black"/>
<path d="M134.274 27.4999C132.974 27.4999 131.932 27.1833 131.149 26.5499C130.365 25.9166 129.974 24.7916 129.974 23.1749V17.7749H127.849V15.0999H129.974L130.349 11.7749H133.174V15.0999H136.524V17.7749H134.007C133.547 17.7749 133.174 18.148 133.174 18.6083V23.1999C133.174 23.7999 133.299 24.2166 133.549 24.4499C133.815 24.6666 134.265 24.7749 134.899 24.7749H136.449V27.4999H134.274Z" fill="black"/>
<path d="M139.496 13.1749C138.913 13.1749 138.429 12.9999 138.046 12.6499C137.679 12.2999 137.496 11.8583 137.496 11.3249C137.496 10.7916 137.679 10.3583 138.046 10.0249C138.429 9.67494 138.913 9.49994 139.496 9.49994C140.079 9.49994 140.554 9.67494 140.921 10.0249C141.304 10.3583 141.496 10.7916 141.496 11.3249C141.496 11.8583 141.304 12.2999 140.921 12.6499C140.554 12.9999 140.079 13.1749 139.496 13.1749ZM137.896 27.4999V15.0999H141.096V27.4999H137.896Z" fill="black"/>
<path d="M142.936 27.4999V15.0999H145.761L146.011 17.1999C146.394 16.4666 146.944 15.8833 147.661 15.4499C148.394 15.0166 149.253 14.7999 150.236 14.7999C151.769 14.7999 152.961 15.2833 153.811 16.2499C154.661 17.2166 155.086 18.6333 155.086 20.4999V27.4999H151.886V20.7999C151.886 19.7333 151.669 18.9166 151.236 18.3499C150.803 17.7833 150.128 17.4999 149.211 17.4999C148.311 17.4999 147.569 17.8166 146.986 18.4499C146.419 19.0833 146.136 19.9666 146.136 21.0999V27.4999H142.936Z" fill="black"/>
<path d="M162.671 27.7999C161.421 27.7999 160.313 27.5333 159.346 26.9999C158.379 26.4666 157.621 25.7166 157.071 24.7499C156.521 23.7833 156.246 22.6666 156.246 21.3999C156.246 20.1166 156.513 18.9749 157.046 17.9749C157.596 16.9749 158.346 16.1999 159.296 15.6499C160.263 15.0833 161.396 14.7999 162.696 14.7999C163.913 14.7999 164.988 15.0666 165.921 15.5999C166.854 16.1333 167.579 16.8666 168.096 17.7999C168.629 18.7166 168.896 19.7416 168.896 20.8749C168.896 21.0583 168.888 21.2499 168.871 21.4499C168.871 21.6499 168.863 21.8583 168.846 22.0749H159.421C159.488 23.0416 159.821 23.7999 160.421 24.3499C161.038 24.8999 161.779 25.1749 162.646 25.1749C163.296 25.1749 163.838 25.0333 164.271 24.7499C164.721 24.4499 165.054 24.0666 165.271 23.5999H168.521C168.288 24.3833 167.896 25.0999 167.346 25.7499C166.813 26.3833 166.146 26.8833 165.346 27.2499C164.563 27.6166 163.671 27.7999 162.671 27.7999ZM162.696 17.3999C161.913 17.3999 161.221 17.6249 160.621 18.0749C160.021 18.5083 159.638 19.1749 159.471 20.0749H165.646C165.596 19.2583 165.296 18.6083 164.746 18.1249C164.196 17.6416 163.513 17.3999 162.696 17.3999Z" fill="black"/>
</g>
</svg>
