<svg width="150" height="40" viewBox="0 0 150 40" fill="none" xmlns="http://www.w3.org/2000/svg">
<g opacity="0.84">
<path d="M8.98237 5.15109L12.8908 19.7374V3.7009C13.2007 3.62858 13.5139 3.56489 13.8302 3.5101V19.739L18.2261 3.33301C18.5429 3.36169 18.8572 3.39921 19.1686 3.44534L14.7372 19.9835L23.5456 4.72681C23.8326 4.85591 24.1153 4.99287 24.3933 5.13742L15.5521 20.451L28.1741 7.82892C28.4017 8.04412 28.6232 8.26565 28.8383 8.49323L16.2145 21.1171L31.5298 12.2748C31.6743 12.5529 31.8113 12.8356 31.9403 13.1226L16.6875 21.9288L33.2211 17.4986C33.2672 17.8101 33.3047 18.1243 33.3333 18.4411L16.9276 22.837L33.156 22.837C33.1012 23.1533 33.0375 23.4665 32.9651 23.7765L16.9251 23.7765L31.5143 27.6856C31.3645 27.9725 31.2065 28.2545 31.0408 28.5313L16.6861 24.685L28.6756 31.6071C28.4486 31.8406 28.2149 32.0674 27.9747 32.2872L16.2174 25.4992L25.114 34.3957C24.8326 34.5601 24.5459 34.7165 24.2543 34.8646L15.5522 26.1625L21.2539 36.0382C20.9418 36.1265 20.6259 36.2059 20.3065 36.2761L14.7378 26.6308L17.4227 36.651C17.1834 36.6612 16.9428 36.6663 16.701 36.6663C16.6184 36.6663 16.536 36.6657 16.4538 36.6645L13.8302 26.8731V36.4205C13.5139 36.3657 13.2007 36.3021 12.8907 36.2297V26.8747L10.5775 35.508C10.2824 35.3917 9.99146 35.2672 9.7049 35.1348L11.983 26.6328L7.70655 34.0399C7.44179 33.8703 7.18214 33.6935 6.92787 33.5097L11.1707 26.1609L5.22891 32.1027C5.00133 31.8875 4.77981 31.666 4.56461 31.4385L10.5045 25.4986L3.15784 29.7402C2.97402 29.4859 2.79717 29.2263 2.62759 28.9615L10.0381 24.6831L1.53194 26.9623C1.39954 26.6757 1.27502 26.3848 1.15867 26.0897L9.79195 23.7765L0.436813 23.7765C0.364475 23.4665 0.300767 23.1533 0.245955 22.837L9.78942 22.837L0.00182014 20.2144C0.000608116 20.1315 0 20.0485 0 19.9653C0 19.7241 0.00511239 19.4841 0.0152347 19.2455L10.0367 21.9307L0.389908 16.3611C0.460151 16.0418 0.539533 15.7259 0.627764 15.4137L10.5075 21.1177L1.80169 12.4119C1.9498 12.1204 2.10621 11.8337 2.27063 11.5523L11.1708 20.4525L4.38003 8.69052C4.59992 8.45036 4.82674 8.21665 5.06017 7.9897L11.9835 19.9814L8.13663 5.62444C8.41345 5.45877 8.69546 5.30089 8.98237 5.15109Z" fill="black"/>
</g>
<g opacity="0.84">
<path d="M53.434 11.4802V14.8777H45.469V17.7802H52.4998V20.9977H45.469V27.5002H41.6665V13.5636C41.6665 12.413 42.5992 11.4802 43.7498 11.4802H53.434Z" fill="black"/>
<path d="M64.2771 26.1052C63.1671 27.2152 61.6896 27.7702 59.8446 27.7702C57.9996 27.7702 56.5221 27.2152 55.4121 26.1052C54.3021 24.9952 53.7471 23.5252 53.7471 21.6952C53.7471 19.8502 54.3021 18.3727 55.4121 17.2627C56.5071 16.1677 57.9846 15.6202 59.8446 15.6202C61.7046 15.6202 63.1821 16.1677 64.2771 17.2627C65.3721 18.3577 65.9196 19.8352 65.9196 21.6952C65.9196 23.5402 65.3721 25.0102 64.2771 26.1052ZM59.8446 24.9577C60.6546 24.9577 61.2771 24.6802 61.7121 24.1252C62.1471 23.5702 62.3646 22.7602 62.3646 21.6952C62.3646 20.6302 62.1471 19.8202 61.7121 19.2652C61.2771 18.7102 60.6546 18.4327 59.8446 18.4327C59.0196 18.4327 58.3896 18.7102 57.9546 19.2652C57.5196 19.8202 57.3021 20.6302 57.3021 21.6952C57.3021 22.7602 57.5196 23.5702 57.9546 24.1252C58.3896 24.6802 59.0196 24.9577 59.8446 24.9577Z" fill="black"/>
<path d="M72.5091 27.7702C70.6941 27.7702 69.2466 27.2152 68.1666 26.1052C67.0866 24.9952 66.5466 23.5252 66.5466 21.6952C66.5466 19.8352 67.0866 18.3577 68.1666 17.2627C69.2466 16.1677 70.6941 15.6202 72.5091 15.6202C74.0991 15.6202 75.3966 16.0402 76.4016 16.8802C77.4216 17.7052 78.0141 18.8302 78.1791 20.2552H74.6916C74.4966 19.0702 73.7691 18.4777 72.5091 18.4777C70.9041 18.4777 70.1016 19.5502 70.1016 21.6952C70.1016 23.8252 70.9041 24.8902 72.5091 24.8902C73.8591 24.8902 74.6091 24.2377 74.7591 22.9327H78.2466C78.1416 24.4027 77.5641 25.5802 76.5141 26.4652C75.4641 27.3352 74.1291 27.7702 72.5091 27.7702Z" fill="black"/>
<path d="M87.0109 17.2402V15.8902H90.5434V27.5002H87.1234V25.9927C86.4034 27.1777 85.2934 27.7702 83.7934 27.7702C82.1884 27.7702 80.9434 27.2302 80.0584 26.1502C79.1734 25.0702 78.7309 23.5852 78.7309 21.6952C78.7309 19.8052 79.1734 18.3202 80.0584 17.2402C80.9434 16.1602 82.1884 15.6202 83.7934 15.6202C85.2034 15.6202 86.2759 16.1602 87.0109 17.2402ZM84.6709 24.9577C86.2759 24.9577 87.0784 23.8702 87.0784 21.6952C87.0784 19.5202 86.2759 18.4327 84.6709 18.4327C83.0809 18.4327 82.2859 19.5502 82.2859 21.7852C82.2859 23.9002 83.0809 24.9577 84.6709 24.9577Z" fill="black"/>
<path d="M96.0052 27.5902C94.6402 27.5902 93.6502 27.3277 93.0352 26.8027C92.4202 26.2777 92.1127 25.4302 92.1127 24.2602V11.4802H95.6227V23.8777C95.6227 24.2677 95.7052 24.5377 95.8702 24.6877C96.0352 24.8227 96.3277 24.8902 96.7477 24.8902H97.5352V27.5002C97.1152 27.5602 96.6052 27.5902 96.0052 27.5902Z" fill="black"/>
<path d="M98.5229 13.5636C98.5229 12.413 99.4557 11.4802 100.606 11.4802H105.813C107.658 11.4802 109.105 11.9677 110.155 12.9427C111.205 13.9027 111.73 15.2152 111.73 16.8802C111.73 18.5452 111.205 19.8652 110.155 20.8402C109.105 21.8002 107.658 22.2802 105.813 22.2802H102.325V27.5002H98.5229V13.5636ZM102.325 19.0627H105.565C106.315 19.0627 106.893 18.8752 107.298 18.5002C107.718 18.1252 107.928 17.5852 107.928 16.8802C107.928 16.1752 107.718 15.6352 107.298 15.2602C106.878 14.8852 106.3 14.6977 105.565 14.6977H102.325V19.0627Z" fill="black"/>
<path d="M122.32 26.1052C121.21 27.2152 119.733 27.7702 117.888 27.7702C116.043 27.7702 114.565 27.2152 113.455 26.1052C112.345 24.9952 111.79 23.5252 111.79 21.6952C111.79 19.8502 112.345 18.3727 113.455 17.2627C114.55 16.1677 116.028 15.6202 117.888 15.6202C119.748 15.6202 121.225 16.1677 122.32 17.2627C123.415 18.3577 123.963 19.8352 123.963 21.6952C123.963 23.5402 123.415 25.0102 122.32 26.1052ZM117.888 24.9577C118.698 24.9577 119.32 24.6802 119.755 24.1252C120.19 23.5702 120.408 22.7602 120.408 21.6952C120.408 20.6302 120.19 19.8202 119.755 19.2652C119.32 18.7102 118.698 18.4327 117.888 18.4327C117.063 18.4327 116.433 18.7102 115.998 19.2652C115.563 19.8202 115.345 20.6302 115.345 21.6952C115.345 22.7602 115.563 23.5702 115.998 24.1252C116.433 24.6802 117.063 24.9577 117.888 24.9577Z" fill="black"/>
<path d="M126.817 14.6752C126.307 14.6752 125.872 14.5027 125.512 14.1577C125.167 13.7977 124.995 13.3702 124.995 12.8752C124.995 12.3652 125.167 11.9377 125.512 11.5927C125.872 11.2327 126.307 11.0527 126.817 11.0527C127.312 11.0527 127.732 11.2327 128.077 11.5927C128.437 11.9377 128.617 12.3652 128.617 12.8752C128.617 13.3702 128.437 13.7977 128.077 14.1577C127.732 14.5027 127.312 14.6752 126.817 14.6752ZM128.572 27.5002H125.062V15.8902H128.572V27.5002Z" fill="black"/>
<path d="M137.236 15.6202C138.466 15.6202 139.441 15.9952 140.161 16.7452C140.896 17.4802 141.264 18.5302 141.264 19.8952V27.5002H137.754V20.5927C137.754 19.2727 137.131 18.6127 135.886 18.6127C135.256 18.6127 134.731 18.8227 134.311 19.2427C133.891 19.6627 133.681 20.2552 133.681 21.0202V27.5002H130.171V15.8902H133.591V17.5327C134.491 16.2577 135.706 15.6202 137.236 15.6202Z" fill="black"/>
<path d="M149.192 15.8902V18.4552H146.965V23.8777C146.965 24.2677 147.062 24.5377 147.257 24.6877C147.452 24.8227 147.797 24.8902 148.292 24.8902H149.192V27.5002C148.772 27.5602 148.232 27.5902 147.572 27.5902C146.117 27.5902 145.067 27.3352 144.422 26.8252C143.777 26.3002 143.455 25.4452 143.455 24.2602V18.4552H141.722V15.8902H143.455V12.4477H146.965V15.8902H149.192Z" fill="black"/>
</g>
</svg>
