<svg width="174" height="40" viewBox="0 0 174 40" fill="none" xmlns="http://www.w3.org/2000/svg">
<g opacity="0.84">
<path d="M33.3273 19.5143C33.0705 10.5341 25.71 3.33301 16.6676 3.33301C13.8039 3.33301 11.1089 4.05522 8.75487 5.32744L33.3273 19.5143Z" fill="black"/>
<path d="M6.41157 6.86129C5.72177 7.40052 5.07552 7.99289 4.47897 8.63225L32.6102 24.8738C32.863 24.0458 33.0531 23.1904 33.175 22.3131L6.41157 6.86129Z" fill="black"/>
<path d="M28.8564 31.3668C28.2599 32.0062 27.6136 32.5986 26.9239 33.1378L0.160218 17.6858C0.282057 16.8086 0.472174 15.9532 0.72503 15.1252L28.8564 31.3668Z" fill="black"/>
<path d="M30.4372 29.3927L1.6462 12.7703C2.01008 12.0156 2.42914 11.2925 2.89817 10.6063L31.6891 27.2288C31.3252 27.9834 30.9062 28.7065 30.4372 29.3927Z" fill="black"/>
<path d="M16.6676 36.6663C19.5314 36.6663 22.2265 35.944 24.5806 34.6717L0.0078125 20.4846C0.264393 29.4651 7.625 36.6663 16.6676 36.6663Z" fill="black"/>
</g>
<g opacity="0.84">
<path d="M62.2976 20.3747C62.2976 19.1663 61.6309 18.3747 60.6309 18.3747C59.5684 18.3747 58.7351 18.958 57.8184 20.458V27.4997H49.1042C44.5834 27.4997 41.6667 24.7288 41.6667 20.2288C41.6667 15.7288 44.5834 12.958 49.1042 12.958H52.6042V15.7705H49.1042C46.6667 15.7705 45.2084 17.3955 45.2084 20.2288C45.2084 23.0622 46.6667 24.6872 49.1042 24.6872H54.5684V12.083H57.8184V17.1872C58.7976 16.1038 60.0476 15.6663 61.2976 15.6663C63.9434 15.6663 65.5476 17.458 65.5476 20.1663V27.4997H62.2976V20.3747Z" fill="black"/>
<path d="M73.0398 18.3747C73.9148 18.3747 74.2898 19.083 74.2898 20.1663V21.7288H77.5606V20.1663C77.5606 17.208 75.9773 15.6663 73.7481 15.6663C72.5606 15.6663 71.5606 16.1872 70.7065 17.208L70.644 15.9163H67.4981V27.4997H70.7481V20.2705C71.6023 19.0205 72.3106 18.3747 73.0398 18.3747Z" fill="black"/>
<path fill-rule="evenodd" clip-rule="evenodd" d="M84.3186 27.7497C80.6103 27.7497 78.3603 25.4788 78.3603 21.708C78.3603 17.9372 80.6103 15.6663 84.3186 15.6663C88.0269 15.6663 90.2561 17.9372 90.2561 21.708C90.2561 25.4788 88.0269 27.7497 84.3186 27.7497ZM81.6103 21.708C81.6103 23.8538 82.6311 25.1247 84.3186 25.1247C85.9853 25.1247 87.0061 23.8538 87.0061 21.708C87.0061 19.5622 85.9853 18.2913 84.3186 18.2913C82.6311 18.2913 81.6103 19.5622 81.6103 21.708Z" fill="black"/>
<path d="M104.896 18.3538C106 18.3538 106.709 19.0622 106.709 20.2288V27.4997H109.959V20.2288C109.959 17.3747 108.104 15.6663 105.813 15.6663C104.021 15.6663 102.667 16.458 101.959 17.6872C101.25 16.3955 99.8961 15.6663 98.3127 15.6663C97.0002 15.6663 95.7502 16.3122 94.9586 17.3122L94.8961 15.9163H91.7502V27.4997H95.0002V20.1455C95.6461 19.083 96.4794 18.3538 97.4169 18.3538C98.5002 18.3538 99.2294 19.0622 99.2294 20.2288V27.4997H102.479V20.1872C103.125 19.1038 103.959 18.3538 104.896 18.3538Z" fill="black"/>
<path fill-rule="evenodd" clip-rule="evenodd" d="M118.819 27.4997L118.756 26.3538C117.964 27.3538 116.735 27.7497 115.298 27.7497C113.048 27.7497 111.569 26.3122 111.569 24.2705C111.569 21.8747 113.464 20.5205 116.589 20.5205H118.714V19.7288C118.714 18.6247 117.944 17.958 116.631 17.958C115.339 17.958 114.506 18.583 114.402 19.6038H111.235C111.444 17.1663 113.527 15.6663 116.777 15.6663C119.944 15.6663 121.964 17.208 121.964 19.9372V27.4997H118.819ZM114.756 24.0622C114.756 24.6872 115.194 25.1872 116.11 25.1872C117.235 25.1872 118.089 24.6247 118.714 23.6663V22.7705L116.527 22.7913C115.444 22.7913 114.756 23.1663 114.756 24.0622Z" fill="black"/>
<path d="M124.734 23.333C124.734 25.7913 126.276 27.4997 128.63 27.4997H131.546V24.8747H129.921C128.505 24.8747 127.984 24.5413 127.984 23.333V18.5413H130.359V15.9163H127.984V12.083H124.734V15.9163H122.755V18.5413H124.734V23.333Z" fill="black"/>
<path fill-rule="evenodd" clip-rule="evenodd" d="M137.929 27.7497C134.221 27.7497 131.971 25.4788 131.971 21.708C131.971 17.9372 134.221 15.6663 137.929 15.6663C141.638 15.6663 143.867 17.9372 143.867 21.708C143.867 25.4788 141.638 27.7497 137.929 27.7497ZM135.221 21.708C135.221 23.8538 136.242 25.1247 137.929 25.1247C139.596 25.1247 140.617 23.8538 140.617 21.708C140.617 19.5622 139.596 18.2913 137.929 18.2913C136.242 18.2913 135.221 19.5622 135.221 21.708Z" fill="black"/>
<path fill-rule="evenodd" clip-rule="evenodd" d="M144.819 21.708C144.819 25.4788 147.069 27.7497 150.778 27.7497C154.486 27.7497 156.715 25.4788 156.715 21.708C156.715 17.9372 154.486 15.6663 150.778 15.6663C147.069 15.6663 144.819 17.9372 144.819 21.708ZM150.778 25.1247C149.09 25.1247 148.069 23.8538 148.069 21.708C148.069 19.5622 149.09 18.2913 150.778 18.2913C152.444 18.2913 153.465 19.5622 153.465 21.708C153.465 23.8538 152.444 25.1247 150.778 25.1247Z" fill="black"/>
<path d="M162.863 23.3538C162.905 26.083 164.863 27.7497 168.05 27.7497C171.05 27.7497 172.863 26.333 172.863 23.9788C172.863 21.1156 170.493 20.6671 168.611 20.3109C167.371 20.0761 166.342 19.8814 166.342 19.0622C166.342 18.3955 166.884 18.0205 167.8 18.0205C168.884 18.0205 169.592 18.583 169.655 19.6038H172.655C172.446 17.1247 170.8 15.6663 167.905 15.6663C165.05 15.6663 163.113 16.9997 163.113 19.2705C163.113 21.9893 165.45 22.5355 167.325 22.974C168.583 23.268 169.634 23.5135 169.634 24.333C169.634 24.9997 169.03 25.3955 168.05 25.3955C166.634 25.3955 165.8 24.6247 165.863 23.3538H162.863Z" fill="black"/>
<path d="M158.23 27.4997V12.083H161.48V27.4997H158.23Z" fill="black"/>
</g>
</svg>
