<svg width="152" height="40" viewBox="0 0 152 40" fill="none" xmlns="http://www.w3.org/2000/svg">
<g opacity="0.84">
<path fill-rule="evenodd" clip-rule="evenodd" d="M16.6667 3.33301C25.8714 3.33301 33.3333 10.7949 33.3333 19.9997C33.3333 29.2044 25.8714 36.6663 16.6667 36.6663C7.46192 36.6663 0 29.2044 0 19.9997C0 10.7949 7.46192 3.33301 16.6667 3.33301ZM29.1667 19.9997C29.1667 26.9032 23.5702 32.4997 16.6667 32.4997V7.49967C23.5702 7.49967 29.1667 13.0961 29.1667 19.9997Z" fill="black"/>
</g>
<g opacity="0.84">
<path d="M49.5192 10.76C54.1092 10.76 56.2917 13.055 56.7192 16.385H53.4117C53.0292 14.6975 51.7017 13.685 49.5417 13.685C46.7292 13.685 45.0642 15.485 45.0642 19.1975C45.0642 23.4725 47.0442 24.89 49.6092 24.89C51.7467 24.89 53.0292 23.9 53.4342 22.19H56.7192C56.2467 25.8575 53.7042 27.815 49.5192 27.815C44.5017 27.815 41.6667 24.98 41.6667 19.355C41.6667 14.3825 44.1192 10.76 49.5192 10.76Z" fill="black"/>
<path d="M61.0189 21.5375C61.0189 24.26 62.0539 25.205 63.8089 25.205C65.5414 25.205 66.5539 24.26 66.5539 21.5375C66.5539 18.86 65.5414 17.8925 63.8089 17.8925C62.0539 17.8925 61.0189 18.86 61.0189 21.5375ZM57.6664 21.5375C57.6664 17.4875 59.8039 15.305 63.8089 15.305C67.8139 15.305 69.9289 17.4875 69.9289 21.5375C69.9289 25.61 67.7914 27.815 63.8089 27.815C59.8039 27.815 57.6664 25.61 57.6664 21.5375Z" fill="black"/>
<path d="M78.2361 15.305C80.7336 15.305 82.1736 16.295 82.4661 18.4775C82.5336 19.085 82.5561 19.6475 82.5561 20.615V27.5H79.3386V20.57C79.3386 18.995 78.9111 17.9825 77.1336 17.9825C75.6711 17.9375 74.6361 18.95 74.6361 21.2V27.5H71.4186V15.62H74.3661L74.5011 17.555C74.8836 15.8 76.2786 15.305 78.2361 15.305Z" fill="black"/>
<path d="M88.6176 23.3825C88.6176 25.1375 89.0001 25.295 91.1376 25.1825V27.6125C90.3951 27.7025 89.7651 27.77 88.7076 27.77C86.3226 27.77 85.5576 26.8025 85.4226 25.2725C85.3776 24.62 85.3776 24.1475 85.3776 23.4725V18.185H83.6676V15.6425H85.3776V12.1775H88.6176V15.6425H91.2726V18.185H88.6176V23.3825Z" fill="black"/>
<path d="M98.8932 15.305C99.3207 15.305 99.5907 15.305 99.8607 15.3725V17.9825C97.0032 17.69 95.6982 18.995 95.6982 22.3475V27.5H92.4807V15.62H95.4282L95.5632 17.8925C95.7882 16.0475 97.0932 15.305 98.8932 15.305Z" fill="black"/>
<path d="M105.546 15.305C109.056 15.305 110.361 16.8125 110.519 18.905C110.564 19.5125 110.586 20.075 110.586 20.75V27.5H107.684L107.504 25.925C106.964 27.5225 105.546 27.815 103.791 27.815C101.609 27.815 99.8988 26.5775 99.8988 24.26C99.8988 21.29 102.171 20.21 106.761 20.21H107.414V19.7825C107.414 18.6125 107.031 17.87 105.411 17.87C103.994 17.87 103.364 18.365 103.229 19.4675H100.281C100.371 16.9025 101.946 15.305 105.546 15.305ZM103.026 23.8775C103.026 24.755 103.724 25.25 104.826 25.25C106.086 25.25 107.414 24.53 107.414 23.36V22.415C104.579 22.28 103.026 22.5725 103.026 23.8775Z" fill="black"/>
<path d="M117.01 15.305C120.385 15.305 121.825 16.61 121.983 19.1075H118.878C118.72 18.005 117.978 17.735 116.943 17.735C115.998 17.735 115.278 18.095 115.278 18.77C115.278 19.49 115.863 19.895 117.708 20.1875C120.835 20.66 122.343 21.74 122.343 24.08C122.343 26.6 120.048 27.815 117.19 27.815C113.815 27.815 112.083 26.6225 111.768 23.9225H114.918C115.12 25.0025 115.795 25.3625 117.28 25.3625C118.45 25.3625 119.148 24.98 119.148 24.35C119.148 23.5625 118.338 23.1125 116.583 22.8425C113.433 22.325 112.083 21.38 112.083 18.9725C112.083 16.79 114.018 15.305 117.01 15.305Z" fill="black"/>
<path d="M127.775 23.3825C127.775 25.1375 128.158 25.295 130.295 25.1825V27.6125C129.553 27.7025 128.923 27.77 127.865 27.77C125.48 27.77 124.715 26.8025 124.58 25.2725C124.535 24.62 124.535 24.1475 124.535 23.4725V18.185H122.825V15.6425H124.535V12.1775H127.775V15.6425H130.43V18.185H127.775V23.3825Z" fill="black"/>
<path d="M140.725 11.075L146.53 27.5H143.043L141.67 23.54H135.618L134.223 27.5H130.78L136.698 11.075H140.725ZM136.405 20.75H140.928L138.7 14.1575L136.405 20.75Z" fill="black"/>
<path d="M151.129 11.075V27.5H147.844V11.075H151.129Z" fill="black"/>
</g>
</svg>
