<svg width="127" height="40" viewBox="0 0 127 40" fill="none" xmlns="http://www.w3.org/2000/svg">
<g opacity="0.84">
<path opacity="0.5" fill-rule="evenodd" clip-rule="evenodd" d="M28.8233 7.00043L20.751 4.83746C20.1937 4.68814 19.742 5.03479 19.742 5.61172V13.9688C19.742 14.5457 20.1937 15.1345 20.751 15.2838L28.8233 17.4468C29.3806 17.5961 29.8324 17.2494 29.8324 16.6725V8.31543C29.8324 7.7385 29.3806 7.14975 28.8233 7.00043ZM20.751 1.70356C18.5219 1.10627 16.7148 2.49287 16.7148 4.80061V13.1577C16.7148 15.4654 18.5219 17.8204 20.751 18.4177L28.8233 20.5807C31.0524 21.178 32.8595 19.7914 32.8595 17.4836V9.12655C32.8595 6.8188 31.0524 4.46381 28.8233 3.86652L20.751 1.70356Z" fill="black"/>
<path opacity="0.7" fill-rule="evenodd" clip-rule="evenodd" d="M22.4859 13.8087L12.3955 11.105C11.8383 10.9557 11.3865 11.3024 11.3865 11.8793V22.3256C11.3865 22.9026 11.8383 23.4913 12.3955 23.6406L22.4859 26.3444C23.0432 26.4937 23.495 26.147 23.495 25.5701V15.1238C23.495 14.5468 23.0432 13.9581 22.4859 13.8087ZM12.3955 7.97113C10.1664 7.37385 8.35938 8.76044 8.35938 11.0682V21.5145C8.35938 23.8223 10.1664 26.1773 12.3955 26.7745L22.4859 29.4783C24.715 30.0755 26.5221 28.689 26.5221 26.3812V15.9349C26.5221 13.6271 24.715 11.2721 22.4859 10.6748L12.3955 7.97113Z" fill="black"/>
<path fill-rule="evenodd" clip-rule="evenodd" d="M16.1446 20.6171L4.03616 17.3726C3.47888 17.2233 3.02712 17.5699 3.02712 18.1469V30.6825C3.02712 31.2594 3.47888 31.8482 4.03616 31.9975L16.1446 35.2419C16.7019 35.3913 17.1537 35.0446 17.1537 34.4677V21.9321C17.1537 21.3551 16.7019 20.7664 16.1446 20.6171ZM4.03616 14.2387C1.80705 13.6414 0 15.028 0 17.3358V29.8714C0 32.1791 1.80705 34.5341 4.03616 35.1314L16.1446 38.3758C18.3737 38.9731 20.1808 37.5865 20.1808 35.2788V22.7432C20.1808 20.4354 18.3737 18.0805 16.1446 17.4832L4.03616 14.2387Z" fill="black"/>
</g>
<g opacity="0.84">
<path d="M44.6998 27.1737C45.6487 27.6092 46.7376 27.827 47.9665 27.827C49.1954 27.827 50.2687 27.617 51.1865 27.197C52.1198 26.7614 52.8432 26.1548 53.3565 25.377C53.8698 24.5837 54.1265 23.6581 54.1265 22.6003V22.3203C54.1265 21.3403 53.9009 20.547 53.4498 19.9403C52.9987 19.3181 52.4232 18.8592 51.7232 18.5637C51.0387 18.2681 50.3309 18.1203 49.5998 18.1203H48.7365V17.747L53.6598 15.1337V11.167H42.0865V13.827H50.3465V14.2003L45.0732 17.0003V20.267H48.3398C48.8687 20.267 49.3432 20.3448 49.7632 20.5003C50.1832 20.6403 50.5176 20.8659 50.7665 21.177C51.0154 21.4881 51.1398 21.8925 51.1398 22.3903V22.6237C51.1398 23.3548 50.8598 23.9614 50.2998 24.4437C49.7554 24.9259 48.9776 25.167 47.9665 25.167C46.9709 25.167 46.1698 24.9103 45.5632 24.397C44.9565 23.8681 44.6532 23.1681 44.6532 22.297V21.9703H41.6665V22.3903C41.6665 23.5103 41.9309 24.4825 42.4598 25.307C43.0043 26.1159 43.7509 26.7381 44.6998 27.1737Z" fill="black"/>
<path fill-rule="evenodd" clip-rule="evenodd" d="M64.8691 11.797C64.0914 11.377 63.1891 11.167 62.1625 11.167H55.4425V27.5003H58.5225V21.527H62.1625C63.158 21.527 64.0447 21.3248 64.8225 20.9203C65.6158 20.5003 66.238 19.917 66.6891 19.1703C67.1558 18.4081 67.3891 17.5214 67.3891 16.5103V16.1837C67.3891 15.157 67.1636 14.2703 66.7125 13.5237C66.2769 12.777 65.6625 12.2014 64.8691 11.797ZM63.6325 18.1203C63.1814 18.5248 62.5902 18.727 61.8591 18.727H58.5225V13.967H61.8591C62.5902 13.967 63.1814 14.1692 63.6325 14.5737C64.0836 14.9781 64.3091 15.5303 64.3091 16.2303V16.4637C64.3091 17.1637 64.0836 17.7159 63.6325 18.1203Z" fill="black"/>
<path fill-rule="evenodd" clip-rule="evenodd" d="M73.6844 27.827C72.5333 27.827 71.4988 27.5937 70.5811 27.127C69.6633 26.6603 68.9399 25.9837 68.4111 25.097C67.8822 24.2103 67.6177 23.1448 67.6177 21.9003V21.527C67.6177 20.2825 67.8822 19.217 68.4111 18.3303C68.9399 17.4437 69.6633 16.767 70.5811 16.3003C71.4988 15.8337 72.5333 15.6003 73.6844 15.6003C74.8355 15.6003 75.8699 15.8337 76.7877 16.3003C77.7055 16.767 78.4288 17.4437 78.9577 18.3303C79.4866 19.217 79.7511 20.2825 79.7511 21.527V21.9003C79.7511 23.1448 79.4866 24.2103 78.9577 25.097C78.4288 25.9837 77.7055 26.6603 76.7877 27.127C75.8699 27.5937 74.8355 27.827 73.6844 27.827ZM73.6844 25.2137C74.5866 25.2137 75.3333 24.9259 75.9244 24.3503C76.5155 23.7592 76.8111 22.9192 76.8111 21.8303V21.597C76.8111 20.5081 76.5155 19.6759 75.9244 19.1003C75.3488 18.5092 74.6022 18.2137 73.6844 18.2137C72.7822 18.2137 72.0355 18.5092 71.4444 19.1003C70.8533 19.6759 70.5577 20.5081 70.5577 21.597V21.8303C70.5577 22.9192 70.8533 23.7592 71.4444 24.3503C72.0355 24.9259 72.7822 25.2137 73.6844 25.2137Z" fill="black"/>
<path d="M85.4515 16.207C85.0626 16.4248 84.7826 16.767 84.6115 17.2337H84.1915V15.927H81.2982V27.5003H84.2382V20.9203C84.2382 20.0959 84.4793 19.4892 84.9615 19.1003C85.4437 18.6959 86.0582 18.4937 86.8048 18.4937H88.2515V18.492H91.2495V24.887C91.2495 25.6803 91.4828 26.3181 91.9495 26.8003C92.4317 27.267 93.0539 27.5003 93.8161 27.5003H97.0828V25.0737H94.8428C94.4072 25.0737 94.1895 24.8403 94.1895 24.3737V18.492H97.3628V15.8836H94.1895V12.3337H91.2495V15.8836H88.2515V15.8803H86.8515C86.3226 15.8803 85.8559 15.9892 85.4515 16.207Z" fill="black"/>
<path fill-rule="evenodd" clip-rule="evenodd" d="M100.234 27.407C100.887 27.687 101.626 27.827 102.451 27.827C103.26 27.827 103.897 27.7103 104.364 27.477C104.831 27.2437 105.173 26.9792 105.391 26.6837C105.609 26.3725 105.749 26.1237 105.811 25.937H106.254V25.9603C106.254 26.427 106.441 26.8003 106.814 27.0803C107.187 27.3603 107.662 27.5003 108.237 27.5003H110.197V25.0737H109.264C108.829 25.0737 108.611 24.8403 108.611 24.3737V20.057C108.611 18.6103 108.167 17.5059 107.281 16.7437C106.394 15.9814 105.189 15.6003 103.664 15.6003C102.669 15.6003 101.821 15.7559 101.121 16.067C100.436 16.3625 99.8841 16.7592 99.4641 17.257C99.0596 17.7392 98.7641 18.2759 98.5774 18.867L101.284 19.777C101.393 19.2481 101.626 18.8203 101.984 18.4937C102.342 18.1514 102.886 17.9803 103.617 17.9803C104.364 17.9803 104.909 18.1592 105.251 18.517C105.593 18.8592 105.764 19.3025 105.764 19.847V20.5003H102.591C101.72 20.5003 100.942 20.6403 100.257 20.9203C99.5885 21.1848 99.0596 21.5892 98.6707 22.1337C98.2974 22.6625 98.1107 23.3237 98.1107 24.117C98.1107 24.9103 98.2974 25.587 98.6707 26.147C99.0596 26.6914 99.5807 27.1114 100.234 27.407ZM104.971 24.7703C104.457 25.2214 103.789 25.447 102.964 25.447C102.342 25.447 101.867 25.3148 101.541 25.0503C101.214 24.7859 101.051 24.4437 101.051 24.0237C101.051 23.6037 101.206 23.277 101.517 23.0437C101.829 22.8103 102.256 22.6937 102.801 22.6937H105.764V22.927C105.764 23.6892 105.5 24.3037 104.971 24.7703Z" fill="black"/>
<path d="M117.308 26.847C118.273 27.5003 119.509 27.827 121.018 27.827C122.496 27.827 123.67 27.5003 124.542 26.847C125.428 26.1781 125.872 25.237 125.872 24.0237C125.872 23.2148 125.662 22.577 125.242 22.1103C124.837 21.6281 124.277 21.2625 123.562 21.0137C122.862 20.7492 122.076 20.5392 121.205 20.3837L120.552 20.267C120.023 20.1737 119.603 20.0414 119.292 19.8703C118.98 19.6837 118.825 19.4037 118.825 19.0303C118.825 18.6881 118.973 18.4237 119.268 18.237C119.564 18.0348 119.992 17.9337 120.552 17.9337C121.112 17.9337 121.578 18.0581 121.952 18.307C122.34 18.5559 122.597 18.9759 122.722 19.567L125.452 18.727C125.187 17.7937 124.627 17.0392 123.772 16.4637C122.916 15.8881 121.843 15.6003 120.552 15.6003C119.183 15.6003 118.078 15.9114 117.238 16.5337C116.398 17.1403 115.978 18.0192 115.978 19.1703C115.978 19.9325 116.18 20.5548 116.585 21.037C116.989 21.5192 117.526 21.9003 118.195 22.1803C118.864 22.4448 119.603 22.6548 120.412 22.8103L121.065 22.927C121.749 23.0514 122.247 23.2148 122.558 23.417C122.869 23.6037 123.025 23.8759 123.025 24.2337C123.025 24.5914 122.862 24.8948 122.535 25.1437C122.208 25.377 121.703 25.4937 121.018 25.4937C120.567 25.4937 120.147 25.4314 119.758 25.307C119.385 25.167 119.066 24.9414 118.802 24.6303C118.553 24.3192 118.374 23.8914 118.265 23.347L115.558 24.047C115.76 25.2603 116.344 26.1937 117.308 26.847Z" fill="black"/>
<path d="M111.18 27.5003V11.167H114.12V27.5003H111.18Z" fill="black"/>
</g>
</svg>
