<svg width="136" height="28" viewBox="0 0 136 28" fill="none" xmlns="http://www.w3.org/2000/svg">
<path d="M22.9904 13.6604C22.8133 7.37423 17.7345 2.3335 11.4952 2.3335C9.51931 2.3335 7.65979 2.83905 6.03547 3.7296L22.9904 13.6604Z" fill="black"/>
<path d="M4.4186 4.80329C3.94263 5.18075 3.49672 5.59542 3.0851 6.04297L22.4957 17.4121C22.6701 16.8324 22.8013 16.2337 22.8853 15.6196L4.4186 4.80329Z" fill="black"/>
<path d="M19.9055 21.9572C19.4939 22.4047 19.048 22.8194 18.5721 23.1969L0.10516 12.3805C0.189228 11.7664 0.32041 11.1676 0.49488 10.588L19.9055 21.9572Z" fill="black"/>
<path d="M20.9963 20.5753L1.13049 8.93957C1.38156 8.4113 1.67072 7.90516 1.99435 7.42482L21.8601 19.0605C21.609 19.5888 21.3199 20.0949 20.9963 20.5753Z" fill="black"/>
<path d="M11.4952 25.6668C13.4712 25.6668 15.3309 25.1612 16.9552 24.2706L0 14.3396C0.17704 20.6259 5.25586 25.6668 11.4952 25.6668Z" fill="black"/>
<path d="M45.7432 14.2627C45.7432 13.4168 45.2774 12.8627 44.5787 12.8627C43.8363 12.8627 43.254 13.271 42.6135 14.321V19.2502H36.5246C33.3657 19.2502 31.3278 17.3106 31.3278 14.1606C31.3278 11.0106 33.3657 9.071 36.5246 9.071H38.9702V11.0397H36.5246C34.8214 11.0397 33.8024 12.1772 33.8024 14.1606C33.8024 16.1439 34.8214 17.2814 36.5246 17.2814H40.3426V8.4585H42.6135V12.0314C43.2977 11.2731 44.1711 10.9668 45.0445 10.9668C46.8932 10.9668 48.0141 12.221 48.0141 14.1168V19.2502H45.7432V14.2627Z" fill="black"/>
<path d="M53.2492 12.8627C53.8606 12.8627 54.1226 13.3585 54.1226 14.1168V15.2106H56.408V14.1168C56.408 12.046 55.3017 10.9668 53.7441 10.9668C52.9144 10.9668 52.2156 11.3314 51.6188 12.046L51.5751 11.1418H49.377V19.2502H51.6479V14.1897C52.2447 13.3147 52.7397 12.8627 53.2492 12.8627Z" fill="black"/>
<path fill-rule="evenodd" clip-rule="evenodd" d="M61.1301 19.4252C58.5389 19.4252 56.9668 17.8356 56.9668 15.196C56.9668 12.5564 58.5389 10.9668 61.1301 10.9668C63.7212 10.9668 65.2788 12.5564 65.2788 15.196C65.2788 17.8356 63.7212 19.4252 61.1301 19.4252ZM59.2377 15.196C59.2377 16.6981 59.951 17.5877 61.1301 17.5877C62.2946 17.5877 63.0079 16.6981 63.0079 15.196C63.0079 13.6939 62.2946 12.8043 61.1301 12.8043C59.951 12.8043 59.2377 13.6939 59.2377 15.196Z" fill="black"/>
<path d="M75.5083 12.8481C76.2798 12.8481 76.7747 13.3439 76.7747 14.1606V19.2502H79.0456V14.1606C79.0456 12.1627 77.75 10.9668 76.1488 10.9668C74.8969 10.9668 73.9507 11.521 73.4557 12.3814C72.9608 11.4772 72.0146 10.9668 70.9083 10.9668C69.9912 10.9668 69.1177 11.4189 68.5646 12.1189L68.5209 11.1418H66.3228V19.2502H68.5937V14.1022C69.045 13.3585 69.6272 12.8481 70.2823 12.8481C71.0393 12.8481 71.5488 13.3439 71.5488 14.1606V19.2502H73.8196V14.1314C74.2709 13.3731 74.8532 12.8481 75.5083 12.8481Z" fill="black"/>
<path fill-rule="evenodd" clip-rule="evenodd" d="M85.2364 19.2502L85.1927 18.4481C84.6396 19.1481 83.7807 19.4252 82.7763 19.4252C81.2041 19.4252 80.1706 18.4189 80.1706 16.9897C80.1706 15.3127 81.4953 14.3647 83.6788 14.3647H85.1636V13.8106C85.1636 13.0377 84.625 12.571 83.7079 12.571C82.8054 12.571 82.2231 13.0085 82.1503 13.7231H79.9377C80.0832 12.0168 81.5389 10.9668 83.8098 10.9668C86.0225 10.9668 87.4345 12.046 87.4345 13.9564V19.2502H85.2364ZM82.3978 16.8439C82.3978 17.2814 82.7035 17.6314 83.344 17.6314C84.1301 17.6314 84.7269 17.2377 85.1636 16.5668V15.9397L83.6351 15.9543C82.8782 15.9543 82.3978 16.2168 82.3978 16.8439Z" fill="black"/>
<path d="M89.3697 16.3335C89.3697 18.0543 90.4469 19.2502 92.0918 19.2502H94.1298V17.4127H92.9943C92.0045 17.4127 91.6406 17.1793 91.6406 16.3335V12.9793H93.3V11.1418H91.6406V8.4585H89.3697V11.1418H87.9868V12.9793H89.3697V16.3335Z" fill="black"/>
<path fill-rule="evenodd" clip-rule="evenodd" d="M98.5898 19.4252C95.9987 19.4252 94.4265 17.8356 94.4265 15.196C94.4265 12.5564 95.9987 10.9668 98.5898 10.9668C101.181 10.9668 102.739 12.5564 102.739 15.196C102.739 17.8356 101.181 19.4252 98.5898 19.4252ZM96.6974 15.196C96.6974 16.6981 97.4107 17.5877 98.5898 17.5877C99.7544 17.5877 100.468 16.6981 100.468 15.196C100.468 13.6939 99.7544 12.8043 98.5898 12.8043C97.4107 12.8043 96.6974 13.6939 96.6974 15.196Z" fill="black"/>
<path fill-rule="evenodd" clip-rule="evenodd" d="M103.404 15.196C103.404 17.8356 104.976 19.4252 107.567 19.4252C110.158 19.4252 111.716 17.8356 111.716 15.196C111.716 12.5564 110.158 10.9668 107.567 10.9668C104.976 10.9668 103.404 12.5564 103.404 15.196ZM107.567 17.5877C106.388 17.5877 105.675 16.6981 105.675 15.196C105.675 13.6939 106.388 12.8043 107.567 12.8043C108.732 12.8043 109.445 13.6939 109.445 15.196C109.445 16.6981 108.732 17.5877 107.567 17.5877Z" fill="black"/>
<path d="M116.012 16.3481C116.041 18.2585 117.409 19.4252 119.636 19.4252C121.733 19.4252 122.999 18.4335 122.999 16.7856C122.999 14.7813 121.343 14.4674 120.028 14.218C119.162 14.0537 118.443 13.9174 118.443 13.3439C118.443 12.8772 118.821 12.6147 119.462 12.6147C120.219 12.6147 120.714 13.0085 120.757 13.7231H122.853C122.708 11.9877 121.558 10.9668 119.534 10.9668C117.54 10.9668 116.186 11.9002 116.186 13.4897C116.186 15.3929 117.819 15.7753 119.13 16.0822C120.009 16.288 120.743 16.4599 120.743 17.0335C120.743 17.5002 120.321 17.7772 119.636 17.7772C118.646 17.7772 118.064 17.2377 118.108 16.3481H116.012Z" fill="black"/>
<path d="M112.775 19.2502V8.4585H115.046V19.2502H112.775Z" fill="black"/>
</svg>
