<svg width="105" height="28" viewBox="0 0 105 28" fill="none" xmlns="http://www.w3.org/2000/svg">
<path fill-rule="evenodd" clip-rule="evenodd" d="M11.5 25.6668C17.8513 25.6668 23 20.4435 23 14.0002C23 7.55685 17.8513 2.3335 11.5 2.3335C5.14871 2.3335 0 7.55685 0 14.0002C0 20.4435 5.14871 25.6668 11.5 25.6668ZM15.0876 7.76832C15.2622 7.13903 14.6603 6.76691 14.1105 7.16426L6.43604 12.7108C5.83982 13.1417 5.93361 14.0002 6.57691 14.0002H8.59781V13.9843H12.5364L9.3272 15.133L7.91241 20.232C7.73778 20.8613 8.33969 21.2334 8.88951 20.8361L16.564 15.2896C17.1602 14.8587 17.0663 14.0002 16.4231 14.0002H13.3585L15.0876 7.76832Z" fill="black"/>
<path d="M77.2267 9.84189C77.487 10.0814 77.8015 10.2012 78.1702 10.2012C78.5497 10.2012 78.8642 10.0814 79.1137 9.84189C79.3631 9.60233 79.4878 9.28656 79.4878 8.89456C79.4878 8.50256 79.3631 8.18678 79.1137 7.94722C78.8642 7.70767 78.5497 7.58789 78.1702 7.58789C77.8015 7.58789 77.487 7.70767 77.2267 7.94722C76.9773 8.18678 76.8526 8.50256 76.8526 8.89456C76.8526 9.28656 76.9773 9.60233 77.2267 9.84189Z" fill="black"/>
<path fill-rule="evenodd" clip-rule="evenodd" d="M38.2956 18.8906C37.7859 19.1301 37.1895 19.2499 36.5063 19.2499H31.3335V7.81656H36.4412C37.1353 7.81656 37.7371 7.93634 38.2468 8.17589C38.7674 8.40456 39.1686 8.73667 39.4506 9.17222C39.7434 9.59689 39.8898 10.1087 39.8898 10.7076V10.8709C39.8898 11.3936 39.7922 11.8237 39.597 12.1612C39.4018 12.4879 39.1686 12.7438 38.8975 12.9289C38.6372 13.1031 38.3878 13.2283 38.1492 13.3046V13.5986C38.3878 13.6639 38.6481 13.7891 38.93 13.9742C39.212 14.1484 39.4506 14.4043 39.6458 14.7419C39.8518 15.0794 39.9548 15.5204 39.9548 16.0649V16.2282C39.9548 16.8598 39.8084 17.4042 39.5156 17.8616C39.2228 18.308 38.8162 18.651 38.2956 18.8906ZM37.3847 14.8236C37.1027 14.5949 36.7232 14.4806 36.246 14.4806H33.4807V17.2899H36.246C36.7123 17.2899 37.0865 17.1756 37.3684 16.9469C37.6612 16.7182 37.8076 16.3916 37.8076 15.9669V15.8036C37.8076 15.3789 37.6667 15.0522 37.3847 14.8236ZM37.3196 10.1196C37.0377 9.89089 36.669 9.77656 36.2135 9.77656H33.4807V12.5206H36.2135C36.6581 12.5206 37.0214 12.4062 37.3034 12.1776C37.5962 11.9489 37.7426 11.6331 37.7426 11.2302V11.0669C37.7426 10.6531 37.6016 10.3373 37.3196 10.1196Z" fill="black"/>
<path fill-rule="evenodd" clip-rule="evenodd" d="M44.7973 19.4786C43.9949 19.4786 43.2737 19.3152 42.6339 18.9886C41.9941 18.6619 41.4898 18.1882 41.1211 17.5676C40.7524 16.9469 40.568 16.201 40.568 15.3299V15.0686C40.568 14.1974 40.7524 13.4516 41.1211 12.8309C41.4898 12.2102 41.9941 11.7366 42.6339 11.4099C43.2737 11.0832 43.9949 10.9199 44.7973 10.9199C45.5998 10.9199 46.321 11.0832 46.9608 11.4099C47.6006 11.7366 48.1049 12.2102 48.4736 12.8309C48.8423 13.4516 49.0267 14.1974 49.0267 15.0686V15.3299C49.0267 16.201 48.8423 16.9469 48.4736 17.5676C48.1049 18.1882 47.6006 18.6619 46.9608 18.9886C46.321 19.3152 45.5998 19.4786 44.7973 19.4786ZM44.7973 17.6492C45.4263 17.6492 45.9469 17.4478 46.3589 17.0449C46.771 16.6311 46.9771 16.0431 46.9771 15.2809V15.1176C46.9771 14.3553 46.771 13.7728 46.3589 13.3699C45.9577 12.9561 45.4372 12.7492 44.7973 12.7492C44.1684 12.7492 43.6478 12.9561 43.2357 13.3699C42.8237 13.7728 42.6176 14.3553 42.6176 15.1176V15.2809C42.6176 16.0431 42.8237 16.6311 43.2357 17.0449C43.6478 17.4478 44.1684 17.6492 44.7973 17.6492Z" fill="black"/>
<path d="M56.7034 19.2499C56.172 19.2499 55.7382 19.0866 55.4021 18.7599C55.0767 18.4223 54.9141 17.9759 54.9141 17.4206V12.8472H52.897V11.1486H54.9141V8.63322H56.9637V11.1486H59.1759V12.8472H56.9637V17.0612C56.9637 17.3879 57.1155 17.5512 57.4191 17.5512H58.9807V19.2499H56.7034Z" fill="black"/>
<path d="M60.9824 18.7926C61.6548 19.2499 62.5169 19.4786 63.5688 19.4786C64.599 19.4786 65.4178 19.2499 66.0251 18.7926C66.6432 18.3243 66.9523 17.6656 66.9523 16.8162C66.9523 16.25 66.8059 15.8036 66.5131 15.4769C66.2311 15.1393 65.8407 14.8834 65.3419 14.7092C64.8539 14.5241 64.3062 14.3771 63.699 14.2682L63.2435 14.1866C62.8748 14.1212 62.582 14.0287 62.3651 13.9089C62.1482 13.7782 62.0398 13.5822 62.0398 13.3209C62.0398 13.0813 62.1428 12.8962 62.3488 12.7656C62.5549 12.624 62.8531 12.5532 63.2435 12.5532C63.6339 12.5532 63.9592 12.6403 64.2195 12.8146C64.4906 12.9888 64.6695 13.2828 64.7563 13.6966L66.6595 13.1086C66.4751 12.4552 66.0847 11.9271 65.4883 11.5242C64.8918 11.1213 64.1436 10.9199 63.2435 10.9199C62.2892 10.9199 61.5192 11.1377 60.9336 11.5732C60.348 11.9979 60.0552 12.6131 60.0552 13.4189C60.0552 13.9524 60.1962 14.388 60.4782 14.7256C60.7601 15.0631 61.1342 15.3299 61.6006 15.5259C62.0669 15.711 62.582 15.858 63.1459 15.9669L63.6014 16.0486C64.0785 16.1357 64.4255 16.25 64.6424 16.3916C64.8593 16.5222 64.9678 16.7128 64.9678 16.9632C64.9678 17.2137 64.8539 17.426 64.6262 17.6002C64.3984 17.7636 64.046 17.8452 63.5688 17.8452C63.2543 17.8452 62.9615 17.8017 62.6904 17.7146C62.4302 17.6166 62.2078 17.4587 62.0235 17.2409C61.85 17.0231 61.7253 16.7237 61.6494 16.3426L59.7624 16.8326C59.9034 17.6819 60.3101 18.3352 60.9824 18.7926Z" fill="black"/>
<path d="M70.5052 13.3862C70.1581 13.8 69.9846 14.3826 69.9846 15.1339V19.2499H67.935V7.81656H69.9846V12.1449H70.2774C70.3642 11.9707 70.4997 11.7964 70.6841 11.6222C70.8684 11.448 71.1124 11.3064 71.4161 11.1976C71.7306 11.0778 72.1264 11.0179 72.6036 11.0179C73.2325 11.0179 73.7802 11.1649 74.2465 11.4589C74.7236 11.742 75.0924 12.1394 75.3526 12.6512C75.6129 13.1521 75.743 13.7401 75.743 14.4152V19.2499H73.6934V14.5786C73.6934 13.9688 73.5416 13.5114 73.238 13.2066C72.9452 12.9017 72.5222 12.7492 71.9692 12.7492C71.3402 12.7492 70.8522 12.9616 70.5052 13.3862Z" fill="black"/>
<path d="M88.5549 18.7599C88.2296 18.4223 88.0669 17.9759 88.0669 17.4206V12.8472H84.0364V19.2499H81.9868V12.8472H79.9372V11.1486H81.9868V9.64589C81.9868 9.09056 82.1494 8.64956 82.4748 8.32289C82.8109 7.98534 83.2447 7.81656 83.7761 7.81656H85.8908V9.51522H84.4918C84.1882 9.51522 84.0364 9.67856 84.0364 10.0052V11.1486H88.0669V8.63322H90.1165V11.1486H92.3288V12.8472H90.1165V17.0612C90.1165 17.3879 90.2684 17.5512 90.572 17.5512H92.1336V19.2499H89.8563C89.3249 19.2499 88.8911 19.0866 88.5549 18.7599Z" fill="black"/>
<path d="M77.1454 11.1486V19.2499H79.195V11.1486H77.1454Z" fill="black"/>
<path d="M50.1052 7.81656V19.2499H52.1548V7.81656H50.1052Z" fill="black"/>
</svg>
