<svg width="107" height="28" viewBox="0 0 107 28" fill="none" xmlns="http://www.w3.org/2000/svg">
<path d="M18.3993 15.1665C18.3993 18.3882 15.825 20.9998 12.6493 20.9998C9.47368 20.9998 6.89932 18.3882 6.89932 15.1665H2.29932C2.29932 20.9655 6.93317 25.6665 12.6493 25.6665C18.3655 25.6665 22.9993 20.9655 22.9993 15.1665C22.9993 9.36751 18.3655 4.6665 12.6493 4.6665V9.33317C15.825 9.33317 18.3993 11.9448 18.3993 15.1665Z" fill="black"/>
<path opacity="0.5" d="M5.75 2.3335C5.75 5.55516 3.17564 8.16683 0 8.16683V12.8335C5.71615 12.8335 10.35 8.13249 10.35 2.3335H5.75Z" fill="black"/>
<path d="M31.3335 8.06738H39.366V10.3196H34.0897V12.5246H39.177V14.7611H34.0897V16.9976H39.492V19.2499H31.3335V8.06738Z" fill="black"/>
<path d="M40.2311 13.5326C40.5461 11.6899 41.9321 10.7134 44.2631 10.7134C46.9406 10.7134 48.2636 11.9419 48.2636 14.3831V16.7614C48.2636 17.3756 48.5156 17.4701 48.7991 17.4701H49.0826V19.2499L48.7046 19.2814C48.2636 19.2971 46.3421 19.5964 46.0586 17.9899C45.6176 18.8876 44.6726 19.4389 43.0819 19.4389C41.3809 19.4389 40.0894 18.5254 40.0894 17.0449C40.0894 15.5486 41.2076 14.9186 43.2709 14.5091L45.5074 14.0524C45.5074 12.9026 45.1136 12.3671 44.2474 12.3671C43.5229 12.3671 43.0819 12.7924 42.9401 13.6429L40.2311 13.5326ZM42.8771 16.9346C42.8771 17.4229 43.2709 17.7694 44.0111 17.7694C44.9246 17.7694 45.5546 17.0764 45.5546 15.7061V15.6274L44.3734 15.8479C43.4756 16.0054 42.8771 16.1944 42.8771 16.9346Z" fill="black"/>
<path d="M54.7523 13.6586C54.6263 12.9184 54.0435 12.4774 53.4135 12.4774C52.752 12.4774 52.2795 12.8239 52.311 13.3751C52.3425 13.9106 52.941 14.1626 53.6813 14.2886C56.343 14.6824 57.477 15.3596 57.477 16.9189C57.477 18.5884 55.9335 19.4389 53.634 19.4389C51.0353 19.4389 49.4603 18.3836 49.3185 16.5881L52.0433 16.4779C52.185 17.2181 52.7048 17.6276 53.5395 17.6276C54.1065 17.6276 54.7208 17.4071 54.6893 16.8874C54.6735 16.2731 54.012 16.1156 53.2403 15.9739C50.673 15.5014 49.5233 14.8714 49.5233 13.3751C49.5233 11.6899 50.9408 10.6976 53.4923 10.6976C55.7288 10.6976 57.1778 11.7529 57.4455 13.5641L54.7523 13.6586Z" fill="black"/>
<path d="M57.2963 10.9024H59.8163L61.7693 16.4306L63.6278 10.9024H66.1478L62.9033 19.9586C62.4938 21.1084 61.722 21.6124 60.4305 21.6124H58.7925V19.6909H59.8793C60.4148 19.6909 60.6825 19.5491 60.84 19.1554L61.0133 18.7301H60.2888L57.2963 10.9024Z" fill="black"/>
<path d="M75.4836 8.06738V10.3196H72.1761V19.2499H69.4356V10.3196H66.1281V8.06738H75.4836Z" fill="black"/>
<path d="M75.548 13.5326C75.863 11.6899 77.2491 10.7134 79.5801 10.7134C82.2575 10.7134 83.5806 11.9419 83.5806 14.3831V16.7614C83.5806 17.3756 83.8326 17.4701 84.1161 17.4701H84.3996V19.2499L84.0215 19.2814C83.5806 19.2971 81.6591 19.5964 81.3756 17.9899C80.9346 18.8876 79.9896 19.4389 78.3988 19.4389C76.6978 19.4389 75.4063 18.5254 75.4063 17.0449C75.4063 15.5486 76.5245 14.9186 78.5878 14.5091L80.8243 14.0524C80.8243 12.9026 80.4305 12.3671 79.5643 12.3671C78.8398 12.3671 78.3988 12.7924 78.2571 13.6429L75.548 13.5326ZM78.194 16.9346C78.194 17.4229 78.5878 17.7694 79.3281 17.7694C80.2416 17.7694 80.8715 17.0764 80.8715 15.7061V15.6274L79.6903 15.8479C78.7926 16.0054 78.194 16.1944 78.194 16.9346Z" fill="black"/>
<path d="M91.0431 10.8866H93.9726L91.0273 15.0131L94.0513 19.2499H91.1218L89.4838 16.6984L87.8301 19.2499H84.9006L87.9246 15.0131L84.9793 10.8866H87.8931L89.4838 13.3121L91.0431 10.8866Z" fill="black"/>
</svg>
