<svg width="98" height="28" viewBox="0 0 98 28" fill="none" xmlns="http://www.w3.org/2000/svg">
<path d="M17.1926 23.1008C16.8303 23.905 16.3799 24.6926 15.8398 25.3741C20.3202 23.8658 23.6184 19.7909 23.9815 14.9H22.3866C20.4403 14.9 18.8768 16.4516 18.5604 18.3697C18.2688 20.1378 17.8022 21.7478 17.1926 23.1008Z" fill="black"/>
<path d="M13.665 14.9C15.7028 14.9 17.3697 16.5979 16.9954 18.5986C16.1825 22.944 14.252 26 12 26C9.1504 26 6.8157 21.1071 6.60834 14.9H13.665Z" fill="black"/>
<path d="M18.6019 9.8901C18.8999 11.8261 20.4705 13.4 22.4317 13.4H24C23.7523 8.37628 20.4115 4.1649 15.8398 2.6259C16.3799 3.30735 16.8303 4.09496 17.1926 4.89917C17.832 6.3182 18.314 8.01985 18.6019 9.8901Z" fill="black"/>
<path d="M17.0556 9.73743C17.3965 11.728 15.7367 13.4 13.7148 13.4H6.6C6.74085 7.05133 9.10464 2 12 2C14.3096 2 16.281 5.21433 17.0556 9.73743Z" fill="black"/>
<path d="M5.09781 13.4C5.16605 10.155 5.78588 7.16636 6.80736 4.89917C7.16971 4.09496 7.62014 3.30735 8.16016 2.6259C3.58851 4.1649 0.24768 8.37628 0 13.4H5.09781Z" fill="black"/>
<path d="M0.0185255 14.9C0.381611 19.7909 3.67981 23.8658 8.16016 25.3741C7.62014 24.6926 7.16971 23.905 6.80736 23.1008C5.81743 20.9037 5.20473 18.029 5.10571 14.9H0.0185255Z" fill="black"/>
<path d="M31.333 19.2498V7.76807H40.1286V9.95732H33.9321V12.3986H39.3203V14.4461H33.9321V17.0606H40.1286V19.2498H31.333Z" fill="black"/>
<path d="M44.4777 19.4073C43.5374 19.4073 42.8348 19.1028 42.3699 18.4938C41.905 17.8743 41.6726 17.0606 41.6726 16.0526V10.7921H44.0973V15.7061C44.0973 16.3781 44.2294 16.8401 44.4935 17.0921C44.7682 17.3336 45.1327 17.4543 45.587 17.4543C46.1258 17.4543 46.5326 17.2758 46.8073 16.9188C47.082 16.5618 47.2193 16.0946 47.2193 15.5171V10.7921H49.6441V19.2498H47.3778L47.2035 17.8638H47.0767C46.8865 18.3258 46.559 18.6986 46.0941 18.9821C45.6398 19.2656 45.101 19.4073 44.4777 19.4073Z" fill="black"/>
<path d="M51.4636 19.2498V10.7921H53.7298L53.9041 12.1938H54.0468C54.237 11.6688 54.4905 11.2856 54.8075 11.0441C55.1244 10.7921 55.5787 10.6661 56.1704 10.6661H56.9311V13.1231H55.8376C55.1403 13.1231 54.6437 13.3016 54.3479 13.6586C54.0521 14.0051 53.9041 14.4723 53.9041 15.0603V19.2498H51.4636Z" fill="black"/>
<path d="M61.599 19.4073C60.215 19.4073 59.1849 19.0136 58.5087 18.2261C57.8325 17.4386 57.4944 16.3886 57.4944 15.0761V15.0288C57.4944 13.5378 57.8695 12.4353 58.6196 11.7213C59.3698 10.9968 60.3629 10.6346 61.599 10.6346C62.8457 10.6346 63.8441 10.9968 64.5942 11.7213C65.3549 12.4353 65.7353 13.5378 65.7353 15.0288V15.0761C65.7247 16.3886 65.3814 17.4386 64.7052 18.2261C64.029 19.0136 62.9936 19.4073 61.599 19.4073ZM61.599 17.4543C62.1378 17.4543 62.5446 17.3073 62.8193 17.0133C63.1046 16.7193 63.2472 16.3151 63.2472 15.8006V14.2886C63.2472 13.7636 63.0993 13.3541 62.8034 13.0601C62.5182 12.7556 62.1167 12.6033 61.599 12.6033C61.0919 12.6033 60.6904 12.7556 60.3946 13.0601C60.1093 13.3541 59.9667 13.7636 59.9667 14.2886V15.8006C59.9667 16.3151 60.104 16.7193 60.3787 17.0133C60.664 17.3073 61.0708 17.4543 61.599 17.4543Z" fill="black"/>
<path d="M67.0644 21.8801V10.7921H69.3782L69.505 12.0363H69.6159C69.8272 11.5953 70.1547 11.2541 70.5985 11.0126C71.0528 10.7606 71.5599 10.6346 72.1199 10.6346C73.2609 10.6346 74.0903 11.0178 74.608 11.7843C75.1257 12.5508 75.3845 13.5746 75.3845 14.8556V15.2178C75.3845 16.6773 75.0887 17.7431 74.497 18.4151C73.916 19.0766 73.1236 19.4073 72.1199 19.4073C71.5705 19.4073 71.0686 19.2866 70.6143 19.0451C70.16 18.7931 69.8272 18.4466 69.6159 18.0056H69.505V21.8801H67.0644ZM71.1373 17.4386C71.6656 17.4386 72.0723 17.2916 72.3576 16.9976C72.6428 16.7036 72.7855 16.2888 72.7855 15.7533V14.3043C72.7855 13.7688 72.6428 13.3541 72.3576 13.0601C72.0723 12.7556 71.6656 12.6033 71.1373 12.6033C70.6407 12.6033 70.2445 12.7556 69.9487 13.0601C69.6634 13.3646 69.5208 13.7898 69.5208 14.3358V15.7218C69.5208 16.2678 69.6634 16.6931 69.9487 16.9976C70.2445 17.2916 70.6407 17.4386 71.1373 17.4386Z" fill="black"/>
<path d="M78.7903 19.4073C78.0085 19.4073 77.3746 19.2026 76.8886 18.7931C76.4026 18.3731 76.1596 17.8166 76.1596 17.1236V17.0921C76.1596 16.2836 76.4184 15.6588 76.9361 15.2178C77.4538 14.7768 78.1511 14.5038 79.028 14.3988L81.4052 14.0838V13.7531C81.4052 12.9551 80.9192 12.5561 79.9472 12.5561C79.4823 12.5561 79.1126 12.6453 78.8379 12.8238C78.5737 13.0023 78.4417 13.2596 78.4417 13.5956H76.2388C76.2388 12.6611 76.5822 11.9366 77.2689 11.4221C77.9557 10.8971 78.9224 10.6346 80.1691 10.6346C81.3101 10.6346 82.2029 10.8761 82.8474 11.3591C83.5024 11.8421 83.8299 12.6086 83.8299 13.6586V17.5488H84.9393V19.2498H82.0233L81.8331 17.9426H81.6588C81.4475 18.4046 81.0935 18.7668 80.597 19.0293C80.111 19.2813 79.5087 19.4073 78.7903 19.4073ZM79.8363 17.6748C80.2589 17.6748 80.6128 17.5751 80.8981 17.3756C81.1939 17.1656 81.3629 16.8978 81.4052 16.5723V15.4383L79.8046 15.6746C79.4454 15.7166 79.1548 15.8111 78.9329 15.9581C78.7111 16.0946 78.6001 16.3046 78.6001 16.5881V16.7928C78.6001 17.0553 78.7058 17.2706 78.9171 17.4386C79.139 17.5961 79.4454 17.6748 79.8363 17.6748Z" fill="black"/>
</svg>
