<svg width="132" height="28" viewBox="0 0 132 28" fill="none" xmlns="http://www.w3.org/2000/svg">
<path d="M7.875 2.8125C7.875 7.23941 4.34924 10.8281 0 10.8281V16.1719H7.875V24.1875H13.125C13.125 19.7606 16.6508 16.1719 21 16.1719V10.8281H13.125V2.8125H7.875Z" fill="black"/>
<path d="M33.6165 19.4599C32.3798 19.4599 31.3182 19.1974 30.4315 18.6724C29.5448 18.1357 28.8623 17.3949 28.384 16.4499C27.9057 15.4932 27.6665 14.3907 27.6665 13.1424C27.6665 11.8941 27.9057 10.7916 28.384 9.8349C28.8623 8.87824 29.5448 8.13157 30.4315 7.5949C31.3182 7.05824 32.3798 6.7899 33.6165 6.7899C35.0865 6.7899 36.2882 7.1574 37.2215 7.8924C38.1665 8.61574 38.7557 9.63657 38.989 10.9549H36.5215C36.3698 10.2899 36.0432 9.77073 35.5415 9.3974C35.0515 9.0124 34.3982 8.8199 33.5815 8.8199C32.4498 8.8199 31.5632 9.2049 30.9215 9.9749C30.2798 10.7449 29.959 11.8007 29.959 13.1424C29.959 14.4841 30.2798 15.5399 30.9215 16.3099C31.5632 17.0682 32.4498 17.4474 33.5815 17.4474C34.3982 17.4474 35.0515 17.2724 35.5415 16.9224C36.0432 16.5607 36.3698 16.0649 36.5215 15.4349H38.989C38.7557 16.6949 38.1665 17.6807 37.2215 18.3924C36.2882 19.1041 35.0865 19.4599 33.6165 19.4599Z" fill="black"/>
<path d="M39.8693 19.2499V6.6499H42.1093V19.2499H39.8693Z" fill="black"/>
<path d="M47.3381 19.4599C46.5215 19.4599 45.7923 19.2616 45.1506 18.8649C44.509 18.4682 44.0015 17.9257 43.6281 17.2374C43.2548 16.5491 43.0681 15.7674 43.0681 14.8924C43.0681 14.0174 43.2548 13.2416 43.6281 12.5649C44.0015 11.8766 44.509 11.3399 45.1506 10.9549C45.7923 10.5582 46.5215 10.3599 47.3381 10.3599C47.9915 10.3599 48.5631 10.4824 49.0531 10.7274C49.5431 10.9724 49.9398 11.3166 50.2431 11.7599L50.3656 10.5699H52.4831V19.2499H50.3831L50.2431 18.0074C49.9631 18.3924 49.5898 18.7307 49.1231 19.0224C48.6681 19.3141 48.0731 19.4599 47.3381 19.4599ZM47.8106 17.4999C48.534 17.4999 49.1231 17.2607 49.5781 16.7824C50.0448 16.2924 50.2781 15.6682 50.2781 14.9099C50.2781 14.1516 50.0448 13.5332 49.5781 13.0549C49.1231 12.5649 48.534 12.3199 47.8106 12.3199C47.099 12.3199 46.5098 12.5591 46.0431 13.0374C45.5765 13.5157 45.3431 14.1341 45.3431 14.8924C45.3431 15.6507 45.5765 16.2749 46.0431 16.7649C46.5098 17.2549 47.099 17.4999 47.8106 17.4999Z" fill="black"/>
<path d="M53.7141 19.2499V10.5699H55.6917L55.8666 12.0399C56.135 11.5266 56.52 11.1182 57.0217 10.8149C57.535 10.5116 58.1358 10.3599 58.8241 10.3599C59.8975 10.3599 60.7316 10.6982 61.3266 11.3749C61.9216 12.0516 62.2191 13.0432 62.2191 14.3499V19.2499H59.9791V14.5599C59.9791 13.8132 59.8275 13.2416 59.5241 12.8449C59.2208 12.4482 58.7483 12.2499 58.1066 12.2499C57.4767 12.2499 56.9575 12.4716 56.5491 12.9149C56.1525 13.3582 55.9541 13.9766 55.9541 14.7699V19.2499H53.7141Z" fill="black"/>
<path d="M67.3011 19.4599C66.4845 19.4599 65.7553 19.2616 65.1136 18.8649C64.472 18.4682 63.9645 17.9257 63.5911 17.2374C63.2178 16.5491 63.0311 15.7674 63.0311 14.8924C63.0311 14.0174 63.2178 13.2416 63.5911 12.5649C63.9645 11.8766 64.472 11.3399 65.1136 10.9549C65.7553 10.5582 66.4845 10.3599 67.3011 10.3599C67.9545 10.3599 68.5261 10.4824 69.0161 10.7274C69.5061 10.9724 69.9028 11.3166 70.2061 11.7599V6.6499H72.4461V19.2499H70.4511L70.2061 18.0074C69.9261 18.3924 69.5528 18.7307 69.0861 19.0224C68.6311 19.3141 68.0361 19.4599 67.3011 19.4599ZM67.7736 17.4999C68.497 17.4999 69.0861 17.2607 69.5411 16.7824C70.0078 16.2924 70.2411 15.6682 70.2411 14.9099C70.2411 14.1516 70.0078 13.5332 69.5411 13.0549C69.0861 12.5649 68.497 12.3199 67.7736 12.3199C67.062 12.3199 66.4728 12.5591 66.0061 13.0374C65.5395 13.5157 65.3061 14.1341 65.3061 14.8924C65.3061 15.6507 65.5395 16.2749 66.0061 16.7649C66.4728 17.2549 67.062 17.4999 67.7736 17.4999Z" fill="black"/>
<path d="M77.8946 19.4599C77.0196 19.4599 76.2438 19.2732 75.5671 18.8999C74.8905 18.5266 74.3596 18.0016 73.9746 17.3249C73.5896 16.6482 73.3971 15.8666 73.3971 14.9799C73.3971 14.0816 73.5838 13.2824 73.9571 12.5824C74.3421 11.8824 74.8671 11.3399 75.5321 10.9549C76.2088 10.5582 77.0021 10.3599 77.9121 10.3599C78.7638 10.3599 79.5163 10.5466 80.1696 10.9199C80.823 11.2932 81.3305 11.8066 81.6921 12.4599C82.0655 13.1016 82.2521 13.8191 82.2521 14.6124C82.2521 14.7407 82.2463 14.8749 82.2346 15.0149C82.2346 15.1549 82.2288 15.3007 82.2171 15.4524H75.6196C75.6663 16.1291 75.8996 16.6599 76.3196 17.0449C76.7513 17.4299 77.2705 17.6224 77.8771 17.6224C78.3321 17.6224 78.7113 17.5232 79.0146 17.3249C79.3296 17.1149 79.563 16.8466 79.7146 16.5199H81.9896C81.8263 17.0682 81.5521 17.5699 81.1671 18.0249C80.7938 18.4682 80.3271 18.8182 79.7671 19.0749C79.2188 19.3316 78.5946 19.4599 77.8946 19.4599ZM77.9121 12.1799C77.3638 12.1799 76.8796 12.3374 76.4596 12.6524C76.0396 12.9557 75.7713 13.4224 75.6546 14.0524H79.9771C79.9421 13.4807 79.7321 13.0257 79.3471 12.6874C78.9621 12.3491 78.4838 12.1799 77.9121 12.1799Z" fill="black"/>
<path d="M86.6736 19.4599C85.9036 19.4599 85.2269 19.3374 84.6436 19.0924C84.0603 18.8357 83.5936 18.4857 83.2436 18.0424C82.8936 17.5991 82.6836 17.0857 82.6136 16.5024H84.8711C84.9411 16.8407 85.1278 17.1324 85.4311 17.3774C85.7461 17.6107 86.1486 17.7274 86.6386 17.7274C87.1286 17.7274 87.4844 17.6282 87.7061 17.4299C87.9394 17.2316 88.0561 17.0041 88.0561 16.7474C88.0561 16.3741 87.8928 16.1232 87.5661 15.9949C87.2394 15.8549 86.7844 15.7207 86.2011 15.5924C85.8278 15.5107 85.4486 15.4116 85.0636 15.2949C84.6786 15.1782 84.3228 15.0324 83.9961 14.8574C83.6811 14.6707 83.4244 14.4374 83.2261 14.1574C83.0278 13.8657 82.9286 13.5099 82.9286 13.0899C82.9286 12.3199 83.2319 11.6724 83.8386 11.1474C84.4569 10.6224 85.3203 10.3599 86.4286 10.3599C87.4553 10.3599 88.2719 10.5991 88.8786 11.0774C89.4969 11.5557 89.8644 12.2149 89.9811 13.0549H87.8636C87.7353 12.4132 87.2511 12.0924 86.4111 12.0924C85.9911 12.0924 85.6644 12.1741 85.4311 12.3374C85.2094 12.5007 85.0986 12.7049 85.0986 12.9499C85.0986 13.2066 85.2678 13.4107 85.6061 13.5624C85.9444 13.7141 86.3936 13.8541 86.9536 13.9824C87.5603 14.1224 88.1144 14.2799 88.6161 14.4549C89.1294 14.6182 89.5378 14.8691 89.8411 15.2074C90.1444 15.5341 90.2961 16.0066 90.2961 16.6249C90.3078 17.1616 90.1678 17.6457 89.8761 18.0774C89.5844 18.5091 89.1644 18.8474 88.6161 19.0924C88.0678 19.3374 87.4203 19.4599 86.6736 19.4599Z" fill="black"/>
<path d="M94.8245 19.2499C93.9145 19.2499 93.1853 19.0282 92.637 18.5849C92.0887 18.1416 91.8145 17.3541 91.8145 16.2224V12.4424H90.327V10.5699H91.8145L92.077 8.2424H94.0545V10.5699H96.3995V12.4424H94.8878C94.4276 12.4424 94.0545 12.8155 94.0545 13.2757V16.2399C94.0545 16.6599 94.142 16.9516 94.317 17.1149C94.5037 17.2666 94.8187 17.3424 95.262 17.3424H96.347V19.2499H94.8245Z" fill="black"/>
<path d="M98.4802 9.2224C98.0719 9.2224 97.7336 9.0999 97.4652 8.8549C97.2086 8.6099 97.0802 8.30074 97.0802 7.9274C97.0802 7.55407 97.2086 7.25074 97.4652 7.0174C97.7336 6.7724 98.0719 6.6499 98.4802 6.6499C98.8886 6.6499 99.2211 6.7724 99.4777 7.0174C99.7461 7.25074 99.8802 7.55407 99.8802 7.9274C99.8802 8.30074 99.7461 8.6099 99.4777 8.8549C99.2211 9.0999 98.8886 9.2224 98.4802 9.2224ZM97.3602 19.2499V10.5699H99.6002V19.2499H97.3602Z" fill="black"/>
<path d="M100.888 19.2499V10.5699H102.866L103.041 12.0399C103.309 11.5266 103.694 11.1182 104.196 10.8149C104.709 10.5116 105.31 10.3599 105.998 10.3599C107.072 10.3599 107.906 10.6982 108.501 11.3749C109.096 12.0516 109.393 13.0432 109.393 14.3499V19.2499H107.153V14.5599C107.153 13.8132 107.002 13.2416 106.698 12.8449C106.395 12.4482 105.922 12.2499 105.281 12.2499C104.651 12.2499 104.132 12.4716 103.723 12.9149C103.327 13.3582 103.128 13.9766 103.128 14.7699V19.2499H100.888Z" fill="black"/>
<path d="M114.703 19.4599C113.828 19.4599 113.052 19.2732 112.375 18.8999C111.699 18.5266 111.168 18.0016 110.783 17.3249C110.398 16.6482 110.205 15.8666 110.205 14.9799C110.205 14.0816 110.392 13.2824 110.765 12.5824C111.15 11.8824 111.675 11.3399 112.34 10.9549C113.017 10.5582 113.81 10.3599 114.72 10.3599C115.572 10.3599 116.324 10.5466 116.978 10.9199C117.631 11.2932 118.139 11.8066 118.5 12.4599C118.874 13.1016 119.06 13.8191 119.06 14.6124C119.06 14.7407 119.054 14.8749 119.043 15.0149C119.043 15.1549 119.037 15.3007 119.025 15.4524H112.428C112.474 16.1291 112.708 16.6599 113.128 17.0449C113.559 17.4299 114.079 17.6224 114.685 17.6224C115.14 17.6224 115.519 17.5232 115.823 17.3249C116.138 17.1149 116.371 16.8466 116.523 16.5199H118.798C118.634 17.0682 118.36 17.5699 117.975 18.0249C117.602 18.4682 117.135 18.8182 116.575 19.0749C116.027 19.3316 115.403 19.4599 114.703 19.4599ZM114.72 12.1799C114.172 12.1799 113.688 12.3374 113.268 12.6524C112.848 12.9557 112.579 13.4224 112.463 14.0524H116.785C116.75 13.4807 116.54 13.0257 116.155 12.6874C115.77 12.3491 115.292 12.1799 114.72 12.1799Z" fill="black"/>
</svg>
