<svg width="122" height="28" viewBox="0 0 122 28" fill="none" xmlns="http://www.w3.org/2000/svg">
<path fill-rule="evenodd" clip-rule="evenodd" d="M12 2.3335C18.6274 2.3335 24 7.55684 24 14.0002C24 20.4435 18.6274 25.6668 12 25.6668C5.37258 25.6668 0 20.4435 0 14.0002C0 7.55684 5.37258 2.3335 12 2.3335ZM21 14.0002C21 18.8327 16.9706 22.7502 12 22.7502V5.25016C16.9706 5.25016 21 9.16767 21 14.0002Z" fill="black"/>
<path d="M37.8302 7.53223C41.0432 7.53223 42.571 9.13873 42.8702 11.4697H40.555C40.2872 10.2885 39.358 9.57973 37.846 9.57973C35.8772 9.57973 34.7117 10.8397 34.7117 13.4385C34.7117 16.431 36.0977 17.4232 37.8932 17.4232C39.3895 17.4232 40.2872 16.7302 40.5707 15.5332H42.8702C42.5395 18.1005 40.7597 19.4707 37.8302 19.4707C34.318 19.4707 32.3335 17.4862 32.3335 13.5487C32.3335 10.068 34.0502 7.53223 37.8302 7.53223Z" fill="black"/>
<path d="M45.88 15.0765C45.88 16.9822 46.6045 17.6437 47.833 17.6437C49.0457 17.6437 49.7545 16.9822 49.7545 15.0765C49.7545 13.2022 49.0457 12.525 47.833 12.525C46.6045 12.525 45.88 13.2022 45.88 15.0765ZM43.5332 15.0765C43.5332 12.2415 45.0295 10.7137 47.833 10.7137C50.6365 10.7137 52.117 12.2415 52.117 15.0765C52.117 17.9272 50.6207 19.4707 47.833 19.4707C45.0295 19.4707 43.5332 17.9272 43.5332 15.0765Z" fill="black"/>
<path d="M57.932 10.7137C59.6803 10.7137 60.6883 11.4067 60.893 12.9345C60.9403 13.3597 60.956 13.7535 60.956 14.4307V19.2502H58.7038V14.3992C58.7038 13.2967 58.4045 12.588 57.1603 12.588C56.1365 12.5565 55.412 13.2652 55.412 14.8402V19.2502H53.1598V10.9342H55.223L55.3175 12.2887C55.5853 11.0602 56.5618 10.7137 57.932 10.7137Z" fill="black"/>
<path d="M65.1991 16.368C65.1991 17.5965 65.4668 17.7067 66.9631 17.628V19.329C66.4433 19.392 66.0023 19.4392 65.2621 19.4392C63.5926 19.4392 63.0571 18.762 62.9626 17.691C62.9311 17.2342 62.9311 16.9035 62.9311 16.431V12.7297H61.7341V10.95H62.9311V8.52448H65.1991V10.95H67.0576V12.7297H65.1991V16.368Z" fill="black"/>
<path d="M72.392 10.7137C72.6913 10.7137 72.8803 10.7137 73.0693 10.761V12.588C71.069 12.3832 70.1555 13.2967 70.1555 15.6435V19.2502H67.9033V10.9342H69.9665L70.061 12.525C70.2185 11.2335 71.132 10.7137 72.392 10.7137Z" fill="black"/>
<path d="M77.0492 10.7137C79.5062 10.7137 80.4197 11.769 80.53 13.2337C80.5615 13.659 80.5772 14.0527 80.5772 14.5252V19.2502H78.5455L78.4195 18.1477C78.0415 19.266 77.0492 19.4707 75.8207 19.4707C74.293 19.4707 73.096 18.6045 73.096 16.9822C73.096 14.9032 74.6867 14.1472 77.8997 14.1472H78.3565V13.848C78.3565 13.029 78.0887 12.5092 76.9547 12.5092C75.9625 12.5092 75.5215 12.8557 75.427 13.6275H73.3637C73.4267 11.832 74.5292 10.7137 77.0492 10.7137ZM75.2852 16.7145C75.2852 17.3287 75.7735 17.6752 76.5452 17.6752C77.4272 17.6752 78.3565 17.1712 78.3565 16.3522V15.6907C76.372 15.5962 75.2852 15.801 75.2852 16.7145Z" fill="black"/>
<path d="M85.0738 10.7137C87.4363 10.7137 88.4443 11.6272 88.5546 13.3755H86.3811C86.2708 12.6037 85.7511 12.4147 85.0266 12.4147C84.3651 12.4147 83.8611 12.6667 83.8611 13.1392C83.8611 13.6432 84.2706 13.9267 85.5621 14.1315C87.7513 14.4622 88.8066 15.2182 88.8066 16.8562C88.8066 18.6202 87.2001 19.4707 85.1998 19.4707C82.8373 19.4707 81.6246 18.636 81.4041 16.746H83.6091C83.7508 17.502 84.2233 17.754 85.2628 17.754C86.0818 17.754 86.5701 17.4862 86.5701 17.0452C86.5701 16.494 86.0031 16.179 84.7746 15.99C82.5696 15.6277 81.6246 14.9662 81.6246 13.281C81.6246 11.7532 82.9791 10.7137 85.0738 10.7137Z" fill="black"/>
<path d="M92.6096 16.368C92.6096 17.5965 92.8774 17.7067 94.3736 17.628V19.329C93.8539 19.392 93.4129 19.4392 92.6726 19.4392C91.0031 19.4392 90.4676 18.762 90.3731 17.691C90.3416 17.2342 90.3416 16.9035 90.3416 16.431V12.7297H89.1446V10.95H90.3416V8.52448H92.6096V10.95H94.4681V12.7297H92.6096V16.368Z" fill="black"/>
<path d="M101.675 7.75273L105.738 19.2502H103.297L102.336 16.4782H98.0993L97.1228 19.2502H94.7131L98.8553 7.75273H101.675ZM98.6506 14.5252H101.816L100.257 9.91048L98.6506 14.5252Z" fill="black"/>
<path d="M108.957 7.75273V19.2502H106.657V7.75273H108.957Z" fill="black"/>
</svg>
