<svg width="104" height="28" viewBox="0 0 104 28" fill="none" xmlns="http://www.w3.org/2000/svg">
<path opacity="0.5" fill-rule="evenodd" clip-rule="evenodd" d="M20.7528 4.9004L14.9407 3.38632C14.5395 3.28179 14.2142 3.52445 14.2142 3.9283V9.77826C14.2142 10.1821 14.5395 10.5942 14.9407 10.6988L20.7528 12.2128C21.154 12.3174 21.4793 12.0747 21.4793 11.6709V5.8209C21.4793 5.41705 21.154 5.00492 20.7528 4.9004ZM14.9407 1.19259C13.3357 0.774485 12.0347 1.7451 12.0347 3.36052V9.21048C12.0347 10.8259 13.3357 12.4744 14.9407 12.8925L20.7528 14.4066C22.3577 14.8247 23.6588 13.8541 23.6588 12.2386V6.38868C23.6588 4.77326 22.3577 3.12477 20.7528 2.70667L14.9407 1.19259Z" fill="black"/>
<path opacity="0.7" fill-rule="evenodd" clip-rule="evenodd" d="M16.187 9.66612L8.9219 7.77353C8.52066 7.669 8.19539 7.91166 8.19539 8.31551V15.628C8.19539 16.0318 8.52066 16.4439 8.9219 16.5485L16.187 18.4411C16.5882 18.5456 16.9135 18.3029 16.9135 17.8991V10.5866C16.9135 10.1828 16.5882 9.77065 16.187 9.66612ZM8.9219 5.57979C7.31694 5.16169 6.01587 6.13231 6.01587 7.74773V15.0602C6.01587 16.6756 7.31694 18.3241 8.9219 18.7422L16.187 20.6348C17.7919 21.0529 19.093 20.0823 19.093 18.4668V11.1544C19.093 9.53899 17.7919 7.89049 16.187 7.47239L8.9219 5.57979Z" fill="black"/>
<path fill-rule="evenodd" clip-rule="evenodd" d="M11.6241 14.4323L2.90603 12.1612C2.50479 12.0567 2.17952 12.2994 2.17952 12.7032V21.4781C2.17952 21.882 2.50479 22.2941 2.90603 22.3986L11.6241 24.6698C12.0254 24.7743 12.3506 24.5316 12.3506 24.1278V15.3528C12.3506 14.949 12.0254 14.5369 11.6241 14.4323ZM2.90603 9.96749C1.30108 9.54939 0 10.52 0 12.1354V20.9104C0 22.5258 1.30108 24.1743 2.90603 24.5924L11.6241 26.8635C13.2291 27.2816 14.5302 26.311 14.5302 24.6956V15.9206C14.5302 14.3052 13.2291 12.6567 11.6241 12.2386L2.90603 9.96749Z" fill="black"/>
<path d="M34.4385 19.0216C35.0971 19.3265 35.853 19.4789 36.7059 19.4789C37.5589 19.4789 38.304 19.3319 38.941 19.0379C39.5889 18.733 40.0909 18.3083 40.4472 17.7639C40.8036 17.2086 40.9817 16.5607 40.9817 15.8202V15.6242C40.9817 14.9382 40.8252 14.3829 40.512 13.9582C40.1989 13.5227 39.7994 13.2015 39.3135 12.9946C38.8384 12.7877 38.3472 12.6842 37.8397 12.6842H37.2404V12.4229L40.6578 10.5936V7.81689H32.6245V9.67889H38.3579V9.94023L34.6976 11.9002V14.1869H36.9651C37.3322 14.1869 37.6615 14.2413 37.953 14.3502C38.2446 14.4482 38.4767 14.6061 38.6495 14.8239C38.8222 15.0417 38.9086 15.3248 38.9086 15.6732V15.8366C38.9086 16.3483 38.7143 16.773 38.3256 17.1106C37.9476 17.4481 37.4078 17.6169 36.7059 17.6169C36.0149 17.6169 35.4589 17.4372 35.0378 17.0779C34.6167 16.7077 34.4061 16.2177 34.4061 15.6079V15.3792H32.333V15.6732C32.333 16.4572 32.5166 17.1378 32.8837 17.7149C33.2616 18.2811 33.7799 18.7167 34.4385 19.0216Z" fill="black"/>
<path fill-rule="evenodd" clip-rule="evenodd" d="M48.4384 8.25789C47.8985 7.96389 47.2722 7.81689 46.5596 7.81689H41.8951V19.2502H44.033V15.0689H46.5596C47.2507 15.0689 47.8661 14.9273 48.406 14.6442C48.9566 14.3502 49.3885 13.9419 49.7017 13.4192C50.0256 12.8857 50.1875 12.265 50.1875 11.5572V11.3286C50.1875 10.6099 50.031 9.98923 49.7179 9.46656C49.4155 8.94389 48.989 8.54101 48.4384 8.25789ZM47.58 12.6842C47.2668 12.9673 46.8565 13.1089 46.3491 13.1089H44.033V9.77689H46.3491C46.8565 9.77689 47.2668 9.91845 47.58 10.2016C47.8931 10.4847 48.0497 10.8712 48.0497 11.3612V11.5246C48.0497 12.0146 47.8931 12.4011 47.58 12.6842Z" fill="black"/>
<path fill-rule="evenodd" clip-rule="evenodd" d="M54.5572 19.4789C53.7582 19.4789 53.0402 19.3156 52.4031 18.9889C51.7661 18.6622 51.264 18.1886 50.8969 17.5679C50.5298 16.9472 50.3462 16.2013 50.3462 15.3302V15.0689C50.3462 14.1978 50.5298 13.4519 50.8969 12.8312C51.264 12.2106 51.7661 11.7369 52.4031 11.4102C53.0402 11.0836 53.7582 10.9202 54.5572 10.9202C55.3562 10.9202 56.0742 11.0836 56.7113 11.4102C57.3483 11.7369 57.8504 12.2106 58.2175 12.8312C58.5846 13.4519 58.7682 14.1978 58.7682 15.0689V15.3302C58.7682 16.2013 58.5846 16.9472 58.2175 17.5679C57.8504 18.1886 57.3483 18.6622 56.7113 18.9889C56.0742 19.3156 55.3562 19.4789 54.5572 19.4789ZM54.5572 17.6496C55.1834 17.6496 55.7017 17.4481 56.112 17.0452C56.5223 16.6315 56.7275 16.0435 56.7275 15.2812V15.1179C56.7275 14.3557 56.5223 13.7731 56.112 13.3702C55.7125 12.9565 55.1942 12.7496 54.5572 12.7496C53.9309 12.7496 53.4127 12.9565 53.0024 13.3702C52.5921 13.7731 52.3869 14.3557 52.3869 15.1179V15.2812C52.3869 16.0435 52.5921 16.6315 53.0024 17.0452C53.4127 17.4481 53.9309 17.6496 54.5572 17.6496Z" fill="black"/>
<path d="M62.725 11.3449C62.455 11.4973 62.2607 11.7369 62.1419 12.0636H61.8504V11.1489H59.842V19.2502H61.8828V14.6442C61.8828 14.0671 62.0501 13.6425 62.3848 13.3702C62.7196 13.0871 63.146 12.9456 63.6643 12.9456H64.6685V12.9444H66.7494V17.4209C66.7494 17.9762 66.9114 18.4227 67.2353 18.7602C67.57 19.0869 68.0019 19.2502 68.531 19.2502H70.7984V17.5516H69.2436C68.9413 17.5516 68.7901 17.3882 68.7901 17.0616V12.9444H70.9928V11.1185H68.7901V8.63356H66.7494V11.1185H64.6685V11.1162H63.6967C63.3296 11.1162 63.0057 11.1925 62.725 11.3449Z" fill="black"/>
<path fill-rule="evenodd" clip-rule="evenodd" d="M72.9858 19.1849C73.4393 19.3809 73.9522 19.4789 74.5244 19.4789C75.0859 19.4789 75.5286 19.3972 75.8525 19.2339C76.1764 19.0706 76.414 18.8855 76.5651 18.6786C76.7163 18.4608 76.8135 18.2866 76.8567 18.1559H77.1644V18.1722C77.1644 18.4989 77.294 18.7602 77.5531 18.9562C77.8122 19.1522 78.1416 19.2502 78.5411 19.2502H79.9015V17.5516H79.2537C78.9514 17.5516 78.8002 17.3882 78.8002 17.0616V14.0399C78.8002 13.0272 78.4925 12.2541 77.877 11.7206C77.2616 11.187 76.4248 10.9202 75.3666 10.9202C74.6756 10.9202 74.0871 11.0291 73.6013 11.2469C73.1262 11.4538 72.7429 11.7315 72.4513 12.0799C72.1706 12.4175 71.9654 12.7931 71.8359 13.2069L73.7146 13.8439C73.7902 13.4737 73.9522 13.1742 74.2005 12.9456C74.4488 12.706 74.8268 12.5862 75.3342 12.5862C75.8525 12.5862 76.2304 12.7115 76.468 12.9619C76.7055 13.2015 76.8243 13.5118 76.8243 13.8929V14.3502H74.6216C74.017 14.3502 73.4771 14.4482 73.002 14.6442C72.5377 14.8293 72.1706 15.1125 71.9007 15.4936C71.6415 15.8638 71.512 16.3266 71.512 16.8819C71.512 17.4372 71.6415 17.9109 71.9007 18.3029C72.1706 18.684 72.5323 18.978 72.9858 19.1849ZM76.2736 17.3392C75.9173 17.655 75.453 17.8129 74.8807 17.8129C74.4488 17.8129 74.1195 17.7203 73.8928 17.5352C73.666 17.3501 73.5527 17.1106 73.5527 16.8166C73.5527 16.5226 73.6606 16.2939 73.8766 16.1306C74.0925 15.9672 74.3895 15.8856 74.7674 15.8856H76.8243V16.0489C76.8243 16.5825 76.6407 17.0126 76.2736 17.3392Z" fill="black"/>
<path d="M84.8373 18.7929C85.5067 19.2502 86.3651 19.4789 87.4125 19.4789C88.4382 19.4789 89.2534 19.2502 89.8581 18.7929C90.4735 18.3247 90.7812 17.6659 90.7812 16.8166C90.7812 16.2503 90.6355 15.8039 90.3439 15.4772C90.0632 15.1397 89.6745 14.8838 89.1778 14.7096C88.6919 14.5245 88.1467 14.3775 87.542 14.2686L87.0885 14.1869C86.7214 14.1216 86.4299 14.029 86.2139 13.9092C85.998 13.7786 85.89 13.5826 85.89 13.3212C85.89 13.0817 85.9926 12.8966 86.1978 12.7659C86.4029 12.6243 86.6998 12.5536 87.0885 12.5536C87.4772 12.5536 87.8012 12.6407 88.0603 12.8149C88.3302 12.9891 88.5084 13.2831 88.5948 13.6969L90.4897 13.1089C90.3062 12.4556 89.9174 11.9275 89.3236 11.5246C88.7297 11.1217 87.9847 10.9202 87.0885 10.9202C86.1384 10.9202 85.3718 11.138 84.7887 11.5736C84.2056 11.9982 83.9141 12.6135 83.9141 13.4192C83.9141 13.9528 84.0545 14.3883 84.3352 14.7259C84.6159 15.0635 84.9884 15.3302 85.4527 15.5262C85.917 15.7113 86.4299 15.8583 86.9914 15.9672L87.4449 16.0489C87.9199 16.136 88.2655 16.2503 88.4814 16.3919C88.6973 16.5226 88.8053 16.7131 88.8053 16.9636C88.8053 17.214 88.6919 17.4263 88.4652 17.6006C88.2385 17.7639 87.8875 17.8456 87.4125 17.8456C87.0993 17.8456 86.8078 17.802 86.5379 17.7149C86.2787 17.6169 86.0574 17.459 85.8738 17.2412C85.7011 17.0235 85.5769 16.724 85.5013 16.3429L83.6226 16.8329C83.7629 17.6822 84.1678 18.3356 84.8373 18.7929Z" fill="black"/>
<path d="M80.5838 19.2502V7.81689H82.6245V19.2502H80.5838Z" fill="black"/>
</svg>
