<svg width="107" height="107" viewBox="0 0 107 107" fill="none" xmlns="http://www.w3.org/2000/svg">
<path d="M98.3333 16.5911H48.1667C48 15.7577 47.1667 15.2577 46.3333 15.4244C44.5 15.5911 43.5 15.0911 43.3333 14.7577C43.1667 14.4244 43.6667 13.2577 45 12.2577C45.6667 11.7577 45.8333 10.7577 45.5 10.0911C44 7.59107 42 5.4244 39.5 3.75773C39.6667 3.4244 39.5 3.4244 39.3333 3.4244C38.6667 3.09107 37.8333 3.4244 37.3333 3.9244C36.3333 5.25773 35.1667 5.75773 34.8333 5.59107C34.5 5.4244 34 4.4244 34.3333 2.59107C34.5 1.75773 34 1.09107 33.3333 0.757733C33.1667 0.757733 33.1667 0.591066 33 0.591066C30.1667 -0.0756004 27.1667 -0.242267 24.3333 0.4244C23.5 0.591066 22.8333 1.4244 23 2.25773C23.1667 4.09107 22.6667 5.09107 22.3333 5.25773C22 5.4244 20.8333 4.9244 19.8333 3.59107C19.3333 2.9244 18.3333 2.75773 17.6667 3.09107C15 4.4244 12.8333 6.59107 11.1667 9.09107C10.6667 9.75773 10.8333 10.7577 11.5 11.2577C13 12.4244 13.3333 13.4244 13.1667 13.9244C13 14.2577 11.8333 14.7577 10.1667 14.4244C9.33333 14.2577 8.5 14.7577 8.33333 15.7577C8.33333 16.0911 8.16667 16.4244 8.16667 16.5911C3.66667 16.7577 0 20.4244 0 24.9244V76.4244C0 81.0911 3.66667 84.7577 8.33333 84.7577H40.1667V92.2577H34.6667C32.3333 92.2577 30.3333 94.0911 30.3333 96.4244V102.424C30.3333 104.758 32.3333 106.591 34.6667 106.591H72C74.3333 106.591 76.3333 104.758 76.3333 102.424V96.4244C76.3333 94.0911 74.5 92.2577 72 92.2577H66.5V84.7577H98.3333C103 84.7577 106.667 81.0911 106.667 76.4244V24.9244C106.667 20.2577 103 16.5911 98.3333 16.5911ZM27.8333 9.4244H28.1667C34.1667 9.4244 39.1667 14.2577 39.3333 20.2577C39.5 26.4244 34.6667 31.5911 28.5 31.7577H28.1667C22.1667 31.7577 17.1667 26.9244 17 20.9244C16.8333 14.7577 21.6667 9.59107 27.8333 9.4244ZM49 78.0911C49 77.2577 49.6667 76.4244 50.6667 76.4244H55.8333C56.8333 76.4244 57.5 77.2577 57.5 78.0911C57.5 78.9244 56.8333 79.7577 55.8333 79.7577H50.6667C49.8333 79.7577 49 78.9244 49 78.0911ZM103.333 71.2577H3.33333V24.9244C3.33333 22.4244 5.16667 20.2577 7.66667 19.9244C7.66667 21.4244 7.83333 22.9244 8 24.4244C8.16667 25.2577 9 25.7577 9.83333 25.7577C11.6667 25.5911 12.6667 26.0911 12.8333 26.4244C13 26.7577 12.5 27.9244 11 28.9244C10.3333 29.4244 10.1667 30.4244 10.5 31.0911C12 33.5911 14 35.7577 16.5 37.4244C16.5 37.4244 16.6667 37.4244 16.6667 37.5911C17.3333 37.9244 18.1667 37.7577 18.6667 37.0911C19.6667 35.7577 20.8333 35.2577 21.3333 35.4244C21.6667 35.5911 22.1667 36.7577 21.8333 38.4244C21.6667 39.0911 22.1667 39.9244 22.8333 40.2577C23 40.2577 23 40.2577 23.1667 40.4244C24.8333 40.7577 26.3333 40.9244 28 40.9244C29.3333 40.9244 30.6667 40.7577 32 40.5911C32.8333 40.4244 33.5 39.5911 33.3333 38.7577C33.1667 36.9244 33.6667 35.9244 34 35.7577C34.3333 35.5911 35.5 36.0911 36.5 37.4244C37 38.0911 38 38.2577 38.6667 37.9244C41.1667 36.4244 43.3333 34.4244 45 31.9244C45.5 31.2577 45.3333 30.2577 44.6667 29.5911C43.3333 28.5911 42.8333 27.4244 43 27.0911C43.1667 26.7577 44.3333 26.2577 46 26.5911C46.8333 26.7577 47.6667 26.2577 47.8333 25.2577C48.3333 23.4244 48.5 21.5911 48.3333 19.7577H98.3333C101 19.7577 103.333 21.9244 103.333 24.7577V71.2577Z" fill="#2754E9"/>
<path d="M93.6631 25.2576H58.4964C55.3298 25.2576 52.6631 27.7576 52.6631 31.0909V61.4242C52.6631 64.5909 55.3298 67.2576 58.4964 67.2576H93.6631C96.8298 67.2576 99.4964 64.7576 99.4964 61.4242V31.0909C99.4964 27.7576 96.8298 25.2576 93.6631 25.2576ZM90.1631 30.9242H91.9964C92.9964 30.9242 93.6631 31.7576 93.6631 32.5909C93.6631 33.4242 92.9964 34.2576 91.9964 34.2576H90.1631C89.3298 34.2576 88.4964 33.4242 88.4964 32.5909C88.4964 31.7576 89.3298 30.9242 90.1631 30.9242ZM83.1631 30.9242H84.9964C85.9964 30.9242 86.6631 31.7576 86.6631 32.5909C86.6631 33.4242 85.9964 34.2576 84.9964 34.2576H83.1631C82.1631 34.2576 81.4964 33.4242 81.4964 32.5909C81.4964 31.7576 82.1631 30.9242 83.1631 30.9242ZM59.9964 30.9242H77.9964C78.9964 30.9242 79.6631 31.7576 79.6631 32.5909C79.6631 33.4242 78.9964 34.2576 77.9964 34.2576H59.9964C58.9964 34.2576 58.3298 33.4242 58.3298 32.5909C58.3298 31.7576 59.1631 30.9242 59.9964 30.9242ZM96.1631 61.2576C96.1631 62.5909 95.1631 63.7576 93.6631 63.7576H58.4964C57.1631 63.7576 55.9964 62.5909 55.9964 61.2576V39.7576H96.1631V61.2576Z" fill="#2754E9"/>
<path d="M71.3317 45.2568C70.665 44.5902 69.665 44.5902 68.9984 45.2568L64.165 50.0902C63.4984 50.7568 63.4984 51.7568 64.165 52.4235L68.9984 57.2568C69.3317 57.5902 69.8317 57.7568 70.165 57.7568C70.4984 57.7568 70.9984 57.5902 71.3317 57.2568C71.9984 56.5902 71.9984 55.5902 71.3317 54.9235L67.665 51.2568L71.3317 47.5902C71.9984 47.0902 71.9984 45.9235 71.3317 45.2568Z" fill="#2754E9"/>
<path d="M83.1673 45.2568C82.5007 44.5902 81.5007 44.5902 80.834 45.2568C80.1673 45.9235 80.1673 46.9235 80.834 47.5902L84.5007 51.2568L81.0006 55.0902C80.334 55.7568 80.334 56.7568 81.0006 57.4235C81.334 57.7568 81.834 57.9235 82.1673 57.9235C82.5006 57.9235 83.0007 57.7568 83.334 57.4235L88.1673 52.5902C88.834 51.9235 88.834 50.9235 88.1673 50.2568L83.1673 45.2568Z" fill="#2754E9"/>
<path d="M78.1709 43.258C77.3376 43.0913 76.3376 43.5913 76.1709 44.4247L72.8376 57.4247C72.6709 58.258 73.1709 59.258 74.0043 59.4247H74.5043C75.1709 59.4247 76.0043 58.9247 76.1709 58.258L79.5043 45.258C79.6709 44.4247 79.0043 43.5913 78.1709 43.258Z" fill="#2754E9"/>
<path d="M41.4964 52.7576H14.8298C10.8298 52.7576 7.66309 55.9242 7.66309 59.9242C7.66309 63.9242 10.8298 67.0909 14.8298 67.0909H41.4964C45.4964 67.0909 48.6631 63.9242 48.6631 59.9242C48.6631 55.9242 45.4964 52.7576 41.4964 52.7576ZM31.9964 61.5909H17.1631C16.1631 61.5909 15.4964 60.7576 15.4964 59.9242C15.4964 58.9242 16.1631 58.2576 17.1631 58.2576H31.9964C32.9964 58.2576 33.6631 58.9242 33.6631 59.9242C33.6631 60.7576 32.9964 61.5909 31.9964 61.5909Z" fill="#2754E9"/>
</svg>
