<svg width="110" height="110" viewBox="0 0 110 110" fill="none" xmlns="http://www.w3.org/2000/svg">
<path d="M99.5412 11.2305H107.363C108.301 11.2305 109.067 10.4635 109.067 9.52639V1.70414C109.067 0.766777 108.3 0 107.363 0H99.5412C98.6038 0 97.837 0.766777 97.837 1.70414V3.91961H60.1406V1.70414C60.1406 0.766777 59.3908 0 58.4364 0H50.6312C49.6768 0 48.927 0.766777 48.927 1.70414V3.91961H11.2305V1.70414C11.2305 0.766777 10.4635 0 9.52639 0H1.70414C0.766777 0 0 0.766777 0 1.70414V9.52617C0 10.4635 0.766992 11.2303 1.70414 11.2303H9.52639C10.4638 11.2303 11.2305 10.4633 11.2305 9.52617V7.32789H36.3331C17.9962 14.4343 4.82281 31.9874 4.14111 52.6421H1.8917C0.954336 52.6421 0.187559 53.4091 0.187559 54.3462V62.1685C0.187559 63.1058 0.954551 63.8726 1.8917 63.8726H9.71394C10.6513 63.8726 11.4181 63.1056 11.4181 62.1685V54.3462C11.4181 53.4089 10.6511 52.6421 9.71394 52.6421H7.54961C8.38471 29.3801 26.1764 10.3954 48.9272 7.66885V9.52639C48.9272 10.4638 49.677 11.2305 50.6314 11.2305H58.4366C59.391 11.2305 60.1408 10.4635 60.1408 9.52639V7.66885C82.8917 10.3785 100.683 29.3801 101.518 52.6421H99.5414C98.604 52.6421 97.8373 53.4091 97.8373 54.3462V62.1685C97.8373 63.1058 98.604 63.8726 99.5414 63.8726H107.363C108.301 63.8726 109.068 63.1056 109.068 62.1685V54.3462C109.068 53.4089 108.301 52.6421 107.363 52.6421H104.926C104.245 31.9874 91.0714 14.4343 72.7345 7.32789H97.837V9.52617C97.837 10.4635 98.6038 11.2305 99.5412 11.2305ZM105.659 56.0504V60.4643H101.246V56.0504H105.659Z" fill="#2754E9"/>
<path d="M80.9138 50.8688L55.8964 17.0748C55.8794 17.0578 55.8452 17.0408 55.8283 17.0236C55.5215 16.6487 55.0613 16.3931 54.533 16.3931C54.2603 16.3931 54.0047 16.4784 53.766 16.5804C53.766 16.5974 53.749 16.5974 53.749 16.5974C53.5614 16.6996 53.3911 16.8361 53.2547 17.0064C53.2207 17.0406 53.1865 17.0406 53.1524 17.0746L28.1523 50.8688C27.7944 51.329 27.7093 51.9424 27.9136 52.4879L38.3943 80.1636H37.6273C34.1849 80.1636 31.373 82.9755 31.373 86.418V93.2689C31.373 96.4898 33.827 99.1141 36.9456 99.4551V107.362C36.9456 108.3 37.7126 109.067 38.6498 109.067H70.4157C71.3531 109.067 72.1199 108.3 72.1199 107.362V99.4551C75.2385 99.1141 77.6925 96.4898 77.6925 93.2689V86.418C77.6925 82.9755 74.8806 80.1636 71.4382 80.1636H70.6712L81.1519 52.4877C81.3569 51.9424 81.2716 51.3288 80.9138 50.8688ZM54.533 48.9941C55.4873 48.9941 56.2713 49.7779 56.2713 50.7324C56.2713 51.7037 55.4873 52.4707 54.533 52.4707C53.5786 52.4707 52.7949 51.7037 52.7949 50.7324C52.7949 49.7781 53.5786 48.9941 54.533 48.9941ZM68.7118 105.658H40.3541V99.5232H68.7118V105.658ZM67.0246 80.1636H42.0413L31.4413 52.1469L52.8288 23.244V45.9096C50.8349 46.6083 49.3864 48.5 49.3864 50.7324C49.3864 53.5784 51.6869 55.879 54.533 55.879C57.379 55.879 59.6796 53.5784 59.6796 50.7324C59.6796 48.5 58.2311 46.6083 56.2371 45.9096V23.261L77.6246 52.1469L67.0246 80.1636Z" fill="#2754E9"/>
</svg>
