<svg width="128" height="128" viewBox="0 0 128 128" fill="none" xmlns="http://www.w3.org/2000/svg">
<path d="M33.9593 32.7208L21.3265 10.7105C21.018 10.1738 20.4585 9.85376 19.8418 9.85376C19.225 9.85376 18.6653 10.1735 18.357 10.7105L5.40428 33.269C5.39278 33.2918 5.39278 33.3148 5.38153 33.3375C5.33578 33.429 5.29003 33.5203 5.26728 33.623C5.25578 33.6573 5.23303 33.6915 5.23303 33.7258C5.19878 33.8515 5.17578 33.9885 5.17578 34.1255V105.125C5.17578 113.52 11.8005 120.351 19.933 120.351C28.077 120.351 34.6903 113.52 34.6903 105.125V34.1258C34.6903 33.543 34.4048 33.029 33.9593 32.7208ZM31.2638 96.6728H8.60228V35.839H31.2638V96.6728Z" fill="#2754E9"/>
<path d="M121.77 33.9084L96.8129 8.70016C96.1277 8.01491 95.2482 7.64941 94.2887 7.64941H53.3407C47.0584 7.64941 41.9414 13.0407 41.9414 19.6769V106.656C41.9414 113.292 47.0587 118.683 53.3407 118.683H111.422C117.704 118.683 122.821 113.292 122.821 106.656V36.4559C122.821 35.5189 122.467 34.6509 121.77 33.9084ZM119.394 106.656C119.394 111.396 115.819 115.256 111.422 115.256H53.3407C48.9432 115.256 45.3679 111.396 45.3679 106.656V19.6767C45.3679 14.9252 48.9429 11.0759 53.3407 11.0759H90.6794C90.6679 11.1444 90.6567 11.2017 90.6567 11.2814V36.4784C90.6567 38.4659 92.2787 40.0877 94.2659 40.0877H119.212C119.28 40.0877 119.337 40.0764 119.394 40.0764V106.656Z" fill="#2754E9"/>
<path d="M112.473 50.6644V71.5897C112.473 72.5377 111.708 73.3029 110.76 73.3029H89.8343C88.8863 73.3029 88.1211 72.5377 88.1211 71.5897V50.6644C88.1211 49.7164 88.8863 48.9512 89.8343 48.9512H110.76C111.708 48.9512 112.473 49.7164 112.473 50.6644Z" fill="#2754E9"/>
<path d="M76.3153 63.9588C77.862 57.4157 73.8116 50.8577 67.2685 49.3111C60.7255 47.7644 54.1675 51.8148 52.6208 58.3578C51.0741 64.9009 55.1245 71.4589 61.6676 73.0056C68.2106 74.5522 74.7686 70.5019 76.3153 63.9588Z" fill="#2754E9"/>
<path d="M96.4968 88.6659L89.9976 95.0052L91.5281 103.937C91.6423 104.588 91.3796 105.228 90.8541 105.616C90.3173 106.004 89.6206 106.05 89.0493 105.753L81.0196 101.538L72.9671 105.753C72.7158 105.879 72.4531 105.947 72.1791 105.947C71.8251 105.947 71.4708 105.833 71.1626 105.616C70.6371 105.228 70.3746 104.588 70.4888 103.937L72.0193 95.0052L65.5316 88.6659C65.0633 88.2089 64.8918 87.5237 65.0976 86.9069C65.3031 86.2902 65.8401 85.8332 66.4796 85.7419L75.4573 84.4397L79.4778 76.3072C79.7748 75.7247 80.3688 75.3477 81.0198 75.3477C81.6708 75.3477 82.2648 75.7247 82.5503 76.3072L86.5593 84.4397L95.5486 85.7419C96.1996 85.8334 96.7366 86.2902 96.9306 86.9069C97.1366 87.5352 96.9651 88.2089 96.4968 88.6659Z" fill="#2754E9"/>
</svg>
