<svg width="96" height="107" viewBox="0 0 96 107" fill="none" xmlns="http://www.w3.org/2000/svg">
<path d="M25.8363 65.9995H16.6696C15.6696 65.9995 15.0029 66.6662 15.0029 67.6662C15.0029 68.6662 15.6696 69.3328 16.6696 69.3328H25.8363C26.8363 69.3328 27.5029 68.6662 27.5029 67.6662C27.5029 66.6662 26.6696 65.9995 25.8363 65.9995Z" fill="#2754E9"/>
<path d="M27.3363 56.0002H16.6696C15.6696 56.0002 15.0029 56.6669 15.0029 57.6669C15.0029 58.6669 15.6696 59.3336 16.6696 59.3336H27.3363C28.3363 59.3336 29.0029 58.6669 29.0029 57.6669C29.0029 56.6669 28.1696 56.0002 27.3363 56.0002Z" fill="#2754E9"/>
<path d="M90.6667 3.5C88.3333 1.66667 84.8333 2 83 4.33333L61.3333 30.3333V9C61.3333 4 57.3333 0 52.3333 0H9C4 0 0 4 0 9V94.5V97.8333C0 102.833 4 106.833 9 106.833H52.3333C57.3333 106.833 61.3333 102.833 61.3333 97.8333V54.5C61.3333 54.3333 61.3333 54 61.1667 53.8333L70.3333 41C70.8333 40.6667 71.1667 40.3333 71.1667 39.8333L91.8333 11C93.5 8.66667 93.1667 5.33333 90.6667 3.5ZM35.3333 101.333H25.8333C24.8333 101.333 24.1667 100.667 24.1667 99.6667C24.1667 98.6667 24.8333 98 25.8333 98H35.3333C36.3333 98 37 98.6667 37 99.6667C37 100.5 36.3333 101.333 35.3333 101.333ZM58 34.3333L42.5 52.8333C39.1667 53.6667 36.3333 56.5 34.1667 61.5C33.8333 62.3333 33.3333 64.3333 32.6667 68C31.8333 72 31 76.8333 29.8333 80.1667C29.6667 80.6667 29.8333 81.3333 30.1667 81.6667C30.5 82 31 82.3333 31.5 82.3333H31.6667C32.1667 82.3333 43.5 81 49.6667 73C52.8333 69 54 65.6667 54.3333 63.1667L58 58.1667V92.6667H3.33333V9C3.33333 5.83333 5.83333 3.33333 9 3.33333H16.5V4C16.5 7.66667 19.5 10.5 23 10.5H38.1667C41.8333 10.5 44.6667 7.5 44.6667 4V3.33333H52.1667C55.3333 3.33333 57.8333 5.83333 57.8333 9V34.3333H58ZM47 71C43.3333 75.8333 37.1667 77.8333 33.8333 78.6667C34.6667 75.5 35.3333 71.8333 36 68.6667C36.5 66.1667 37 63.5 37.3333 62.8333C39 59 41.1667 56.6667 43.5 56C45.6667 55.5 47.8333 56.6667 49.3333 57.8333C53.3333 61.5 49.6667 67.6667 47 71Z" fill="#2754E9"/>
<path d="M43.6676 23.6657V36.999C43.6676 37.999 43.001 38.6657 42.001 38.6657H19.1676C18.1676 38.6657 17.501 37.999 17.501 36.999V23.6657C17.501 22.8324 18.1676 21.999 19.1676 21.999H42.001C43.001 21.999 43.6676 22.6657 43.6676 23.6657Z" fill="#2754E9"/>
<path d="M16.6696 49.1666H36.5029C37.5029 49.1666 38.1696 48.4999 38.1696 47.4999C38.1696 46.4999 37.5029 45.8333 36.5029 45.8333H16.6696C15.6696 45.8333 15.0029 46.4999 15.0029 47.4999C15.0029 48.4999 15.6696 49.1666 16.6696 49.1666Z" fill="#2754E9"/>
<path d="M83.3346 43C82.3346 43 81.668 43.6667 81.668 44.6667V84C81.668 85 82.3346 85.6667 83.3346 85.6667C84.3346 85.6667 85.0013 85 85.0013 84V44.6667C85.0013 43.6667 84.168 43 83.3346 43Z" fill="#2754E9"/>
<path d="M93.6647 27.8335C92.6647 27.8335 91.998 28.5002 91.998 29.5002V83.8335C91.998 84.8335 92.6647 85.5002 93.6647 85.5002C94.6647 85.5002 95.3314 84.8335 95.3314 83.8335V29.5002C95.3314 28.5002 94.498 27.8335 93.6647 27.8335Z" fill="#2754E9"/>
<path d="M72.8337 58.5C71.8337 58.5 71.167 59.1667 71.167 60.1667V84C71.167 85 71.8337 85.6667 72.8337 85.6667C73.8337 85.6667 74.5003 85 74.5003 84V60.1667C74.5003 59.1667 73.8337 58.5 72.8337 58.5Z" fill="#2754E9"/>
</svg>
