<svg width="105" height="98" viewBox="0 0 105 98" fill="none" xmlns="http://www.w3.org/2000/svg">
<path d="M104.767 8.85C104.767 4.68333 101.883 1.18333 98 0.25C97.3333 0.0833335 96.6333 0 95.9167 0H16.1C11.2167 0 7.25 3.96667 7.25 8.85V25.4H5.45C2.45 25.4 0 27.85 0 30.85V83.2167C0 86.2167 2.45 88.6667 5.45 88.6667H7.23333C7.23333 93.55 11.2167 97.5167 16.0833 97.5167H95.9C100.783 97.5167 104.75 93.55 104.75 88.6667V19.45V8.85H104.767ZM93.8667 10.5333C93.8667 12.3667 92.35 13.8833 90.5 13.8833H53.5167C51.6667 13.8833 50.15 12.3833 50.15 10.5167C50.15 8.66667 51.65 7.15 53.5167 7.15H90.5C92.3333 7.15 93.8667 8.65 93.8667 10.5333ZM37.6667 10.5167C37.6667 12.3667 36.1667 13.8833 34.3 13.8833C32.4667 13.8833 30.9333 12.3833 30.9333 10.5167C30.9333 8.66667 32.45 7.15 34.3 7.15C36.1667 7.15 37.6667 8.65 37.6667 10.5167ZM24.8833 10.5167C24.8833 12.3667 23.3833 13.8833 21.5167 13.8833C19.6667 13.8833 18.15 12.3833 18.15 10.5167C18.15 8.66667 19.65 7.15 21.5167 7.15C23.3833 7.15 24.8833 8.65 24.8833 10.5167ZM3.18333 83.2167V30.85C3.18333 29.6 4.2 28.5833 5.45 28.5833H8.8H8.81667H8.83333H16.4833C17.7333 28.5833 18.75 29.6 18.75 30.85V83.2167C18.75 84.4667 17.7333 85.4833 16.4833 85.4833H5.45C4.2 85.4833 3.18333 84.4667 3.18333 83.2167ZM95.9 94.3333H16.1C12.9667 94.3333 10.4167 91.7833 10.4167 88.6667H16.5C19.5 88.6667 21.95 86.2167 21.95 83.2167V30.85C21.95 27.85 19.5 25.4 16.5 25.4H10.4167V21.0333H101.583V88.65C101.583 91.7833 99.0333 94.3333 95.9 94.3333Z" fill="#2754E9"/>
<path d="M87.4321 71.65L89.8821 69.2C90.6488 68.4333 90.8821 67.35 90.5321 66.3167C90.1821 65.3 89.2988 64.5833 88.2321 64.4667L73.5821 62.7167C72.7155 62.6 71.8821 62.9 71.2655 63.5167C70.6655 64.1167 70.3821 64.9667 70.4655 65.8333L72.2155 80.4833C72.3488 81.5667 73.0488 82.4333 74.0655 82.8C75.0821 83.15 76.1988 82.9 76.9488 82.1333L79.3655 79.7167L86.6821 87.0333C87.2155 87.5667 87.9321 87.85 88.6488 87.85C89.3655 87.85 90.0821 87.5833 90.6321 87.0333L94.7488 82.9C95.8488 81.8167 95.8488 80.05 94.7488 78.9667L87.4321 71.65Z" fill="#2754E9"/>
<path d="M54.996 62.7159C54.3627 61.7659 53.2961 61.1992 52.1461 61.1992C50.9961 61.1992 49.9294 61.7659 49.2961 62.7159L39.7627 76.9159C39.0461 77.9659 38.9794 79.3159 39.5794 80.4492C40.1794 81.5659 41.346 82.2659 42.6127 82.2659H61.6961C62.9627 82.2659 64.1294 81.5659 64.7294 80.4492C65.3294 79.3326 65.2627 77.9659 64.546 76.9159L54.996 62.7159ZM61.9127 78.9492C61.8461 79.0825 61.7127 79.0826 61.6794 79.0826H42.596C42.5627 79.0826 42.446 79.0825 42.3627 78.9492C42.2794 78.8159 42.3627 78.7159 42.3794 78.6825L51.9127 64.4825C51.9627 64.3992 52.0294 64.3659 52.1294 64.3659C52.2294 64.3659 52.2961 64.3992 52.3461 64.4825L61.8794 78.6825C61.9127 78.7159 61.9794 78.8159 61.9127 78.9492Z" fill="#2754E9"/>
<path d="M82.3673 53.6828C82.6007 52.7995 82.484 51.8662 82.0173 51.0828L73.1006 35.6495C72.1506 34.0161 70.0506 33.4495 68.4006 34.3995L59.184 39.7328C57.5673 32.9328 51.434 27.8828 44.234 27.8828C35.7507 27.8828 28.834 34.7828 28.834 43.2495C28.834 51.7328 35.734 58.6495 44.234 58.6495C48.3673 58.6495 52.3006 56.9495 55.1673 54.0328L60.6173 63.4662C61.2506 64.5662 62.4173 65.1828 63.6006 65.1828C64.184 65.1828 64.7673 65.0328 65.3173 64.7162L80.7673 55.7828C81.5673 55.2995 82.134 54.5661 82.3673 53.6828ZM44.234 55.4495C37.5007 55.4495 32.0173 49.9661 32.0173 43.2328C32.0173 36.5161 37.5007 31.0495 44.234 31.0495C50.2673 31.0495 55.384 35.5161 56.284 41.3828L52.934 43.3161C52.7507 43.4161 52.6006 43.5495 52.434 43.6661C52.4173 43.6828 52.4006 43.6828 52.384 43.6995C52.284 43.7828 52.2006 43.8828 52.1173 43.9828C52.0506 44.0495 51.984 44.1161 51.9173 44.1995C51.8673 44.2661 51.834 44.3495 51.784 44.4161C51.7006 44.5328 51.6173 44.6495 51.5673 44.7828C51.5506 44.8328 51.534 44.8828 51.5173 44.9161C51.4506 45.0661 51.384 45.2328 51.334 45.3995C51.1006 46.2828 51.2173 47.2161 51.6673 47.9995L53.484 51.1495C51.2006 53.8661 47.8173 55.4495 44.234 55.4495ZM79.184 53.0162L63.734 61.9495C63.6007 62.0161 63.4506 61.9828 63.3673 61.8495L54.4507 46.4161C54.4007 46.2995 54.434 46.1328 54.5506 46.0661L58.784 43.6161C58.8006 43.5995 58.8173 43.5828 58.834 43.5828L70.0006 37.1328C70.0506 37.1161 70.084 37.0995 70.134 37.0995C70.2173 37.0995 70.3173 37.1495 70.3673 37.2328L79.284 52.6661C79.334 52.7495 79.3173 52.8161 79.3173 52.8661C79.284 52.8995 79.2507 52.9662 79.184 53.0162Z" fill="#2754E9"/>
<path d="M13.3852 34.1489H8.55189C7.85189 34.1489 7.26855 34.7156 7.26855 35.4323V40.2656C7.26855 40.9656 7.83522 41.5489 8.55189 41.5489H13.3852C14.0852 41.5489 14.6686 40.9823 14.6686 40.2656V35.4156C14.6686 34.7156 14.1019 34.1489 13.3852 34.1489Z" fill="#2754E9"/>
<path d="M13.3852 46.9502H8.55189C7.85189 46.9502 7.26855 47.5169 7.26855 48.2335V53.0669C7.26855 53.7669 7.83522 54.3502 8.55189 54.3502H13.3852C14.0852 54.3502 14.6686 53.7835 14.6686 53.0669V48.2335C14.6686 47.5169 14.1019 46.9502 13.3852 46.9502Z" fill="#2754E9"/>
<path d="M13.3852 59.7334H8.55189C7.85189 59.7334 7.26855 60.3001 7.26855 61.0167V65.8501C7.26855 66.5501 7.83522 67.1334 8.55189 67.1334H13.3852C14.0852 67.1334 14.6686 66.5667 14.6686 65.8501V61.0167C14.6686 60.3167 14.1019 59.7334 13.3852 59.7334Z" fill="#2754E9"/>
<path d="M13.3852 72.5344H8.55189C7.85189 72.5344 7.26855 73.1011 7.26855 73.8178V78.6511C7.26855 79.3511 7.83522 79.9344 8.55189 79.9344H13.3852C14.0852 79.9344 14.6686 79.3678 14.6686 78.6511V73.8178C14.6686 73.1011 14.1019 72.5344 13.3852 72.5344Z" fill="#2754E9"/>
</svg>
