<svg width="48" height="48" viewBox="0 0 48 48" fill="none" xmlns="http://www.w3.org/2000/svg">
<g opacity="0.4">
<path d="M10.4227 36.0459L15.4764 44.9669C16.0343 45.9545 17.2584 46.4183 18.3839 45.9475L21.4285 44.6515C22.7069 44.0995 23.1946 42.5765 22.5257 41.3943L17.657 32.8025C21.4501 31.0676 25.144 30.1596 29.1222 31.3006L29.1839 31.431C29.8423 32.8091 31.3543 33.2987 32.6192 32.7338C33.9222 32.1372 34.4914 30.6012 33.8947 29.3052L31.1244 23.2297C32.3313 21.8652 32.64 19.9179 31.865 18.231C31.0971 16.5372 29.417 15.4949 27.6068 15.5155H27.5999L24.8296 9.44012C24.2244 8.12871 22.6963 7.57038 21.3942 8.16462C20.1782 8.72668 19.4834 10.1785 20.1598 11.6824L20.1873 11.7372V11.744C19.0167 14.2881 17.1294 16.2414 14.7084 17.7372C14.7084 17.7372 14.7016 17.7372 14.6947 17.744C12.7737 19.0129 12.0713 19.1464 5.00565 22.4206C2.56447 23.5316 1.49471 26.4184 2.59879 28.8596L4.67636 33.3852C5.70106 35.644 8.21436 36.685 10.4227 36.0459ZM30.6376 18.7863C31.0971 19.7876 31.0147 20.919 30.4799 21.824L28.2444 16.9212C29.2799 17.1064 30.1851 17.7852 30.6376 18.7863ZM20.9073 13.3143L28.4021 29.7305C24.9394 29.024 21.9084 29.7305 19.1313 30.7041L14.1049 19.6847C16.6491 18.224 19.1656 16.3932 20.9073 13.3143ZM16.4021 33.3783L21.3324 42.0733C21.5983 42.5248 21.4316 43.1474 20.8867 43.3898L17.8422 44.6858C17.4101 44.8709 16.9027 44.6995 16.6697 44.2882L11.7049 35.5247L16.4021 33.3783Z" fill="white"/>
<path d="M30.3823 11.7578L33.2348 10.4825L37.1983 11.3465C38.028 11.5317 38.8508 11.0036 39.0359 10.1669L40.0782 5.38065C40.2565 4.55096 39.7285 3.72814 38.8988 3.54298L31.3628 1.9042C30.5263 1.71904 29.6966 2.24705 29.5183 3.07674L28.476 7.86301C28.2977 8.69956 28.8257 9.52239 29.6623 9.70754L30.2383 9.83109L29.9022 11.374C29.8454 11.6433 30.1072 11.8829 30.3823 11.7578ZM32.7823 4.70196C33.3582 4.2836 34.1537 4.43444 34.5445 5.01737C34.5651 5.04482 34.5788 5.07897 34.5925 5.10643C34.62 5.08584 34.6474 5.06524 34.6818 5.04482C35.2645 4.66078 36.0599 4.83221 36.4235 5.44242C36.7731 6.02534 36.54 6.77953 35.9777 7.15671L34.2016 8.32925C34.0302 8.43907 33.804 8.39103 33.6942 8.22646L32.5217 6.4504C32.1513 5.88824 32.2337 5.09956 32.7823 4.70196Z" fill="white"/>
<path d="M35.7877 27.7963L36.2952 27.9746L35.8152 29.3392C35.7285 29.6161 35.9929 29.8147 36.2061 29.7437L38.949 28.9003L42.4666 30.1346C43.2003 30.3951 44.0163 30.0043 44.2769 29.2637L45.758 25.0192C46.0186 24.2854 45.6278 23.4763 44.894 23.2158L38.2083 20.8774C37.4677 20.6169 36.6586 21.0008 36.3981 21.7414L34.91 25.9791C34.6564 26.7266 35.0404 27.5357 35.7877 27.7963ZM38.7844 26.2466L39.5112 24.1758C39.6209 23.8672 40.0255 23.8054 40.2243 24.0659L41.39 25.6362C41.5615 25.8694 41.4449 26.2054 41.1638 26.2741L39.2712 26.7746C38.9558 26.8568 38.6746 26.5552 38.7844 26.2466Z" fill="white"/>
<path d="M39.8604 18.9715L41.6226 17.6824L44.4615 17.6893C45.0512 17.6893 45.538 17.2092 45.538 16.6127L45.5517 13.191C45.5517 12.5943 45.0649 12.1075 44.4752 12.1075L39.0855 12.0938C38.4821 12.0938 37.9951 12.5739 37.9951 13.1704L37.9883 16.5921C37.9883 17.1887 38.4683 17.6756 39.0718 17.6756H39.4832L39.4763 18.7795C39.4763 18.9912 39.724 19.0851 39.8604 18.9715ZM40.6146 14.0824H43.2135C43.5906 14.0824 43.8992 14.391 43.8992 14.7681C43.8992 15.1453 43.5906 15.4539 43.2135 15.4539H40.6146C40.2306 15.4539 39.9289 15.1453 39.9289 14.7681C39.9289 14.391 40.2306 14.0824 40.6146 14.0824Z" fill="white"/>
</g>
</svg>
