<svg width="48" height="48" viewBox="0 0 48 48" fill="none" xmlns="http://www.w3.org/2000/svg">
<g opacity="0.4">
<path d="M14.4734 29.5273H10.4734C10.037 29.5273 9.74609 29.8183 9.74609 30.2546C9.74609 30.691 10.037 30.9819 10.4734 30.9819H14.4734C14.9097 30.9819 15.2006 30.691 15.2006 30.2546C15.2006 29.8183 14.837 29.5273 14.4734 29.5273Z" fill="white"/>
<path d="M15.1279 25.1641H10.4734C10.037 25.1641 9.74609 25.455 9.74609 25.8913C9.74609 26.3277 10.037 26.6186 10.4734 26.6186H15.1279C15.5643 26.6186 15.8552 26.3277 15.8552 25.8913C15.8552 25.455 15.4915 25.1641 15.1279 25.1641Z" fill="white"/>
<path d="M42.7629 2.25481C41.7447 1.45481 40.2174 1.60027 39.4174 2.61845L29.9629 13.9639V4.65481C29.9629 2.47299 28.2174 0.727539 26.0356 0.727539H7.12649C4.94467 0.727539 3.19922 2.47299 3.19922 4.65481V41.9639V43.4184C3.19922 45.6003 4.94467 47.3457 7.12649 47.3457H26.0356C28.2174 47.3457 29.9629 45.6003 29.9629 43.4184V24.5094C29.9629 24.4366 29.9629 24.2912 29.8901 24.2184L33.8901 18.6184C34.1083 18.473 34.2538 18.3275 34.2538 18.1094L43.2719 5.52754C43.9992 4.50936 43.8538 3.05481 42.7629 2.25481ZM18.6174 44.9457H14.4719C14.0356 44.9457 13.7447 44.6548 13.7447 44.2184C13.7447 43.7821 14.0356 43.4912 14.4719 43.4912H18.6174C19.0538 43.4912 19.3447 43.7821 19.3447 44.2184C19.3447 44.5821 19.0538 44.9457 18.6174 44.9457ZM28.5083 15.7094L21.7447 23.7821C20.2901 24.1457 19.0538 25.3821 18.1083 27.5639C17.9629 27.9275 17.7447 28.8003 17.4538 30.4003C17.0901 32.1457 16.7265 34.2548 16.2174 35.7094C16.1447 35.9275 16.2174 36.2184 16.3629 36.3639C16.5083 36.5094 16.7265 36.6548 16.9447 36.6548H17.0174C17.2356 36.6548 22.181 36.073 24.872 32.5821C26.2538 30.8366 26.7629 29.3821 26.9083 28.2912L28.5083 26.1094V41.1639H4.65376V4.65481C4.65376 3.27299 5.74467 2.18208 7.12649 2.18208H10.3992V2.47299C10.3992 4.07299 11.7083 5.30936 13.2356 5.30936H19.8538C21.4538 5.30936 22.6901 4.00027 22.6901 2.47299V2.18208H25.9629C27.3447 2.18208 28.4356 3.27299 28.4356 4.65481V15.7094H28.5083ZM23.7083 31.7094C22.1083 33.8184 19.4174 34.6912 17.9629 35.0548C18.3265 33.673 18.6174 32.073 18.9083 30.6912C19.1265 29.6003 19.3447 28.4366 19.4901 28.1457C20.2174 26.473 21.1629 25.4548 22.181 25.1639C23.1265 24.9457 24.0719 25.4548 24.7265 25.9639C26.4719 27.5639 24.8719 30.2548 23.7083 31.7094Z" fill="white"/>
<path d="M22.2541 11.0544V16.8726C22.2541 17.309 21.9632 17.5999 21.5268 17.5999H11.5632C11.1268 17.5999 10.8359 17.309 10.8359 16.8726V11.0544C10.8359 10.6908 11.1268 10.3271 11.5632 10.3271H21.5268C21.9632 10.3271 22.2541 10.6181 22.2541 11.0544Z" fill="white"/>
<path d="M10.4734 22.1821H19.1279C19.5643 22.1821 19.8552 21.8912 19.8552 21.4548C19.8552 21.0184 19.5643 20.7275 19.1279 20.7275H10.4734C10.037 20.7275 9.74609 21.0184 9.74609 21.4548C9.74609 21.8912 10.037 22.1821 10.4734 22.1821Z" fill="white"/>
<path d="M39.5632 19.4912C39.1268 19.4912 38.8359 19.7821 38.8359 20.2185V37.3821C38.8359 37.8185 39.1268 38.1094 39.5632 38.1094C39.9996 38.1094 40.2905 37.8185 40.2905 37.3821V20.2185C40.2905 19.7821 39.9268 19.4912 39.5632 19.4912Z" fill="white"/>
<path d="M44.071 12.873C43.6347 12.873 43.3438 13.164 43.3438 13.6003V37.3094C43.3438 37.7458 43.6347 38.0367 44.071 38.0367C44.5074 38.0367 44.7983 37.7458 44.7983 37.3094V13.6003C44.7983 13.164 44.4347 12.873 44.071 12.873Z" fill="white"/>
<path d="M34.9812 26.2549C34.5448 26.2549 34.2539 26.5458 34.2539 26.9822V37.3822C34.2539 37.8185 34.5448 38.1094 34.9812 38.1094C35.4175 38.1094 35.7085 37.8185 35.7085 37.3822V26.9822C35.7085 26.5458 35.4175 26.2549 34.9812 26.2549Z" fill="white"/>
</g>
</svg>
