<svg width="48" height="48" viewBox="0 0 48 48" fill="none" xmlns="http://www.w3.org/2000/svg">
<g opacity="0.4" clip-path="url(#clip0_593_350)">
<path d="M43.6393 5.10372H47.0525C47.4616 5.10372 47.7962 4.76903 47.7962 4.36009V0.94675C47.7962 0.537719 47.4615 0.203125 47.0525 0.203125H43.6393C43.2303 0.203125 42.8957 0.537719 42.8957 0.94675V1.9135H26.4463V0.94675C26.4463 0.537719 26.1191 0.203125 25.7027 0.203125H22.2967C21.8803 0.203125 21.5531 0.537719 21.5531 0.94675V1.9135H5.10372V0.94675C5.10372 0.537719 4.76903 0.203125 4.36009 0.203125H0.94675C0.537719 0.203125 0.203125 0.537719 0.203125 0.94675V4.36C0.203125 4.76903 0.537813 5.10363 0.94675 5.10363H4.36009C4.76913 5.10363 5.10372 4.76894 5.10372 4.36V3.40075H16.0576C8.056 6.50172 2.30763 14.1613 2.01016 23.1742H1.02859C0.619563 23.1742 0.284969 23.5089 0.284969 23.9178V27.3312C0.284969 27.7402 0.619656 28.0748 1.02859 28.0748H4.44194C4.85097 28.0748 5.18556 27.7401 5.18556 27.3312V23.9178C5.18556 23.5088 4.85087 23.1742 4.44194 23.1742H3.4975C3.86191 13.0235 11.6255 4.73931 21.5532 3.54953V4.36009C21.5532 4.76913 21.8804 5.10372 22.2968 5.10372H25.7027C26.1192 5.10372 26.4464 4.76903 26.4464 4.36009V3.54953C36.374 4.73191 44.1377 13.0235 44.502 23.1742H43.6394C43.2303 23.1742 42.8958 23.5089 42.8958 23.9178V27.3312C42.8958 27.7402 43.2303 28.0748 43.6394 28.0748H47.0526C47.4617 28.0748 47.7962 27.7401 47.7962 27.3312V23.9178C47.7962 23.5088 47.4616 23.1742 47.0526 23.1742H45.9892C45.6918 14.1613 39.9434 6.50172 31.9418 3.40075H42.8957V4.36C42.8957 4.76903 43.2303 5.10372 43.6393 5.10372ZM46.309 24.6615V26.5876H44.383V24.6615H46.309Z" fill="white"/>
<path d="M35.5108 22.4004L24.5941 7.65391C24.5867 7.64651 24.5718 7.6391 24.5644 7.6316C24.4305 7.46801 24.2297 7.35645 23.9992 7.35645C23.8802 7.35645 23.7687 7.39366 23.6645 7.4382C23.6645 7.4456 23.6571 7.4456 23.6571 7.4456C23.5753 7.49023 23.5009 7.54976 23.4414 7.6241C23.4266 7.63901 23.4117 7.63901 23.3968 7.65382L12.4876 22.4004C12.3314 22.6012 12.2943 22.8689 12.3835 23.1069L16.9569 35.1836H16.6222C15.12 35.1836 13.893 36.4106 13.893 37.9128V40.9023C13.893 42.3078 14.9638 43.4529 16.3247 43.6017V47.0522C16.3247 47.4612 16.6594 47.7958 17.0683 47.7958H30.9298C31.3389 47.7958 31.6735 47.4611 31.6735 47.0522V43.6017C33.0343 43.4529 34.1052 42.3078 34.1052 40.9023V37.9128C34.1052 36.4106 32.8782 35.1836 31.376 35.1836H31.0413L35.6147 23.1068C35.7042 22.8689 35.6669 22.6011 35.5108 22.4004ZM23.9992 21.5824C24.4156 21.5824 24.7577 21.9244 24.7577 22.3409C24.7577 22.7647 24.4156 23.0994 23.9992 23.0994C23.5828 23.0994 23.2408 22.7647 23.2408 22.3409C23.2408 21.9244 23.5828 21.5824 23.9992 21.5824ZM30.1863 46.3085H17.8121V43.6314H30.1863V46.3085ZM29.4501 35.1836H18.5483L13.9228 22.9581L23.2556 10.3459V20.2364C22.3855 20.5413 21.7534 21.3667 21.7534 22.3409C21.7534 23.5828 22.7573 24.5867 23.9992 24.5867C25.2411 24.5867 26.245 23.5828 26.245 22.3409C26.245 21.3667 25.6129 20.5413 24.7428 20.2364V10.3534L34.0755 22.9581L29.4501 35.1836Z" fill="white"/>
</g>
<defs>
<clipPath id="clip0_593_350">
<rect width="48" height="48" fill="white"/>
</clipPath>
</defs>
</svg>
