<svg width="48" height="48" viewBox="0 0 48 48" fill="none" xmlns="http://www.w3.org/2000/svg">
<g opacity="0.4">
<path d="M46.857 6.58936C46.857 4.77118 45.5988 3.2439 43.9043 2.83663C43.6134 2.7639 43.3079 2.72754 42.9952 2.72754H8.16608C6.03517 2.72754 4.30426 4.45845 4.30426 6.58936V13.8112H3.51881C2.20972 13.8112 1.14062 14.8803 1.14062 16.1894V39.0403C1.14062 40.3494 2.20972 41.4184 3.51881 41.4184H4.29699C4.29699 43.5494 6.03517 45.2803 8.15881 45.2803H42.9879C45.1188 45.2803 46.8497 43.5494 46.8497 41.4184V11.2148V6.58936H46.857ZM42.1006 7.3239C42.1006 8.1239 41.4388 8.78572 40.6315 8.78572H24.4934C23.6861 8.78572 23.0243 8.13118 23.0243 7.31663C23.0243 6.50936 23.6788 5.84754 24.4934 5.84754H40.6315C41.4315 5.84754 42.1006 6.50208 42.1006 7.3239ZM17.577 7.31663C17.577 8.1239 16.9224 8.78572 16.1079 8.78572C15.3079 8.78572 14.6388 8.13118 14.6388 7.31663C14.6388 6.50936 15.3006 5.84754 16.1079 5.84754C16.9224 5.84754 17.577 6.50208 17.577 7.31663ZM11.9988 7.31663C11.9988 8.1239 11.3443 8.78572 10.5297 8.78572C9.72244 8.78572 9.06063 8.13118 9.06063 7.31663C9.06063 6.50936 9.71517 5.84754 10.5297 5.84754C11.3443 5.84754 11.9988 6.50208 11.9988 7.31663ZM2.52972 39.0403V16.1894C2.52972 15.6439 2.97335 15.2003 3.51881 15.2003H4.98062H4.9879H4.99517H8.33335C8.87881 15.2003 9.32244 15.6439 9.32244 16.1894V39.0403C9.32244 39.5857 8.87881 40.0294 8.33335 40.0294H3.51881C2.97335 40.0294 2.52972 39.5857 2.52972 39.0403ZM42.9879 43.8912H8.16608C6.79881 43.8912 5.68608 42.7785 5.68608 41.4184H8.34063C9.64972 41.4184 10.7188 40.3494 10.7188 39.0403V16.1894C10.7188 14.8803 9.64972 13.8112 8.34063 13.8112H5.68608V11.9057H45.4679V41.4112C45.4679 42.7785 44.3552 43.8912 42.9879 43.8912Z" fill="white"/>
<path d="M39.2927 33.993L40.3618 32.9239C40.6963 32.5893 40.7981 32.1166 40.6454 31.6657C40.4927 31.2221 40.1072 30.9093 39.6418 30.8584L33.249 30.0948C32.8709 30.0439 32.5072 30.1748 32.2381 30.4439C31.9763 30.7057 31.8527 31.0766 31.889 31.4548L32.6527 37.8475C32.7109 38.3203 33.0163 38.6984 33.46 38.8584C33.9036 39.0112 34.3909 38.9021 34.7181 38.5675L35.7727 37.513L38.9654 40.7057C39.1981 40.9384 39.5109 41.0621 39.8236 41.0621C40.1363 41.0621 40.449 40.9457 40.689 40.7057L42.4854 38.9021C42.9654 38.4293 42.9654 37.6584 42.4854 37.1857L39.2927 33.993Z" fill="white"/>
<path d="M25.139 30.0944C24.8627 29.6799 24.3972 29.4326 23.8954 29.4326C23.3936 29.4326 22.9281 29.6799 22.6518 30.0944L18.4918 36.2908C18.179 36.749 18.15 37.3381 18.4118 37.8326C18.6736 38.3199 19.1827 38.6253 19.7354 38.6253H28.0627C28.6154 38.6253 29.1245 38.3199 29.3863 37.8326C29.6481 37.3453 29.619 36.749 29.3063 36.2908L25.139 30.0944ZM28.1572 37.1781C28.1281 37.2363 28.07 37.2363 28.0554 37.2363H19.7281C19.7136 37.2363 19.6627 37.2363 19.6263 37.1781C19.59 37.1199 19.6263 37.0763 19.6336 37.0617L23.7936 30.8653C23.8154 30.829 23.8445 30.8144 23.8881 30.8144C23.9318 30.8144 23.9609 30.829 23.9827 30.8653L28.1427 37.0617C28.1572 37.0763 28.1863 37.1199 28.1572 37.1781Z" fill="white"/>
<path d="M37.0827 26.1527C37.1845 25.7673 37.1336 25.36 36.9299 25.0182L33.039 18.2836C32.6245 17.5709 31.7081 17.3236 30.9881 17.7382L26.9663 20.0654C26.2608 17.0982 23.5845 14.8945 20.4427 14.8945C16.7408 14.8945 13.7227 17.9054 13.7227 21.6C13.7227 25.3018 16.7336 28.32 20.4427 28.32C22.2463 28.32 23.9627 27.5782 25.2136 26.3054L27.5917 30.4218C27.8681 30.9018 28.3772 31.1709 28.8936 31.1709C29.1481 31.1709 29.4027 31.1054 29.6427 30.9673L36.3845 27.0691C36.7336 26.8582 36.9808 26.5382 37.0827 26.1527ZM20.4427 26.9236C17.5045 26.9236 15.1117 24.5309 15.1117 21.5927C15.1117 18.6618 17.5045 16.2763 20.4427 16.2763C23.0754 16.2763 25.3081 18.2254 25.7008 20.7854L24.239 21.6291C24.159 21.6727 24.0936 21.7309 24.0208 21.7818C24.0136 21.7891 24.0063 21.7891 23.999 21.7963C23.9554 21.8327 23.919 21.8763 23.8827 21.92C23.8536 21.9491 23.8245 21.9782 23.7954 22.0145C23.7736 22.0436 23.759 22.08 23.7372 22.1091C23.7008 22.16 23.6645 22.2109 23.6427 22.2691C23.6354 22.2909 23.6281 22.3127 23.6208 22.3273C23.5917 22.3927 23.5627 22.4654 23.5408 22.5382C23.439 22.9236 23.4899 23.3309 23.6863 23.6727L24.479 25.0473C23.4827 26.2327 22.0063 26.9236 20.4427 26.9236ZM35.6936 25.8618L28.9517 29.76C28.8936 29.7891 28.8281 29.7745 28.7917 29.7164L24.9008 22.9818C24.879 22.9309 24.8936 22.8582 24.9445 22.8291L26.7917 21.76C26.799 21.7527 26.8063 21.7454 26.8136 21.7454L31.6863 18.9309C31.7081 18.9236 31.7227 18.9163 31.7445 18.9163C31.7808 18.9163 31.8245 18.9382 31.8463 18.9745L35.7372 25.7091C35.759 25.7454 35.7517 25.7745 35.7517 25.7964C35.7372 25.8109 35.7227 25.84 35.6936 25.8618Z" fill="white"/>
<path d="M6.98159 17.6289H4.8725C4.56705 17.6289 4.3125 17.8762 4.3125 18.1889V20.298C4.3125 20.6035 4.55977 20.858 4.8725 20.858H6.98159C7.28705 20.858 7.54159 20.6107 7.54159 20.298V18.1816C7.54159 17.8762 7.29432 17.6289 6.98159 17.6289Z" fill="white"/>
<path d="M6.98159 23.2148H4.8725C4.56705 23.2148 4.3125 23.4621 4.3125 23.7748V25.8839C4.3125 26.1894 4.55977 26.4439 4.8725 26.4439H6.98159C7.28705 26.4439 7.54159 26.1967 7.54159 25.8839V23.7748C7.54159 23.4621 7.29432 23.2148 6.98159 23.2148Z" fill="white"/>
<path d="M6.98159 28.793H4.8725C4.56705 28.793 4.3125 29.0402 4.3125 29.353V31.4621C4.3125 31.7675 4.55977 32.0221 4.8725 32.0221H6.98159C7.28705 32.0221 7.54159 31.7748 7.54159 31.4621V29.353C7.54159 29.0475 7.29432 28.793 6.98159 28.793Z" fill="white"/>
<path d="M6.98159 34.3789H4.8725C4.56705 34.3789 4.3125 34.6262 4.3125 34.9389V37.048C4.3125 37.3535 4.55977 37.608 4.8725 37.608H6.98159C7.28705 37.608 7.54159 37.3607 7.54159 37.048V34.9389C7.54159 34.6262 7.29432 34.3789 6.98159 34.3789Z" fill="white"/>
</g>
</svg>
