<svg width="45" height="43" viewBox="0 0 45 43" fill="none" xmlns="http://www.w3.org/2000/svg">
<path d="M10.7938 9.40179L6.05653 1.14794C5.94084 0.94666 5.73103 0.82666 5.49975 0.82666C5.26847 0.82666 5.05856 0.946566 4.94297 1.14794L0.0856876 9.60738C0.0813751 9.61591 0.081375 9.62454 0.0771562 9.63307C0.06 9.66738 0.0428439 9.7016 0.0343126 9.74013C0.0300001 9.75297 0.0214688 9.76582 0.0214688 9.77866C0.00862501 9.82582 0 9.87719 0 9.92857V36.5534C0 39.7016 2.48428 42.2629 5.53397 42.2629C8.58797 42.2629 11.0679 39.7016 11.0679 36.5534V9.92866C11.0679 9.71013 10.9609 9.51738 10.7938 9.40179ZM9.783 33.3838H1.28494V10.5711H9.783V33.3838Z" fill="#757575"/>
<path d="M43.7229 9.84712L34.3639 0.394031C34.107 0.137062 33.7771 0 33.4173 0H18.0618C15.706 0 13.7871 2.02172 13.7871 4.51031V37.1274C13.7871 39.616 15.7061 41.6377 18.0618 41.6377H39.8422C42.198 41.6377 44.1169 39.616 44.1169 37.1274V10.8024C44.1169 10.4511 43.9842 10.1256 43.7229 9.84712ZM42.832 37.1273C42.832 38.9048 41.4914 40.3526 39.8423 40.3526H18.0618C16.4128 40.3526 15.072 38.9048 15.072 37.1273V4.51022C15.072 2.72841 16.4127 1.28494 18.0618 1.28494H32.0639C32.0595 1.31063 32.0553 1.33209 32.0553 1.362V10.8109C32.0553 11.5562 32.6636 12.1643 33.4088 12.1643H42.7635C42.7891 12.1643 42.8106 12.1601 42.832 12.1601V37.1273Z" fill="#757575"/>
<path d="M40.2364 16.1307V23.9777C40.2364 24.3332 39.9494 24.6202 39.5939 24.6202H31.747C31.3915 24.6202 31.1045 24.3332 31.1045 23.9777V16.1307C31.1045 15.7752 31.3915 15.4883 31.747 15.4883H39.5939C39.9494 15.4883 40.2364 15.7752 40.2364 16.1307Z" fill="#757575"/>
<path d="M26.6778 21.1161C27.2578 18.6625 25.7389 16.2032 23.2853 15.6232C20.8316 15.0432 18.3724 16.5621 17.7924 19.0158C17.2124 21.4694 18.7313 23.9287 21.1849 24.5087C23.6386 25.0887 26.0978 23.5698 26.6778 21.1161Z" fill="#757575"/>
<path d="M34.2454 30.3811L31.8082 32.7583L32.3821 36.1078C32.425 36.3519 32.3264 36.5918 32.1294 36.7374C31.9281 36.883 31.6668 36.9002 31.4526 36.7888L28.4414 35.2083L25.4217 36.7888C25.3275 36.8359 25.229 36.8616 25.1262 36.8616C24.9935 36.8616 24.8606 36.8188 24.7451 36.7374C24.548 36.5918 24.4496 36.3519 24.4924 36.1078L25.0663 32.7583L22.6334 30.3811C22.4578 30.2097 22.3935 29.9527 22.4707 29.7214C22.5477 29.4902 22.7491 29.3188 22.9889 29.2846L26.3556 28.7962L27.8633 25.7465C27.9746 25.5281 28.1974 25.3867 28.4415 25.3867C28.6856 25.3867 28.9084 25.5281 29.0155 25.7465L30.5188 28.7962L33.8898 29.2846C34.1339 29.3189 34.3353 29.4902 34.4081 29.7214C34.4853 29.957 34.421 30.2097 34.2454 30.3811Z" fill="#757575"/>
</svg>
