<svg width="48" height="48" viewBox="0 0 48 48" fill="none" xmlns="http://www.w3.org/2000/svg">
<g opacity="0.48" clip-path="url(#clip0_593_365)">
<path d="M43.6357 7.92724H21.7447C21.672 7.5636 21.3084 7.34542 20.9447 7.41815C20.1447 7.49087 19.7084 7.27269 19.6357 7.12724C19.5629 6.98178 19.7811 6.47269 20.3629 6.03633C20.6538 5.81815 20.7266 5.38178 20.5811 5.09087C19.9266 3.99997 19.0538 3.05451 17.9629 2.32724C18.0357 2.18178 17.9629 2.18178 17.8902 2.18178C17.5993 2.03633 17.2357 2.18178 17.0175 2.39997C16.5811 2.98178 16.072 3.19997 15.9266 3.12724C15.7811 3.05451 15.5629 2.61815 15.7084 1.81815C15.7811 1.45451 15.5629 1.1636 15.272 1.01815C15.1993 1.01815 15.1993 0.94542 15.1266 0.94542C13.8902 0.654511 12.5811 0.581784 11.3447 0.872693C10.9811 0.94542 10.6902 1.30906 10.7629 1.67269C10.8357 2.47269 10.6175 2.90906 10.472 2.98178C10.3266 3.05451 9.81747 2.83633 9.38111 2.25451C9.16293 1.9636 8.72656 1.89087 8.43565 2.03633C7.27202 2.61815 6.32656 3.5636 5.59929 4.65451C5.38111 4.94542 5.45384 5.38178 5.74474 5.59997C6.39929 6.10906 6.54474 6.54542 6.47202 6.7636C6.39929 6.90906 5.8902 7.12724 5.16293 6.98178C4.79929 6.90906 4.43565 7.12724 4.36293 7.5636C4.36293 7.70906 4.2902 7.85451 4.2902 7.92724C2.32656 7.99997 0.726562 9.59997 0.726562 11.5636V34.0363C0.726562 36.0727 2.32656 37.6727 4.36293 37.6727H18.2538V40.9454H15.8538C14.8357 40.9454 13.9629 41.7454 13.9629 42.7636V45.3818C13.9629 46.4 14.8357 47.2 15.8538 47.2H32.1447C33.1629 47.2 34.0357 46.4 34.0357 45.3818V42.7636C34.0357 41.7454 33.2357 40.9454 32.1447 40.9454H29.7447V37.6727H43.6357C45.672 37.6727 47.272 36.0727 47.272 34.0363V11.5636C47.272 9.52724 45.672 7.92724 43.6357 7.92724ZM12.872 4.79997H13.0175C15.6357 4.79997 17.8175 6.90906 17.8902 9.52724C17.9629 12.2181 15.8538 14.4727 13.1629 14.5454H13.0175C10.3993 14.5454 8.21747 12.4363 8.14474 9.81815C8.07202 7.12724 10.1811 4.87269 12.872 4.79997ZM22.1084 34.7636C22.1084 34.4 22.3993 34.0363 22.8357 34.0363H25.0902C25.5266 34.0363 25.8175 34.4 25.8175 34.7636C25.8175 35.1272 25.5266 35.4909 25.0902 35.4909H22.8357C22.472 35.4909 22.1084 35.1272 22.1084 34.7636ZM45.8175 31.7818H2.18111V11.5636C2.18111 10.4727 2.98111 9.52724 4.07202 9.38178C4.07202 10.0363 4.14474 10.6909 4.21747 11.3454C4.2902 11.7091 4.65384 11.9272 5.01747 11.9272C5.81747 11.8545 6.25384 12.0727 6.32656 12.2181C6.39929 12.3636 6.18111 12.8727 5.52656 13.3091C5.23565 13.5272 5.16293 13.9636 5.30838 14.2545C5.96293 15.3454 6.83565 16.2909 7.92656 17.0181C7.92656 17.0181 7.99929 17.0181 7.99929 17.0909C8.2902 17.2363 8.65384 17.1636 8.87202 16.8727C9.30838 16.2909 9.81747 16.0727 10.0357 16.1454C10.1811 16.2181 10.3993 16.7272 10.2538 17.4545C10.1811 17.7454 10.3993 18.1091 10.6902 18.2545C10.7629 18.2545 10.7629 18.2545 10.8357 18.3272C11.5629 18.4727 12.2175 18.5454 12.9447 18.5454C13.5266 18.5454 14.1084 18.4727 14.6902 18.4C15.0538 18.3272 15.3447 17.9636 15.272 17.6C15.1993 16.8 15.4175 16.3636 15.5629 16.2909C15.7084 16.2181 16.2175 16.4363 16.6538 17.0181C16.872 17.3091 17.3084 17.3818 17.5993 17.2363C18.6902 16.5818 19.6357 15.7091 20.3629 14.6181C20.5811 14.3272 20.5084 13.8909 20.2175 13.6C19.6357 13.1636 19.4175 12.6545 19.4902 12.5091C19.5629 12.3636 20.072 12.1454 20.7993 12.2909C21.1629 12.3636 21.5266 12.1454 21.5993 11.7091C21.8175 10.9091 21.8902 10.1091 21.8175 9.30906H43.6357C44.7993 9.30906 45.8175 10.2545 45.8175 11.4909V31.7818Z" fill="white"/>
<path d="M41.5979 11.709H26.2525C24.8707 11.709 23.707 12.7999 23.707 14.2544V27.4908C23.707 28.8726 24.8707 30.0363 26.2525 30.0363H41.5979C42.9798 30.0363 44.1434 28.9453 44.1434 27.4908V14.2544C44.1434 12.7999 42.9798 11.709 41.5979 11.709ZM40.0707 14.1817H40.8707C41.307 14.1817 41.5979 14.5453 41.5979 14.909C41.5979 15.2726 41.307 15.6363 40.8707 15.6363H40.0707C39.707 15.6363 39.3434 15.2726 39.3434 14.909C39.3434 14.5453 39.707 14.1817 40.0707 14.1817ZM37.0161 14.1817H37.8161C38.2525 14.1817 38.5434 14.5453 38.5434 14.909C38.5434 15.2726 38.2525 15.6363 37.8161 15.6363H37.0161C36.5798 15.6363 36.2889 15.2726 36.2889 14.909C36.2889 14.5453 36.5798 14.1817 37.0161 14.1817ZM26.907 14.1817H34.7616C35.1979 14.1817 35.4889 14.5453 35.4889 14.909C35.4889 15.2726 35.1979 15.6363 34.7616 15.6363H26.907C26.4707 15.6363 26.1798 15.2726 26.1798 14.909C26.1798 14.5453 26.5434 14.1817 26.907 14.1817ZM42.6889 27.4181C42.6889 27.9999 42.2525 28.509 41.5979 28.509H26.2525C25.6707 28.509 25.1616 27.9999 25.1616 27.4181V18.0363H42.6889V27.4181Z" fill="white"/>
<path d="M31.8533 20.436C31.5624 20.145 31.126 20.145 30.8351 20.436L28.726 22.545C28.4351 22.836 28.4351 23.2723 28.726 23.5632L30.8351 25.6723C30.9805 25.8178 31.1987 25.8905 31.3442 25.8905C31.4896 25.8905 31.7078 25.8178 31.8533 25.6723C32.1442 25.3814 32.1442 24.945 31.8533 24.6541L30.2533 23.0541L31.8533 21.4541C32.1442 21.236 32.1442 20.7269 31.8533 20.436Z" fill="white"/>
<path d="M37.0176 20.436C36.7267 20.145 36.2903 20.145 35.9994 20.436C35.7085 20.7269 35.7085 21.1632 35.9994 21.4541L37.5994 23.0541L36.0722 24.7269C35.7812 25.0178 35.7812 25.4541 36.0722 25.745C36.2176 25.8905 36.4358 25.9632 36.5812 25.9632C36.7267 25.9632 36.9449 25.8905 37.0903 25.745L39.1994 23.636C39.4903 23.345 39.4903 22.9087 39.1994 22.6178L37.0176 20.436Z" fill="white"/>
<path d="M34.8373 19.5637C34.4737 19.491 34.0373 19.7092 33.9646 20.0728L32.51 25.7456C32.4373 26.1092 32.6555 26.5456 33.0191 26.6183H33.2373C33.5282 26.6183 33.8918 26.4001 33.9646 26.1092L35.4191 20.4365C35.4918 20.0728 35.2009 19.7092 34.8373 19.5637Z" fill="white"/>
<path d="M18.8339 23.709H7.19759C5.45213 23.709 4.07031 25.0908 4.07031 26.8363C4.07031 28.5817 5.45213 29.9635 7.19759 29.9635H18.8339C20.5794 29.9635 21.9612 28.5817 21.9612 26.8363C21.9612 25.0908 20.5794 23.709 18.8339 23.709ZM14.6885 27.5635H8.21577C7.7794 27.5635 7.48849 27.1999 7.48849 26.8363C7.48849 26.3999 7.7794 26.109 8.21577 26.109H14.6885C15.1249 26.109 15.4158 26.3999 15.4158 26.8363C15.4158 27.1999 15.1249 27.5635 14.6885 27.5635Z" fill="white"/>
</g>
<defs>
<clipPath id="clip0_593_365">
<rect width="48" height="48" fill="white"/>
</clipPath>
</defs>
</svg>
