<svg width="16" height="16" viewBox="0 0 16 16" fill="none" xmlns="http://www.w3.org/2000/svg">
<path d="M7.96875 0C6.39268 0 4.85201 0.467359 3.54155 1.34298C2.2311 2.21859 1.20972 3.46314 0.606589 4.91924C0.00345285 6.37534 -0.154355 7.97759 0.153121 9.52338C0.460597 11.0692 1.21955 12.4891 2.334 13.6035C3.44845 14.718 4.86834 15.4769 6.41413 15.7844C7.95991 16.0919 9.56216 15.9341 11.0183 15.3309C12.4744 14.7278 13.7189 13.7064 14.5945 12.396C15.4701 11.0855 15.9375 9.54482 15.9375 7.96875C15.9375 5.85531 15.0979 3.82842 13.6035 2.33399C12.1091 0.839562 10.0822 0 7.96875 0Z" fill="white"/>
<path d="M12.5168 6.64906L7.72477 11.6797C7.59426 11.8167 7.43745 11.926 7.26372 12.001C7.08998 12.076 6.9029 12.1151 6.71367 12.1161H6.70758C6.51945 12.1161 6.33324 12.0783 6.15997 12.0051C5.9867 11.9318 5.82989 11.8245 5.69883 11.6895L3.1568 9.07063C3.01855 8.94039 2.90813 8.78349 2.83218 8.60941C2.75622 8.43533 2.71633 8.24766 2.71488 8.05774C2.71344 7.86781 2.75049 7.67956 2.82379 7.50435C2.89709 7.32913 3.00513 7.17058 3.14138 7.03826C3.27763 6.90594 3.43927 6.80259 3.61656 6.73444C3.79384 6.6663 3.98309 6.63477 4.17289 6.64177C4.3627 6.64877 4.54911 6.69414 4.7209 6.77515C4.89269 6.85616 5.04628 6.97113 5.17242 7.11313L6.69586 8.68297L10.4782 4.71078C10.6055 4.57693 10.7579 4.46945 10.9267 4.39448C11.0955 4.31952 11.2774 4.27854 11.462 4.27388C11.6467 4.26923 11.8304 4.30098 12.0028 4.36734C12.1752 4.4337 12.3328 4.53336 12.4666 4.66062C12.6005 4.78789 12.708 4.94028 12.7829 5.10909C12.8579 5.27789 12.8989 5.45981 12.9035 5.64446C12.9082 5.8291 12.8764 6.01285 12.8101 6.18522C12.7437 6.35759 12.6441 6.51521 12.5168 6.64906Z" fill="black"/>
</svg>
