<svg width="88" height="88" viewBox="0 0 88 88" fill="none" xmlns="http://www.w3.org/2000/svg">
<path d="M86.1765 69.8308C86.1758 69.8301 86.1751 69.8294 86.1744 69.8287C71.9333 55.5854 71.934 32.4118 86.1765 18.1692L88 16.3457L71.6543 0L69.8308 1.82372C55.5877 16.0668 32.4123 16.0668 18.1692 1.82372L16.3457 0L0 16.3457L1.82354 18.1692C1.82423 18.1699 1.82492 18.1706 1.82561 18.1713C16.0666 32.4146 16.066 55.5882 1.82354 69.8308L0 71.6545L16.3455 88L18.1691 86.1765C18.1698 86.1758 18.1704 86.1751 18.1711 86.1744C32.4144 71.9335 55.5882 71.9342 69.8306 86.1763L71.6541 87.9998L87.9997 71.6543L86.1765 69.8308ZM70.3189 44.0001C70.3189 49.659 71.4409 55.1447 73.5759 60.2063C69.3913 57.813 64.9234 55.9272 60.2758 54.6136C59.6744 54.4436 59.0702 54.2835 58.4641 54.1327C56.9061 45.847 57.2848 37.2367 59.5771 29.127C61.859 21.0538 66.0286 13.5705 71.6976 7.33785L80.7605 16.4007C74.0083 24.0245 70.3189 33.7287 70.3189 44.0001ZM34.9506 34.9491C37.9476 35.4054 40.9776 35.6353 44.009 35.6353C47.0323 35.6353 50.0568 35.4068 53.0502 34.9508C52.1388 40.9374 52.1364 47.0561 53.0494 53.0504C47.0629 52.139 40.9441 52.1366 34.9499 53.0495C35.8614 47.0626 35.8638 40.9436 34.9506 34.9491ZM16.4009 7.2395C24.0245 13.9917 33.7287 17.6811 44.0001 17.6811C49.659 17.6811 55.1449 16.5589 60.2063 14.424C57.8128 18.6085 55.9272 23.0764 54.6136 27.724C54.4436 28.3254 54.2835 28.9295 54.1327 29.5357C45.847 31.0938 37.2367 30.7148 29.127 28.4228C21.0538 26.1408 13.5707 21.9712 7.33802 16.3022L16.4009 7.2395ZM17.6811 44.0001C17.6811 38.3412 16.5591 32.8554 14.4242 27.7938C18.6087 30.1872 23.0766 32.0729 27.7242 33.3865C28.3255 33.5566 28.9296 33.7154 29.5357 33.8662C31.0939 42.1523 30.7153 50.763 28.4229 58.8732C26.141 66.9464 21.9714 74.4297 16.3024 80.6623L7.2395 71.5995C13.9917 63.9757 17.6811 54.2715 17.6811 44.0001ZM71.5993 80.7607C63.9755 74.0084 54.2715 70.3191 44.0001 70.3191C38.3412 70.3191 32.8554 71.4411 27.7938 73.576C30.1872 69.3915 32.0729 64.9236 33.3865 60.276C33.5566 59.6746 33.7166 59.0704 33.8674 58.4641C42.153 56.9061 50.7633 57.2848 58.8732 59.5771C66.9464 61.859 74.4295 66.0286 80.6622 71.6976L71.5993 80.7607Z" fill="url(#paint0_linear_421_1763)"/>
<defs>
<linearGradient id="paint0_linear_421_1763" x1="44" y1="0" x2="44" y2="88" gradientUnits="userSpaceOnUse">
<stop stop-color="white" stop-opacity="0.26"/>
<stop offset="1" stop-opacity="0"/>
</linearGradient>
</defs>
</svg>
