<svg width="168" height="168" viewBox="0 0 168 168" fill="none" xmlns="http://www.w3.org/2000/svg">
<g clip-path="url(#clip0_421_1907)">
<path d="M64.2617 130.067C61.5483 130.067 59.3398 127.859 59.3398 125.145C59.3398 122.427 57.1365 120.223 54.418 120.223C51.6994 120.223 49.4961 122.427 49.4961 125.145C49.4961 131.581 53.6361 137.064 59.3924 139.081V143.391C59.3924 146.109 61.5957 148.312 64.3143 148.312C67.0328 148.312 69.2361 146.109 69.2361 143.391V139.046C74.9373 137 79.0273 131.542 79.0273 125.145C79.0273 117.003 72.4033 110.379 64.2617 110.379C61.5483 110.379 59.3398 108.171 59.3398 105.458C59.3398 102.743 61.5483 100.536 64.2617 100.536C66.9752 100.536 69.1836 102.743 69.1836 105.458C69.1836 108.176 71.3869 110.379 74.1055 110.379C76.824 110.379 79.0273 108.176 79.0273 105.458C79.0273 99.0604 74.9373 93.6028 69.2361 91.5558V84.3281C69.2361 81.6096 67.0328 79.4062 64.3143 79.4062C61.5957 79.4062 59.3924 81.6096 59.3924 84.3281V91.52C53.6361 93.5374 49.4961 99.0207 49.4961 105.458C49.4961 113.599 56.1201 120.223 64.2617 120.223C66.9752 120.223 69.1836 122.43 69.1836 125.145C69.1836 127.859 66.9752 130.067 64.2617 130.067Z" fill="#353535"/>
<path d="M20.0618 159.962C30.3041 165.445 44.3661 168 64.3125 168C80.5419 168 92.7568 166.318 102.247 162.742C104.958 165.954 109.009 168 113.531 168H153.234C161.376 168 168 161.376 168 153.234C168 149.456 166.571 146.005 164.228 143.391C166.572 140.776 168 137.325 168 133.547C168 129.768 166.571 126.318 164.228 123.703C166.572 121.088 168 117.638 168 113.859C168 110.081 166.571 106.63 164.228 104.016C166.572 101.401 168 97.9504 168 94.1719C168 86.0303 161.376 79.4062 153.234 79.4062H113.531C113.052 79.4062 112.578 79.4306 112.11 79.4767C107.17 73.4936 101.382 68.4769 95.0037 64.6291C97.3403 62.0169 98.7656 58.5703 98.7656 54.7969C98.7656 48.915 95.3075 43.8265 90.3177 41.454L98.5234 16.2922C99.0117 14.7925 98.7528 13.1506 97.8274 11.8753C96.9007 10.5987 95.4203 9.84375 93.8438 9.84375H78.2322C76.1993 4.11438 70.7289 0 64.3125 0C57.8948 0 52.4218 4.11438 50.3903 9.84375H34.7812C33.2047 9.84375 31.7243 10.5987 30.7976 11.8753C29.8722 13.1506 29.6133 14.7925 30.1016 16.2922L38.3073 41.454C33.3175 43.8265 29.8594 48.915 29.8594 54.7969C29.8594 58.5729 31.2859 62.022 33.6264 64.6355C13.8787 76.5544 0 99.1912 0 123.703C0 140.636 6.74963 152.834 20.0618 159.962ZM158.156 113.859C158.156 116.573 155.948 118.781 153.234 118.781H113.531C110.818 118.781 108.609 116.573 108.609 113.859C108.609 111.146 110.818 108.938 113.531 108.938H153.234C155.948 108.938 158.156 111.146 158.156 113.859ZM158.156 133.547C158.156 136.26 155.948 138.469 153.234 138.469H113.531C110.818 138.469 108.609 136.26 108.609 133.547C108.609 130.833 110.818 128.625 113.531 128.625H153.234C155.948 128.625 158.156 130.833 158.156 133.547ZM153.234 158.156H113.531C110.818 158.156 108.609 155.948 108.609 153.234C108.609 150.521 110.818 148.312 113.531 148.312H153.234C155.948 148.312 158.156 150.521 158.156 153.234C158.156 155.948 155.948 158.156 153.234 158.156ZM158.156 94.1719C158.156 96.8853 155.948 99.0938 153.234 99.0938H113.531C110.818 99.0938 108.609 96.8853 108.609 94.1719C108.609 91.4584 110.818 89.25 113.531 89.25H153.234C155.948 89.25 158.156 91.4584 158.156 94.1719ZM83.859 59.7188H44.7673C44.7237 59.7175 44.6801 59.7188 44.6365 59.7188H44.625C41.9116 59.7188 39.7031 57.5103 39.7031 54.7969C39.7031 52.0886 41.9026 49.884 44.6096 49.8763H44.6237C44.6353 49.8763 44.6468 49.875 44.6583 49.875H83.9654C83.9769 49.875 83.9897 49.8763 84.0013 49.8763H84.0154C86.7224 49.884 88.9219 52.0886 88.9219 54.7969C88.9219 57.5103 86.7134 59.7188 84 59.7188H83.9846C83.9436 59.7188 83.9013 59.7175 83.859 59.7188ZM54.4688 19.6875C57.1873 19.6875 59.3906 17.4842 59.3906 14.7656C59.3906 12.0522 61.5991 9.84375 64.3125 9.84375C67.0259 9.84375 69.2344 12.0522 69.2344 14.7656V24.6094C69.2344 27.3279 71.4377 29.5312 74.1562 29.5312C76.8748 29.5312 79.0781 27.3279 79.0781 24.6094V19.6875H87.0621L80.4278 40.0312H48.1972L41.5629 19.6875H54.4688ZM45.585 69.5625H83.0208C90.4741 72.6758 97.2673 77.5785 102.933 83.9064C100.356 86.566 98.7656 90.1857 98.7656 94.1719C98.7656 97.9504 100.195 101.401 102.538 104.016C100.195 106.63 98.7656 110.081 98.7656 113.859C98.7656 117.638 100.195 121.088 102.538 123.703C100.195 126.318 98.7656 129.768 98.7656 133.547C98.7656 137.325 100.195 140.776 102.538 143.391C100.195 146.005 98.7656 149.456 98.7656 153.234C98.7656 153.336 98.7708 153.436 98.7733 153.536C90.4471 156.68 79.3575 158.156 64.3125 158.156C46.0503 158.156 33.4649 155.972 24.7081 151.284C14.567 145.854 9.84375 137.091 9.84375 123.703C9.84375 100.488 24.4966 78.3655 45.585 69.5625Z" fill="url(#paint0_linear_421_1907)"/>
</g>
<defs>
<linearGradient id="paint0_linear_421_1907" x1="84" y1="0" x2="84" y2="168" gradientUnits="userSpaceOnUse">
<stop offset="0.302885" stop-color="white" stop-opacity="0.26"/>
<stop offset="1" stop-opacity="0"/>
</linearGradient>
<clipPath id="clip0_421_1907">
<rect width="168" height="168" fill="white"/>
</clipPath>
</defs>
</svg>
