<svg width="40" height="40" viewBox="0 0 40 40" fill="none" xmlns="http://www.w3.org/2000/svg">
<g opacity="0.2">
<path d="M8.75077 23.9696C8.36102 22.705 9.4019 21.9453 10.7252 22.3588C11.5566 22.6186 13.1941 24.3634 13.4791 24.7489C14.5458 26.1924 17.1163 28.3861 19.1496 30.6764C19.248 26.3376 18.8716 22.201 18.8096 17.8949C18.7461 14.4108 18.5711 11.3434 18.5191 7.91407C18.5035 6.88082 18.3916 5.31307 18.4555 4.27251C18.5192 3.2377 19.5793 2.65695 20.8053 3.13376C22.6759 3.8612 22.4161 10.2003 22.52 16.7471C22.5539 18.8801 22.7278 24.645 22.8213 29.1528C24.3842 26.8516 26.0897 24.5743 27.716 22.3068C29.1202 20.4854 31.6312 20.04 31.3012 22.5146C31.0933 24.0734 29.715 25.859 28.836 27.1297C26.7807 30.1007 24.8062 33.3222 22.4891 36.3641C20.7083 38.7019 17.1627 34.2543 16.3434 33.3585C14.9389 31.8228 13.6775 30.1534 12.1921 28.6921C10.7689 27.2922 9.38152 26.0001 8.75077 23.9696Z" fill="white"/>
</g>
</svg>
