<svg width="32" height="32" viewBox="0 0 32 32" fill="none" xmlns="http://www.w3.org/2000/svg">
<path d="M11.5295 17.106L2.27944 7.75999C0.832986 10.1645 0 12.9803 0 15.991C0 19.5759 1.18043 22.886 3.17203 25.5522L11.5295 17.106Z" fill="white"/>
<path d="M10.1935 25.9258H3.46564C6.3949 29.6139 10.9145 31.982 15.9909 31.982C18.9813 31.982 21.7768 31.1606 24.1696 29.7316L15.2423 20.8595L10.1935 25.9258Z" fill="white"/>
<path d="M19.9975 15.991L29.0702 25.1858C30.9019 22.5837 31.982 19.4145 31.982 15.991C31.982 12.5675 30.9019 9.39834 29.0702 6.79617L19.9975 15.991Z" fill="#FD3F00"/>
<path d="M7.91265 6.05623H10.1935L16.3225 12.2229L22.4078 6.05623H28.5149C25.5871 2.36812 21.0674 0 15.991 0C10.7445 0 6.08822 2.52658 3.17204 6.42984L25.5071 28.8361C26.4578 28.1296 27.3272 27.3199 28.0991 26.4244L7.91265 6.05623Z" fill="#FD3F00"/>
</svg>
