<svg width="36" height="36" viewBox="0 0 36 36" fill="none" xmlns="http://www.w3.org/2000/svg">
<path d="M12.9781 19.2549L2.56583 8.7347C0.937641 11.4413 0 14.6109 0 17.9998C0 22.0351 1.32873 25.7611 3.57056 28.7622L12.9781 19.2549Z" fill="black"/>
<path d="M11.4716 29.1826H3.89844C7.19573 33.334 12.2832 35.9997 17.9974 35.9997C21.3634 35.9997 24.5102 35.0751 27.2036 33.4666L17.1547 23.4798L11.4716 29.1826Z" fill="black"/>
<path d="M22.5078 18.0004L32.7204 28.3505C34.7822 25.4214 35.9981 21.8541 35.9981 18.0004C35.9981 14.1468 34.7822 10.5795 32.7204 7.65039L22.5078 18.0004Z" fill="black"/>
<path d="M8.90652 6.81713H11.474L18.3729 13.7586L25.2228 6.81713H32.0972C28.8015 2.66565 23.714 0 17.9998 0C12.0942 0 6.85287 2.84401 3.57031 7.23767L28.7115 32.4591C29.7817 31.6638 30.7603 30.7523 31.6292 29.7443L8.90652 6.81713Z" fill="black"/>
</svg>
