<svg width="102" height="32" viewBox="0 0 102 32" fill="none" xmlns="http://www.w3.org/2000/svg">
<path d="M93.7913 25.8521V11.3989H96.7523V13.0993H97.2213C97.4559 12.4934 97.8272 12.0537 98.3354 11.78C98.8631 11.4869 99.508 11.3403 100.27 11.3403H102V14.0668H100.153C99.1758 14.0668 98.3745 14.3404 97.749 14.8876C97.1236 15.4153 96.8109 16.2362 96.8109 17.3502V25.8521H93.7913Z" fill="black"/>
<path d="M84.1758 26.2626C82.7099 26.2626 81.4298 25.9596 80.3353 25.3537C79.2408 24.7283 78.3808 23.8586 77.7554 22.7445C77.1495 21.611 76.8466 20.3015 76.8466 18.8161V18.4643C76.8466 16.9593 77.1495 15.6499 77.7554 14.5358C78.3613 13.4022 79.2017 12.5325 80.2766 11.9266C81.3711 11.3012 82.6317 10.9885 84.0585 10.9885C85.4462 10.9885 86.6579 11.3012 87.6938 11.9266C88.7492 12.5325 89.5701 13.3827 90.1564 14.4772C90.7427 15.5717 91.0359 16.8519 91.0359 18.3177V19.4611H79.9248C79.9639 20.7314 80.3841 21.7478 81.1855 22.51C82.0063 23.2527 83.0226 23.624 84.2344 23.624C85.368 23.624 86.2182 23.37 86.785 22.8618C87.3713 22.3536 87.8208 21.7673 88.1335 21.1028L90.6255 22.3927C90.3518 22.94 89.9512 23.5165 89.4235 24.1224C88.9153 24.7283 88.241 25.2365 87.4006 25.6469C86.5602 26.0573 85.4853 26.2626 84.1758 26.2626ZM79.9541 17.145H87.9576C87.8795 16.0505 87.4886 15.2003 86.785 14.5945C86.0814 13.969 85.1628 13.6563 84.0292 13.6563C82.8956 13.6563 81.9672 13.969 81.2441 14.5945C80.5405 15.2003 80.1105 16.0505 79.9541 17.145Z" fill="black"/>
<path d="M66.3404 25.8521L61.4738 11.3989H64.6694L68.5099 23.624H68.9789L72.8194 11.3989H76.015L71.1484 25.8521H66.3404Z" fill="black"/>
<path d="M56.3768 25.8521V11.3989H59.3964V25.8521H56.3768ZM57.9013 9.43469C57.3149 9.43469 56.8166 9.24902 56.4061 8.87767C56.0152 8.48678 55.8198 7.98839 55.8198 7.38251C55.8198 6.77663 56.0152 6.28802 56.4061 5.91667C56.8166 5.52578 57.3149 5.33033 57.9013 5.33033C58.5072 5.33033 59.0055 5.52578 59.3964 5.91667C59.7873 6.28802 59.9828 6.77663 59.9828 7.38251C59.9828 7.98839 59.7873 8.48678 59.3964 8.87767C59.0055 9.24902 58.5072 9.43469 57.9013 9.43469Z" fill="black"/>
<path d="M38.6449 25.8521V5.33033H47.2641C48.5345 5.33033 49.6485 5.5551 50.6062 6.00462C51.5834 6.4346 52.3359 7.06003 52.8636 7.8809C53.4108 8.70177 53.6845 9.679 53.6845 10.8126V11.1351C53.6845 12.425 53.3718 13.4609 52.7463 14.2427C52.1404 15.0049 51.3977 15.5424 50.5182 15.8551V16.3241C51.2609 16.3632 51.857 16.6173 52.3066 17.0864C52.7561 17.5359 52.9809 18.1907 52.9809 19.0506V25.8521H49.7853V19.4904C49.7853 18.9627 49.6485 18.5425 49.3749 18.2297C49.1013 17.917 48.6615 17.7607 48.0556 17.7607H41.8111V25.8521H38.6449ZM41.8111 14.8876H46.9123C48.0459 14.8876 48.9254 14.6042 49.5508 14.0374C50.1762 13.4511 50.4889 12.6595 50.4889 11.6628V11.4282C50.4889 10.4315 50.1762 9.64968 49.5508 9.08289C48.9449 8.49655 48.0654 8.20338 46.9123 8.20338H41.8111V14.8876Z" fill="black"/>
<path d="M11.5295 17.106L2.27944 7.75999C0.832986 10.1645 0 12.9803 0 15.991C0 19.5759 1.18043 22.886 3.17203 25.5522L11.5295 17.106Z" fill="#3D3D3D"/>
<path d="M10.1935 25.9258H3.46564C6.3949 29.6139 10.9145 31.982 15.9909 31.982C18.9813 31.982 21.7768 31.1606 24.1696 29.7316L15.2423 20.8595L10.1935 25.9258Z" fill="#3D3D3D"/>
<path d="M19.9975 15.991L29.0702 25.1858C30.9019 22.5837 31.982 19.4145 31.982 15.991C31.982 12.5675 30.9019 9.39834 29.0702 6.79617L19.9975 15.991Z" fill="#FD3F00"/>
<path d="M7.91265 6.05623H10.1935L16.3225 12.2229L22.4078 6.05623H28.5149C25.5871 2.36812 21.0674 0 15.991 0C10.7445 0 6.08822 2.52658 3.17204 6.42984L25.5071 28.8361C26.4578 28.1296 27.3272 27.3199 28.0991 26.4244L7.91265 6.05623Z" fill="#FD3F00"/>
</svg>
