<svg width="128" height="40" viewBox="0 0 128 40" fill="none" xmlns="http://www.w3.org/2000/svg">
<path d="M117.305 32.3343V14.2574H121.008V16.3841H121.595C121.888 15.6263 122.352 15.0763 122.988 14.7341C123.648 14.3674 124.455 14.1841 125.408 14.1841H127.571V17.5941H125.261C124.039 17.5941 123.037 17.9363 122.255 18.6208C121.472 19.2808 121.081 20.3075 121.081 21.7008V32.3343H117.305Z" fill="white"/>
<path d="M105.28 32.8472C103.447 32.8472 101.845 32.4683 100.477 31.7105C99.1077 30.9283 98.0322 29.8405 97.2499 28.4472C96.4922 27.0294 96.1133 25.3916 96.1133 23.5338V23.0938C96.1133 21.2115 96.4922 19.5737 97.2499 18.1804C98.0077 16.7626 99.0588 15.6748 100.403 14.917C101.772 14.1348 103.349 13.7437 105.133 13.7437C106.869 13.7437 108.384 14.1348 109.68 14.917C111 15.6748 112.026 16.7381 112.76 18.107C113.493 19.4759 113.86 21.0771 113.86 22.9104V24.3404H99.9632C100.012 25.9293 100.538 27.2005 101.54 28.1538C102.567 29.0827 103.838 29.5472 105.353 29.5472C106.771 29.5472 107.834 29.2294 108.543 28.5938C109.277 27.9583 109.839 27.2249 110.23 26.3938L113.346 28.0071C113.004 28.6916 112.503 29.4127 111.843 30.1705C111.208 30.9283 110.364 31.5639 109.313 32.0772C108.262 32.5905 106.918 32.8472 105.28 32.8472ZM99.9999 21.4437H110.01C109.912 20.0748 109.423 19.0115 108.543 18.2537C107.663 17.4715 106.514 17.0804 105.097 17.0804C103.679 17.0804 102.518 17.4715 101.613 18.2537C100.733 19.0115 100.195 20.0748 99.9999 21.4437Z" fill="white"/>
<path d="M82.9733 32.3336L76.8867 14.2568H80.8834L85.6866 29.5469H86.2733L91.0766 14.2568H95.0732L88.9866 32.3336H82.9733Z" fill="white"/>
<path d="M70.5053 32.3349V14.2581H74.2819V32.3349H70.5053ZM72.4119 11.8014C71.6786 11.8014 71.0553 11.5691 70.5419 11.1047C70.053 10.6158 69.8086 9.99245 69.8086 9.23466C69.8086 8.47688 70.053 7.86576 70.5419 7.40131C71.0553 6.91242 71.6786 6.66797 72.4119 6.66797C73.1697 6.66797 73.793 6.91242 74.2819 7.40131C74.7708 7.86576 75.0152 8.47688 75.0152 9.23466C75.0152 9.99245 74.7708 10.6158 74.2819 11.1047C73.793 11.5691 73.1697 11.8014 72.4119 11.8014Z" fill="white"/>
<path d="M48.3359 32.3349V6.66797H59.1158C60.7047 6.66797 62.098 6.94908 63.2958 7.51131C64.518 8.0491 65.4591 8.83133 66.1191 9.85801C66.8036 10.8847 67.1458 12.1069 67.1458 13.5247V13.9281C67.1458 15.5414 66.7547 16.837 65.9725 17.8148C65.2147 18.7681 64.2858 19.4403 63.1858 19.8315V20.4181C64.1147 20.467 64.8602 20.7848 65.4225 21.3715C65.9847 21.9337 66.2658 22.7526 66.2658 23.8282V32.3349H62.2692V24.3782C62.2692 23.7182 62.098 23.1926 61.7558 22.8015C61.4136 22.4104 60.8636 22.2148 60.1058 22.2148H52.2959V32.3349H48.3359ZM52.2959 18.6214H58.6759C60.0936 18.6214 61.1936 18.267 61.9758 17.5581C62.758 16.8248 63.1491 15.8347 63.1491 14.5881V14.2947C63.1491 13.048 62.758 12.0703 61.9758 11.3614C61.2181 10.628 60.1181 10.2613 58.6759 10.2613H52.2959V18.6214Z" fill="white"/>
<path d="M14.4199 21.3941L2.85088 9.70489C1.04181 12.7122 0 16.2341 0 19.9995C0 24.4832 1.47635 28.6233 3.96724 31.9579L14.4199 21.3941Z" fill="white"/>
<path d="M12.7426 32.4251H4.32812C7.99173 37.0379 13.6444 39.9997 19.9934 39.9997C23.7334 39.9997 27.2297 38.9725 30.2225 37.1852L19.0571 26.0887L12.7426 32.4251Z" fill="white"/>
<path d="M25.0078 20.0006L36.355 31.5007C38.6459 28.2462 39.9968 24.2825 39.9968 20.0006C39.9968 15.7188 38.6459 11.7551 36.355 8.50049L25.0078 20.0006Z" fill="url(#paint0_linear_593_130)"/>
<path d="M9.9056 7.57463H12.7583L20.4237 15.2874L28.0345 7.57463H35.6727C32.0109 2.96185 26.3582 0 20.0092 0C13.4474 0 7.6238 3.16004 3.97656 8.04191L31.9109 36.0659C33.1 35.1822 34.1872 34.1695 35.1527 33.0495L9.9056 7.57463Z" fill="url(#paint1_linear_593_130)"/>
<defs>
<linearGradient id="paint0_linear_593_130" x1="25.0078" y1="8.50049" x2="46.0494" y2="22.213" gradientUnits="userSpaceOnUse">
<stop stop-color="#EF31BF"/>
<stop offset="1" stop-color="#2754E9"/>
</linearGradient>
<linearGradient id="paint1_linear_593_130" x1="3.97656" y1="0" x2="39.7437" y2="31.4336" gradientUnits="userSpaceOnUse">
<stop stop-color="#EF31BF"/>
<stop offset="1" stop-color="#2754E9"/>
</linearGradient>
</defs>
</svg>
